<?xml version="1.0" encoding="utf-8"?>
<!-- Generator: Adobe Illustrator 16.0.0, SVG Export Plug-In . SVG Version: 6.00 Build 0)  -->
<!DOCTYPE svg PUBLIC "-//W3C//DTD SVG 1.1//EN" "http://www.w3.org/Graphics/SVG/1.1/DTD/svg11.dtd">
<svg version="1.1" id="Layer_1" xmlns="http://www.w3.org/2000/svg" xmlns:xlink="http://www.w3.org/1999/xlink" x="0px" y="0px"
	 width="300px" height="300px" viewBox="0 0 300 300" enable-background="new 0 0 300 300" xml:space="preserve">
<g>
	<g>
		<path fill="#1976D2" d="M269.92,0H30.08C13.493,0,0,13.493,0,30.08v239.84C0,286.507,13.493,300,30.08,300h239.84
			c16.585,0,30.08-13.493,30.08-30.079V30.08C300,13.493,286.505,0,269.92,0z M254.579,256.284
			c0,12.979-10.558,23.537-23.536,23.537H67.105c-12.978,0-23.536-10.559-23.536-23.537v-91.201c0-2.799,0.964-5.281,3.033-7.817
			c1.302-1.593,3.091-3.277,5.593-5.245c-1.646-2.122-3.106-4.376-4.368-6.74c-6.009-11.252-7.271-24.188-3.556-36.423
			c3.717-12.236,11.961-22.284,23.214-28.292c6.9-3.685,14.666-5.634,22.457-5.634c17.735,0,33.926,9.69,42.261,25.289
			c0.982,1.842,1.844,3.747,2.579,5.699c9.099-3.819,12.69-4.366,14.8-4.366c1.013,0,1.998,0.121,2.924,0.358
			c1.293,0.332,2.669,0.742,4.078,1.183c-5.273-4.064-9.735-9.237-12.986-15.327c-6.01-11.251-7.273-24.187-3.557-36.422
			c3.716-12.236,11.96-22.283,23.213-28.293c6.901-3.686,14.667-5.634,22.458-5.634c17.735,0,33.928,9.691,42.261,25.29
			c12.421,23.263,3.603,52.294-19.659,64.717c-6.899,3.684-14.666,5.633-22.456,5.633l0,0c-1.832,0-3.641-0.128-5.432-0.331
			c11.111,5.199,22.66,11.332,32.334,16.882c16.545,9.491,28.185,17.265,34.596,23.103c5.996,5.46,7.224,8.895,7.224,12.371V256.284
			z"/>
		<path fill="#1976D2" d="M206.09,103.262c20.968-11.197,28.912-37.365,17.719-58.33c-11.199-20.967-37.365-28.914-58.332-17.716
			c-20.968,11.197-28.914,37.363-17.717,58.328C158.956,106.511,185.124,114.458,206.09,103.262z M216.051,49.074
			c8.908,16.688,2.585,37.516-14.103,46.427c-16.688,8.913-37.516,2.587-46.43-14.099c-8.911-16.69-2.587-37.514,14.103-46.426
			C186.31,26.063,207.135,32.388,216.051,49.074z"/>
		<polygon fill="#1976D2" points="176.778,188.58 174.823,186.833 173.32,185.495 167.878,180.639 164.984,178.056 164.412,177.544 
			159.543,173.2 157.033,170.962 156.104,170.131 151.279,175.538 154.101,178.058 159.543,182.911 162.437,185.495 167.88,190.351 
			171.336,193.436 176.331,197.892 179.214,196.12 182.777,193.931 182.225,193.436 		"/>
		<polygon fill="#1976D2" points="164.422,193.436 158.979,188.58 156.085,185.997 150.645,181.142 148.908,179.595 
			147.979,178.765 143.154,184.171 145.199,185.997 150.645,190.853 153.536,193.436 158.979,198.292 162.437,201.378 
			165.79,204.368 172.238,200.408 167.88,196.521 		"/>
		<polygon fill="#1976D2" points="156.085,200.876 150.642,196.019 147.746,193.436 142.306,188.58 140.402,186.88 135.577,192.287 
			136.864,193.436 142.306,198.292 145.199,200.874 150.645,205.73 154.101,208.815 155.916,210.437 162.361,206.475 
			159.543,203.962 		"/>
		<polygon fill="#1976D2" points="174.549,181.671 180.818,174.766 175.925,170.325 169.619,177.269 169.436,177.472 
			174.33,181.913 		"/>
		<polygon fill="#1976D2" points="139.516,210.497 145.424,213.822 149.264,209.595 144.37,205.153 		"/>
		<polygon fill="#1976D2" points="185.35,55.658 188.245,58.241 193.688,63.098 197.145,66.182 202.587,71.038 203.838,72.154 
			208.661,66.746 208.029,66.182 202.587,61.326 200.628,59.578 199.13,58.241 193.688,53.384 190.792,50.803 190.22,50.291 
			185.352,45.946 182.841,43.707 181.914,42.876 177.086,48.285 179.908,50.803 		"/>
		<polygon fill="#1976D2" points="171.007,58.744 176.449,63.6 179.342,66.182 184.785,71.038 188.245,74.124 193.688,78.979 
			194.787,79.96 195.714,80.786 200.535,75.38 199.13,74.124 193.688,69.269 190.229,66.182 184.785,61.326 181.891,58.744 
			176.451,53.888 174.718,52.34 173.787,51.51 168.96,56.919 		"/>
		<polygon fill="#1976D2" points="185.352,76.706 181.891,73.62 176.451,68.764 173.555,66.182 168.111,61.326 166.21,59.627 
			161.387,65.036 162.671,66.182 168.111,71.038 171.007,73.62 176.451,78.478 179.908,81.562 185.352,86.418 187.208,88.076 
			188.135,88.902 192.959,83.496 190.792,81.562 		"/>
		<polygon fill="#1976D2" points="200.357,54.416 206.626,47.515 201.734,43.071 195.428,50.016 195.245,50.218 200.135,54.66 		"/>
		<polygon fill="#1976D2" points="163.687,85.044 168.582,89.487 175.072,82.341 170.179,77.9 		"/>
		<polygon fill="#1976D2" points="108.067,129.667 112.892,124.26 110.986,122.558 104.858,117.092 94.447,107.804 87.072,101.22 
			86.142,100.39 81.315,105.798 104.133,126.153 		"/>
		<polygon fill="#1976D2" points="93.059,132.156 99.017,137.474 99.944,138.3 104.767,132.893 99.809,128.469 78.945,109.853 
			78.019,109.022 73.191,114.431 		"/>
		<polygon fill="#1976D2" points="70.438,117.14 65.616,122.548 82.855,137.931 90.572,144.814 91.438,145.587 92.365,146.415 
			97.047,141.168 97.19,141.009 89.496,134.145 		"/>
		<polygon fill="#1976D2" points="104.589,111.929 110.856,105.025 105.965,100.584 99.658,107.527 99.475,107.729 104.366,112.173 
					"/>
		<polygon fill="#1976D2" points="67.918,142.558 70.767,145.146 72.811,147 79.012,140.175 79.302,139.854 74.407,135.411 		"/>
		<path fill="#1976D2" d="M244.178,156.201c-5.157-4.694-14.992-11.727-33.767-22.498c-18.376-10.541-43.545-23.228-59.081-27.22
			c-0.542-0.139-1.13-0.21-1.747-0.211c-3.174,0.001-9.96,2.572-17.736,6.077c-0.839-3.375-2.098-6.701-3.808-9.905
			c-11.201-20.965-37.366-28.913-58.331-17.716c-20.967,11.195-28.915,37.362-17.717,58.329c1.947,3.647,4.359,6.894,7.106,9.721
			c-4.556,3.215-7.271,5.555-8.839,7.473c-1.525,1.869-1.97,3.34-1.97,4.832v91.201c0,10.375,8.443,18.818,18.816,18.818
			l163.938-0.001c10.378,0,18.816-8.442,18.816-18.817v-91.201C249.859,163.712,249.856,161.374,244.178,156.201z M120.28,106.589
			c1.648,3.086,2.771,6.316,3.407,9.586c0.7,3.587,0.8,7.223,0.357,10.773c-1.334,10.697-7.657,20.613-17.869,26.067
			c-9.904,5.29-21.27,5.21-30.732,0.784c-3.226-1.51-6.225-3.533-8.876-6.012c-2.677-2.502-4.998-5.468-6.816-8.875
			c-8.913-16.688-2.588-37.513,14.1-46.425C90.539,83.575,111.366,89.9,120.28,106.589z M236.51,162.499l-49.745,30.078
			l-10.604,6.412l-2.452,1.482l-7.487,4.527l-3.123,1.89l-9.938,6.009l-4.296,2.596l-0.616,0.373l-12.045-7.184l-1.489-0.888
			l-7.139-4.019c-0.035-0.102-0.064-0.199-0.098-0.299c-5.283-15.604,1.336-33.236,16.336-41.249
			c16.688-8.912,37.517-2.586,46.428,14.102c1.851,3.467,3.036,7.112,3.615,10.793l7.986-4.908
			c-0.839-3.415-2.11-6.786-3.841-10.029c-11.2-20.966-37.364-28.913-58.332-17.717c-16.009,8.549-24.414,25.825-22.518,42.85
			l-56.335-33.609c1.554-1.231,3.643-2.743,6.239-4.499c12.674,7.953,29.145,9.104,43.262,1.564
			c14.548-7.769,22.821-22.746,22.786-38.191c8.371-3.899,14.193-6.198,16.25-6.473c11.672,3.109,32.127,12.507,53.591,24.638
			c15.806,8.931,26.645,16.235,32.453,20.851C235.79,161.911,236.163,162.212,236.51,162.499z M240.046,171.831v84.453
			c0,0.703-0.088,1.385-0.24,2.042l-36.433-64.319L240.046,171.831z M58.104,173.519l34.508,20.587l-34.508,60.933V173.519z
			 M101.044,199.137l47.238,28.181l46.69-28.233l37.431,66.089c-0.447,0.067-0.896,0.114-1.36,0.114H67.105
			c-1.124,0-2.195-0.216-3.189-0.595L101.044,199.137z"/>
	</g>
</g>
</svg>
