<?xml version="1.0" encoding="utf-8"?>
<!-- Generator: Adobe Illustrator 16.0.0, SVG Export Plug-In . SVG Version: 6.00 Build 0)  -->
<!DOCTYPE svg PUBLIC "-//W3C//DTD SVG 1.1//EN" "http://www.w3.org/Graphics/SVG/1.1/DTD/svg11.dtd">
<svg version="1.1" id="Layer_1" xmlns="http://www.w3.org/2000/svg" xmlns:xlink="http://www.w3.org/1999/xlink" x="0px" y="0px"
	 width="300px" height="300px" viewBox="0 0 300 300" enable-background="new 0 0 300 300" xml:space="preserve">
<g>
	<path fill="#1976D2" d="M245.789,157.581c-5.157-4.694-14.991-11.727-33.768-22.498c-18.374-10.542-43.544-23.228-59.08-27.221
		c-0.543-0.138-1.13-0.208-1.747-0.208c-3.174,0-9.959,2.571-17.735,6.075c-0.84-3.374-2.098-6.7-3.809-9.904
		c-11.199-20.966-37.366-28.913-58.331-17.716c-20.967,11.195-28.915,37.363-17.717,58.329c1.947,3.647,4.359,6.894,7.108,9.721
		c-4.558,3.215-7.272,5.555-8.841,7.473c-1.525,1.869-1.97,3.341-1.97,4.832v91.201c0,10.375,8.443,18.819,18.817,18.819
		l163.938-0.003c10.376,0,18.818-8.441,18.818-18.816v-91.201C251.474,165.091,251.47,162.753,245.789,157.581z M134.717,123.963
		c8.37-3.899,14.192-6.198,16.25-6.471c11.672,3.108,32.125,12.505,53.591,24.637c15.805,8.93,26.645,16.234,32.45,20.85
		c0.394,0.312,0.768,0.612,1.113,0.899l-88.262,53.368l-13.534-8.071l-7.14-4.02c-0.034-0.101-0.064-0.199-0.095-0.298
		c-5.286-15.604,1.335-33.237,16.333-41.249c16.688-8.912,37.518-2.587,46.429,14.102c1.853,3.468,3.037,7.112,3.615,10.793
		l7.986-4.908c-0.839-3.416-2.109-6.786-3.84-10.029c-11.201-20.966-37.366-28.913-58.332-17.717
		c-16.01,8.548-24.415,25.825-22.518,42.849l-56.336-33.608c1.554-1.231,3.643-2.743,6.238-4.499
		c12.676,7.953,29.146,9.104,43.265,1.564C126.479,154.386,134.752,139.409,134.717,123.963z M75.462,93.869
		c16.689-8.914,37.516-2.588,46.43,14.101c1.647,3.086,2.772,6.316,3.407,9.585c0.698,3.588,0.801,7.224,0.357,10.773
		c-1.334,10.698-7.656,20.613-17.869,26.066c-9.905,5.292-21.268,5.213-30.732,0.785c-3.225-1.51-6.226-3.533-8.876-6.012
		c-2.676-2.502-4.997-5.468-6.817-8.875C52.45,123.604,58.774,102.78,75.462,93.869z M59.715,174.898l34.511,20.587l-34.511,60.933
		V174.898z M232.655,266.667H68.718c-1.125,0-2.196-0.216-3.19-0.595l37.129-65.557l47.237,28.182l46.69-28.232l37.43,66.088
		C233.568,266.62,233.117,266.667,232.655,266.667z M241.657,257.664c0,0.702-0.088,1.385-0.24,2.042l-36.432-64.319l36.672-22.176
		V257.664z"/>
	<polygon fill="#1976D2" points="178.391,189.96 174.933,186.875 169.489,182.018 166.595,179.435 161.154,174.579 158.645,172.34 
		157.717,171.51 152.893,176.918 155.712,179.436 161.154,184.291 164.049,186.875 169.491,191.73 172.947,194.816 177.943,199.271 
		180.826,197.5 184.388,195.311 183.834,194.816 	"/>
	<polygon fill="#1976D2" points="166.034,194.816 160.588,189.96 157.696,187.377 152.256,182.521 150.52,180.975 149.592,180.144 
		144.766,185.551 146.813,187.377 152.256,192.232 155.147,194.814 160.59,199.672 164.049,202.756 167.401,205.748 
		173.849,201.787 169.491,197.901 	"/>
	<polygon fill="#1976D2" points="157.696,202.255 152.253,197.398 149.358,194.816 143.916,189.96 142.014,188.26 137.189,193.668 
		138.476,194.816 143.92,199.672 146.813,202.254 152.256,207.109 155.712,210.195 157.527,211.816 163.973,207.854 161.154,205.34 
			"/>
	
		<rect x="173.435" y="172.672" transform="matrix(0.7405 0.6721 -0.6721 0.7405 165.1576 -72.718)" fill="#1976D2" width="6.609" height="9.653"/>
	<polygon fill="#1976D2" points="141.129,211.877 147.035,215.203 150.877,210.975 145.981,206.533 	"/>
	<path fill="#1976D2" d="M207.7,104.642c20.969-11.197,28.915-37.365,17.72-58.33c-11.199-20.966-37.365-28.914-58.331-17.716
		c-20.967,11.197-28.914,37.363-17.718,58.329S186.735,115.837,207.7,104.642z M171.232,36.355
		c16.688-8.912,37.514-2.587,46.43,14.099c8.908,16.688,2.584,37.516-14.103,46.428c-16.688,8.913-37.517,2.586-46.43-14.1
		C148.219,66.092,154.544,45.268,171.232,36.355z"/>
	<polygon fill="#1976D2" points="186.961,57.038 189.855,59.621 195.298,64.477 198.756,67.562 204.199,72.418 205.449,73.534 
		210.271,68.126 209.642,67.562 204.199,62.705 200.742,59.621 195.298,54.764 192.403,52.182 186.963,47.326 184.453,45.086 
		183.525,44.256 178.696,49.665 181.52,52.182 	"/>
	<polygon fill="#1976D2" points="178.062,64.979 180.954,67.562 186.398,72.418 189.855,75.503 195.298,80.359 196.396,81.34 
		197.325,82.166 202.147,76.76 200.742,75.503 195.298,70.648 191.841,67.562 186.398,62.705 183.505,60.124 178.062,55.268 
		176.328,53.72 175.397,52.89 170.572,58.299 172.618,60.124 	"/>
	<polygon fill="#1976D2" points="169.723,72.418 172.618,75 178.062,79.856 181.52,82.941 186.962,87.798 188.819,89.456 
		189.747,90.282 194.57,84.875 192.403,82.942 186.962,78.085 183.505,75 178.062,70.144 175.167,67.562 169.723,62.705 
		167.821,61.006 162.998,66.415 164.282,67.562 	"/>
	
		<rect x="199.243" y="45.418" transform="matrix(0.7403 0.6723 -0.6723 0.7403 86.3773 -123.1173)" fill="#1976D2" width="6.609" height="9.655"/>
	<polygon fill="#1976D2" points="165.298,86.425 170.193,90.867 176.683,83.72 171.789,79.28 	"/>
	<polygon fill="#1976D2" points="109.679,131.046 114.503,125.64 112.599,123.938 88.684,102.6 87.755,101.77 82.927,107.177 
		105.743,127.533 	"/>
	<polygon fill="#1976D2" points="100.627,138.853 101.553,139.68 106.378,134.272 101.42,129.848 80.557,111.232 79.631,110.403 
		74.803,115.811 94.669,133.537 	"/>
	<polygon fill="#1976D2" points="92.184,146.195 93.051,146.968 93.978,147.795 98.659,142.548 98.802,142.389 91.107,135.525 
		72.049,118.52 67.228,123.928 84.469,139.311 	"/>
	
		<rect x="103.474" y="102.931" transform="matrix(0.7405 0.6721 -0.6721 0.7405 100.1313 -43.7979)" fill="#1976D2" width="6.609" height="9.654"/>
	<polygon fill="#1976D2" points="69.529,143.938 72.38,146.525 74.422,148.381 80.622,141.554 80.914,141.234 76.019,136.792 	"/>
	<path fill="#1976D2" d="M269.921,0H30.08C13.493,0,0,13.494,0,30.08v239.84C0,286.506,13.493,300,30.08,300h239.841
		C286.506,300,300,286.506,300,269.92V30.08C300,13.494,286.506,0,269.921,0z M287.413,269.92c0,9.646-7.847,17.494-17.492,17.494
		H30.08c-9.646,0-17.494-7.848-17.494-17.494V30.08c0-9.646,7.848-17.494,17.494-17.494h239.841c9.646,0,17.492,7.847,17.492,17.494
		V269.92z"/>
</g>
</svg>
