<?xml version="1.0" encoding="utf-8"?>
<!-- Generator: Adobe Illustrator 16.0.0, SVG Export Plug-In . SVG Version: 6.00 Build 0)  -->
<!DOCTYPE svg PUBLIC "-//W3C//DTD SVG 1.1//EN" "http://www.w3.org/Graphics/SVG/1.1/DTD/svg11.dtd">
<svg version="1.1" id="Layer_1" xmlns="http://www.w3.org/2000/svg" xmlns:xlink="http://www.w3.org/1999/xlink" x="0px" y="0px"
	 width="300px" height="300px" viewBox="0 0 300 300" enable-background="new 0 0 300 300" xml:space="preserve">
<g>
	<path fill="#1976D2" d="M269.921,0H30.08C13.493,0,0,13.494,0,30.08v239.84C0,286.506,13.493,300,30.08,300h239.841
		C286.506,300,300,286.506,300,269.92V30.08C300,13.494,286.506,0,269.921,0z M143.299,53.225
		c3.583-11.796,11.53-21.482,22.377-27.275c6.652-3.553,14.139-5.431,21.648-5.431c15.026,0,28.906,7.216,37.501,19.173
		c0.573,0.797,1.123,1.615,1.647,2.454c0.56,0.895,1.092,1.812,1.594,2.752c5.791,10.847,7.009,23.317,3.426,35.113
		c-3.583,11.797-11.531,21.484-22.379,27.277c-6.652,3.552-14.137,5.43-21.647,5.43c-17.101,0-32.711-9.342-40.741-24.38
		C140.933,77.491,139.716,65.021,143.299,53.225z M254.473,166.466v91.196c0,12.027-9.789,21.814-21.817,21.814l-163.938,0.006
		c-12.03,0-21.817-9.789-21.817-21.818v-91.2v-0.001c0-1.783,0.473-3.432,1.471-5.078c0.333-0.549,0.724-1.098,1.175-1.65
		c1.426-1.743,3.589-3.695,6.706-6.043c-2.033-2.428-3.807-5.054-5.295-7.841c-4.781-8.951-6.437-19.007-4.858-28.879
		c0.334-2.09,0.804-4.173,1.43-6.234C51.112,98.94,59.06,89.254,69.907,83.462c6.651-3.552,14.137-5.43,21.646-5.43
		c17.099,0,32.711,9.342,40.743,24.379c1.23,2.303,2.263,4.71,3.086,7.188c10.192-4.4,13.895-4.946,15.812-4.946
		c0.863,0,1.699,0.101,2.484,0.3c15.838,4.071,41.292,16.888,59.836,27.527c16.43,9.425,27.969,17.124,34.295,22.881
		C253.963,160.965,254.477,164.032,254.473,166.466L254.473,166.466z"/>
	<path fill="#1976D2" d="M111.93,162.154c-14.119,7.541-30.589,6.39-43.265-1.563c-2.595,1.757-4.684,3.269-6.238,4.499
		l56.336,33.61v-0.001c-0.178-1.596-0.265-3.194-0.264-4.787c0.006-8.962,2.806-17.76,8.005-25.075
		c0.347-0.488,0.704-0.969,1.072-1.443c0.654-0.843,1.341-1.664,2.061-2.461c0.72-0.796,1.473-1.568,2.257-2.314
		c2.746-2.611,5.884-4.899,9.387-6.769c20.966-11.197,47.131-3.25,58.332,17.717c1.73,3.242,3.001,6.613,3.84,10.029l-7.986,4.907
		c-0.578-3.681-1.761-7.325-3.615-10.793c-8.91-16.688-29.74-23.015-46.429-14.103c-14.998,8.013-21.619,25.646-16.333,41.25
		c0.031,0.099,0.061,0.197,0.095,0.297l7.14,4.021l13.534,8.071l88.262-53.368c-0.346-0.287-0.719-0.587-1.113-0.899
		c-5.803-4.615-16.643-11.92-32.449-20.85c-21.467-12.132-41.92-21.529-53.592-24.637c-2.058,0.273-7.88,2.572-16.25,6.471
		c0.002,0.965-0.028,1.929-0.09,2.889c-0.117,1.8-0.346,3.588-0.684,5.353C131.576,144.559,123.865,155.78,111.93,162.154z
		 M177.524,171.709l4.896,4.442l-0.001,0.001l-6.486,7.148l-4.888-4.436l-0.008-0.008L177.524,171.709z M147.035,215.203
		l-5.906-3.326l4.852-5.344l4.896,4.441L147.035,215.203z M157.527,211.816l-1.815-1.621l-3.456-3.086l-5.443-4.855l-2.893-2.582
		l-5.444-4.855l-1.287-1.148h0l4.825-5.408l1.902,1.7l5.442,4.856l2.895,2.582l5.442,4.856l3.459,3.085l2.818,2.514L157.527,211.816
		z M167.4,205.748l-3.352-2.992l-3.459-3.084l-5.443-4.857l-2.891-2.582l-5.443-4.855l-2.047-1.826l0.58-0.649l4.246-4.757
		l0.928,0.83l1.736,1.547l5.439,4.855l2.893,2.583l5.446,4.856l3.457,3.084l4.358,3.887L167.4,205.748z M180.826,197.5l-2.883,1.771
		l-4.996-4.455l-3.456-3.086l-5.442-4.855l-2.895-2.584l-5.442-4.855l-2.819-2.518l4.824-5.408l0.928,0.83l2.51,2.239l5.441,4.856
		l2.894,2.582l5.444,4.857l3.457,3.085l5.443,4.856l0.554,0.493l0.001,0.001L180.826,197.5z"/>
	<path fill="#1976D2" d="M187.19,100.922c4.427,0.034,8.908-0.79,13.194-2.546c1.071-0.439,2.131-0.937,3.174-1.494
		c16.688-8.912,23.012-29.74,14.104-46.428c-6.13-11.472-17.889-18.046-30.062-18.139c-5.533-0.042-11.152,1.255-16.367,4.04
		c-16.688,8.913-23.014,29.737-14.105,46.427C163.255,94.253,175.016,100.829,187.19,100.922z M165.298,86.425l6.491-7.145v0
		l4.895,4.44l-6.49,7.147L165.298,86.425z M189.747,90.282l-0.929-0.826l-1.856-1.658l-5.442-4.857l-3.457-3.085L172.618,75
		l-2.896-2.582l-5.44-4.856l-1.284-1.147l4.822-5.409l1.902,1.699l5.444,4.857l2.896,2.582L183.505,75l3.457,3.085l5.44,4.857
		l2.168,1.933L189.747,90.282z M203.353,44.457l4.893,4.443l-6.492,7.148l-0.003-0.003l-4.89-4.44l6.49-7.146L203.353,44.457z
		 M183.525,44.256l0.928,0.83l2.51,2.24l5.439,4.856l2.896,2.582l5.444,4.857l3.457,3.084l5.443,4.857l0.629,0.564l-4.822,5.408
		l-1.25-1.116l-5.443-4.856l-3.458-3.085l-5.442-4.856l-2.895-2.583l-5.441-4.856l-2.824-2.517L183.525,44.256z M176.328,53.72
		l1.734,1.548l5.442,4.856l2.894,2.581l5.442,4.857l3.457,3.086l5.444,4.855l1.404,1.257l-4.821,5.406l-0.001,0l-0.928-0.826
		l-1.099-0.981l-5.442-4.856l-3.457-3.085l-5.444-4.856l-2.892-2.583l-5.444-4.855l-2.046-1.825l4.824-5.409L176.328,53.72z"/>
	<polygon fill="#1976D2" points="59.715,174.898 59.715,256.418 94.226,195.484 	"/>
	<path fill="#1976D2" d="M241.417,259.706c0.151-0.657,0.24-1.34,0.24-2.042v-84.453l-36.673,22.176L241.417,259.706z"/>
	<path fill="#1976D2" d="M196.584,200.466l-46.69,28.232l-47.237-28.183l-37.129,65.557l0,0.001c0.994,0.379,2.065,0.595,3.19,0.595
		h163.938c0.462,0,0.912-0.047,1.357-0.113l-0.001-0.002L196.584,200.466z"/>
	<path fill="#1976D2" d="M68.179,149.165c2.65,2.481,5.651,4.502,8.876,6.015c9.464,4.428,20.827,4.506,30.732-0.785
		c1.276-0.682,2.492-1.434,3.646-2.247c8.07-5.697,13.056-14.459,14.224-23.819c0.222-1.774,0.307-3.57,0.25-5.371
		c-0.058-1.802-0.258-3.608-0.607-5.403c-0.635-3.269-1.76-6.499-3.407-9.585c-8.914-16.688-29.741-23.015-46.43-14.101
		c-11.474,6.126-18.048,17.884-18.14,30.057c-0.042,5.533,1.255,11.151,4.04,16.365C63.182,143.697,65.503,146.663,68.179,149.165z
		 M80.622,141.554l-6.2,6.827l-2.042-1.856l-2.851-2.587l6.49-7.146l4.895,4.442L80.622,141.554z M98.659,142.548l-4.681,5.247
		l-0.927-0.827l-0.867-0.773l-7.715-6.884l-17.241-15.383l0,0l4.82-5.408l19.058,17.005l7.695,6.864L98.659,142.548z
		 M101.553,139.68l-0.926-0.827l-5.958-5.316l-19.866-17.726l4.828-5.408l0.926,0.829l20.863,18.616l4.958,4.424L101.553,139.68z
		 M109.679,131.046l-3.936-3.513l-22.816-20.356l4.828-5.407l0.929,0.83l23.915,21.338l1.904,1.702L109.679,131.046z
		 M101.086,109.122l6.486-7.146l4.892,4.44l0.002,0.002l-6.489,7.149l-4.894-4.442L101.086,109.122z"/>
</g>
</svg>
