<?xml version="1.0" encoding="utf-8"?>
<!-- Generator: Adobe Illustrator 16.0.0, SVG Export Plug-In . SVG Version: 6.00 Build 0)  -->
<!DOCTYPE svg PUBLIC "-//W3C//DTD SVG 1.1//EN" "http://www.w3.org/Graphics/SVG/1.1/DTD/svg11.dtd">
<svg version="1.1" id="Layer_1" xmlns="http://www.w3.org/2000/svg" xmlns:xlink="http://www.w3.org/1999/xlink" x="0px" y="0px"
	 width="300px" height="300px" viewBox="0 0 300 300" enable-background="new 0 0 300 300" xml:space="preserve">
<g>
	<polygon fill="none" points="59.715,174.898 59.715,256.418 94.226,195.484 	"/>
	<path fill="none" d="M241.417,259.706c0.151-0.657,0.24-1.34,0.24-2.042v-84.453l-36.673,22.176L241.417,259.706z"/>
	<path fill="none" d="M149.894,228.697l-47.237-28.182l-37.129,65.557c0.994,0.379,2.065,0.595,3.19,0.595h163.938
		c0.462,0,0.913-0.047,1.358-0.114l-37.43-66.088L149.894,228.697z"/>
	<path fill="none" d="M141.281,155.85c20.966-11.197,47.131-3.25,58.332,17.717c1.73,3.242,3.001,6.613,3.84,10.029l-7.986,4.907
		c-0.578-3.681-1.761-7.325-3.615-10.793c-8.91-16.688-29.74-23.015-46.429-14.103c-14.998,8.013-21.619,25.646-16.333,41.25
		c0.031,0.099,0.061,0.197,0.095,0.297l7.14,4.021l13.534,8.071l88.262-53.368c-0.346-0.287-0.719-0.587-1.113-0.899
		c-5.804-4.615-16.644-11.92-32.449-20.85c-21.467-12.132-41.92-21.529-53.592-24.637c-2.058,0.273-7.88,2.572-16.25,6.471
		c0.035,15.446-8.238,30.423-22.787,38.191c-14.119,7.541-30.589,6.39-43.265-1.563c-2.595,1.757-4.684,3.269-6.238,4.499
		l56.336,33.609C116.866,181.674,125.271,164.396,141.281,155.85z M177.532,171.718l4.896,4.442l-6.489,7.148l-4.895-4.442
		L177.532,171.718z M147.035,215.203l-5.906-3.326l4.852-5.344l4.896,4.441L147.035,215.203z M157.527,211.816l-1.815-1.621
		l-3.456-3.086l-5.443-4.855l-2.893-2.582l-5.444-4.855l-1.287-1.148l4.825-5.408l1.902,1.7l5.442,4.856l2.895,2.582l5.442,4.856
		l3.459,3.085l2.818,2.514L157.527,211.816z M167.4,205.748l-3.352-2.992l-3.459-3.084l-5.443-4.857l-2.891-2.582l-5.443-4.855
		l-2.047-1.826l4.826-5.406l0.928,0.83l1.736,1.547l5.439,4.855l2.893,2.583l5.446,4.856l3.457,3.084l4.358,3.887L167.4,205.748z
		 M180.826,197.5l-2.883,1.771l-4.996-4.455l-3.456-3.086l-5.442-4.855l-2.895-2.584l-5.442-4.855l-2.819-2.518l4.824-5.408
		l0.928,0.83l2.51,2.239l5.441,4.856l2.894,2.582l5.444,4.857l3.457,3.085l5.443,4.856l0.555,0.494L180.826,197.5z"/>
	<path fill="none" d="M77.055,155.18c9.464,4.428,20.827,4.506,30.732-0.785c10.213-5.454,16.535-15.369,17.869-26.066
		c0.444-3.549,0.341-7.185-0.357-10.773c-0.635-3.269-1.76-6.499-3.407-9.585c-8.914-16.689-29.741-23.015-46.43-14.101
		c-16.688,8.911-23.012,29.735-14.1,46.422c1.82,3.407,4.141,6.373,6.817,8.875C70.829,151.646,73.83,153.668,77.055,155.18z
		 M80.622,141.554l-6.2,6.827l-2.042-1.856l-2.851-2.587l6.49-7.146l4.895,4.442L80.622,141.554z M107.572,101.972l4.894,4.442
		l-6.488,7.148l-4.894-4.442L107.572,101.972z M87.755,101.77l0.929,0.83l23.915,21.338l1.904,1.702l-4.824,5.406l-3.936-3.513
		l-22.816-20.356L87.755,101.77z M79.631,110.403l0.926,0.829l20.863,18.616l4.958,4.424l-4.825,5.408l-0.926-0.827l-5.958-5.316
		l-19.866-17.726L79.631,110.403z M72.049,118.52l19.058,17.005l7.695,6.864l-0.143,0.159l-4.681,5.247l-0.927-0.827l-0.867-0.773
		l-7.715-6.884l-17.241-15.383L72.049,118.52z"/>
	<path fill="none" d="M203.559,96.882c16.688-8.912,23.012-29.74,14.104-46.428c-8.916-16.686-29.742-23.011-46.43-14.099
		c-16.688,8.913-23.014,29.737-14.104,46.427C166.041,99.468,186.87,105.795,203.559,96.882z M170.193,90.867l-4.896-4.442
		l6.491-7.145l4.895,4.44L170.193,90.867z M203.348,44.457l4.893,4.443l-6.492,7.147l-4.893-4.443L203.348,44.457z M183.525,44.256
		l0.928,0.83l2.51,2.24l5.439,4.856l2.896,2.582l5.444,4.857l3.457,3.084l5.443,4.857l0.629,0.564l-4.822,5.408l-1.25-1.116
		l-5.443-4.856l-3.458-3.085l-5.442-4.856l-2.895-2.583l-5.441-4.856l-2.824-2.517L183.525,44.256z M175.396,52.89l0.932,0.83
		l1.734,1.548l5.442,4.856l2.894,2.581l5.442,4.857l3.457,3.086l5.444,4.855l1.404,1.257l-4.821,5.406l-0.929-0.826l-1.099-0.981
		l-5.442-4.856l-3.457-3.085l-5.444-4.856l-2.892-2.583l-5.444-4.855l-2.046-1.825L175.396,52.89z M167.82,61.006l1.902,1.699
		l5.444,4.857l2.896,2.582L183.505,75l3.457,3.085l5.44,4.857l2.168,1.933l-4.823,5.407l-0.929-0.826l-1.856-1.658l-5.442-4.857
		l-3.457-3.085L172.618,75l-2.896-2.582l-5.44-4.856l-1.284-1.147L167.82,61.006z"/>
	<path fill="none" d="M269.921,15.586H30.08c-7.992,0-14.494,6.502-14.494,14.494v239.84c0,7.992,6.502,14.494,14.494,14.494
		h239.841c7.991,0,14.492-6.502,14.492-14.494V30.08C284.413,22.088,277.912,15.586,269.921,15.586z M143.299,53.225
		c3.583-11.796,11.53-21.482,22.377-27.275c6.652-3.553,14.139-5.431,21.648-5.431c17.098,0,32.709,9.342,40.742,24.379
		c5.791,10.847,7.009,23.317,3.426,35.113c-3.583,11.797-11.531,21.484-22.379,27.277c-6.652,3.552-14.137,5.43-21.647,5.43
		c-17.101,0-32.711-9.342-40.741-24.38C140.933,77.491,139.716,65.021,143.299,53.225z M254.473,257.663
		c0,12.028-9.789,21.815-21.818,21.815l-163.938,0.006c-12.03,0-21.817-9.789-21.817-21.819v-91.201
		c0-2.379,0.841-4.517,2.646-6.729c1.426-1.743,3.589-3.695,6.706-6.043c-2.033-2.428-3.807-5.054-5.295-7.841
		c-5.793-10.846-7.011-23.316-3.428-35.113c3.583-11.797,11.531-21.483,22.378-27.275c6.652-3.552,14.138-5.43,21.646-5.43
		c17.099,0,32.711,9.342,40.743,24.379c1.23,2.303,2.263,4.71,3.086,7.188c10.191-4.4,13.895-4.946,15.812-4.946
		c0.863,0,1.699,0.101,2.484,0.3c15.838,4.071,41.292,16.888,59.836,27.527c16.43,9.425,27.969,17.124,34.295,22.881
		c6.154,5.604,6.668,8.671,6.664,11.104V257.663z"/>
	<g>
		<polygon fill="#1976D2" points="178.391,189.96 174.934,186.875 169.489,182.018 166.596,179.436 161.154,174.579 158.645,172.34
			157.717,171.51 152.893,176.918 155.712,179.436 161.154,184.291 164.049,186.875 169.491,191.73 172.947,194.816
			177.943,199.271 180.826,197.5 184.389,195.311 183.834,194.816 		"/>
		<polygon fill="#1976D2" points="166.034,194.816 160.588,189.96 157.695,187.377 152.256,182.521 150.52,180.975 149.592,180.145
			144.766,185.551 146.813,187.377 152.256,192.232 155.146,194.814 160.59,199.672 164.049,202.756 167.4,205.748 173.85,201.787
			169.491,197.9 		"/>
		<polygon fill="#1976D2" points="157.695,202.255 152.253,197.398 149.358,194.816 143.916,189.96 142.014,188.26 137.189,193.668
			138.476,194.816 143.92,199.672 146.813,202.254 152.256,207.109 155.712,210.195 157.527,211.816 163.973,207.854
			161.154,205.34 		"/>

			<rect x="173.431" y="172.686" transform="matrix(0.7405 0.672 -0.672 0.7405 165.1439 -72.7109)" fill="#1976D2" width="6.611" height="9.654"/>
		<polygon fill="#1976D2" points="141.129,211.877 147.035,215.203 150.877,210.975 145.981,206.533 		"/>
		<polygon fill="#1976D2" points="186.961,57.038 189.855,59.621 195.298,64.477 198.756,67.562 204.199,72.418 205.449,73.534
			210.271,68.126 209.643,67.562 204.199,62.705 200.742,59.621 195.298,54.764 192.402,52.182 186.963,47.326 184.453,45.086
			183.525,44.256 178.695,49.665 181.52,52.182 		"/>
		<polygon fill="#1976D2" points="178.062,64.979 180.954,67.562 186.398,72.418 189.855,75.503 195.298,80.359 196.396,81.34
			197.325,82.166 202.146,76.76 200.742,75.503 195.298,70.648 191.841,67.562 186.398,62.705 183.505,60.124 178.062,55.268
			176.328,53.72 175.396,52.89 170.572,58.299 172.618,60.124 		"/>
		<polygon fill="#1976D2" points="169.723,72.418 172.618,75 178.062,79.856 181.52,82.941 186.962,87.798 188.818,89.456
			189.747,90.282 194.57,84.875 192.402,82.942 186.962,78.085 183.505,75 178.062,70.144 175.167,67.562 169.723,62.705
			167.82,61.006 162.998,66.415 164.282,67.562 		"/>

			<rect x="199.243" y="45.425" transform="matrix(0.7403 0.6723 -0.6723 0.7403 86.3919 -123.1221)" fill="#1976D2" width="6.609" height="9.656"/>
		<polygon fill="#1976D2" points="165.298,86.425 170.193,90.867 176.684,83.72 171.789,79.28 		"/>
		<polygon fill="#1976D2" points="88.684,102.6 87.755,101.77 82.927,107.177 105.743,127.533 109.679,131.046 114.503,125.64
			112.599,123.938 		"/>
		<polygon fill="#1976D2" points="80.557,111.232 79.631,110.403 74.803,115.811 94.669,133.537 100.627,138.853 101.553,139.68
			106.378,134.272 101.42,129.848 		"/>
		<polygon fill="#1976D2" points="72.049,118.52 67.228,123.928 84.469,139.311 92.184,146.195 93.051,146.968 93.978,147.795
			98.659,142.548 98.802,142.389 91.107,135.525 		"/>

			<rect x="103.471" y="102.94" transform="matrix(0.7405 0.6721 -0.6721 0.7405 100.1373 -43.7934)" fill="#1976D2" width="6.609" height="9.654"/>
		<polygon fill="#1976D2" points="69.529,143.938 72.38,146.525 74.422,148.381 80.622,141.554 80.914,141.234 76.019,136.792 		"/>
		<path fill="#1976D2" d="M187.466,112.718c7.511,0,14.995-1.878,21.647-5.43c10.848-5.793,18.796-15.48,22.379-27.277
			c3.583-11.796,2.365-24.266-3.426-35.113c-8.033-15.037-23.645-24.379-40.742-24.379c-7.51,0-14.996,1.878-21.648,5.431
			c-10.847,5.793-18.794,15.479-22.377,27.275s-2.366,24.266,3.426,35.113C154.755,103.376,170.365,112.718,187.466,112.718z
			 M171.232,36.355c16.688-8.912,37.514-2.587,46.43,14.099c8.908,16.688,2.584,37.516-14.104,46.428
			c-16.688,8.913-37.518,2.586-46.431-14.1C148.219,66.092,154.544,45.268,171.232,36.355z"/>
		<path fill="#1976D2" d="M247.809,155.361c-6.326-5.757-17.865-13.456-34.295-22.881c-18.544-10.639-43.998-23.456-59.836-27.527
			c-0.785-0.199-1.621-0.3-2.484-0.3c-1.917,0-5.62,0.546-15.812,4.946c-0.823-2.478-1.856-4.885-3.086-7.188
			c-8.032-15.037-23.644-24.379-40.743-24.379c-7.509,0-14.995,1.878-21.646,5.43c-10.847,5.792-18.795,15.478-22.378,27.275
			c-3.583,11.797-2.365,24.267,3.428,35.113c1.488,2.787,3.262,5.414,5.295,7.841c-3.117,2.348-5.28,4.3-6.706,6.043
			c-1.805,2.213-2.646,4.351-2.646,6.729v91.201c0,12.03,9.787,21.819,21.817,21.819l163.938-0.006
			c12.029,0,21.818-9.787,21.818-21.815v-91.197C254.477,164.032,253.963,160.965,247.809,155.361z M150.967,117.492
			c11.672,3.108,32.125,12.505,53.592,24.637c15.806,8.93,26.646,16.234,32.449,20.85c0.395,0.312,0.768,0.612,1.113,0.899
			l-88.262,53.368l-13.534-8.071l-7.14-4.021c-0.034-0.1-0.064-0.198-0.095-0.297c-5.286-15.604,1.335-33.237,16.333-41.25
			c16.688-8.912,37.519-2.586,46.429,14.103c1.854,3.468,3.037,7.112,3.615,10.793l7.986-4.907
			c-0.839-3.416-2.109-6.787-3.84-10.029c-11.201-20.967-37.366-28.914-58.332-17.717c-16.01,8.547-24.415,25.824-22.518,42.85
			L62.427,165.09c1.554-1.23,3.643-2.742,6.238-4.499c12.676,7.953,29.146,9.104,43.265,1.563
			c14.549-7.769,22.822-22.745,22.787-38.191C143.087,120.064,148.909,117.765,150.967,117.492z M241.657,173.211v84.453
			c0,0.702-0.089,1.385-0.24,2.042l-36.433-64.319L241.657,173.211z M125.656,128.328c-1.334,10.698-7.656,20.613-17.869,26.066
			c-9.905,5.291-21.268,5.213-30.732,0.785c-3.225-1.512-6.226-3.533-8.876-6.014c-2.676-2.502-4.997-5.468-6.817-8.875
			c-8.912-16.687-2.588-37.511,14.1-46.422c16.689-8.914,37.516-2.588,46.43,14.101c1.647,3.086,2.772,6.316,3.407,9.585
			C125.997,121.143,126.1,124.779,125.656,128.328z M59.715,174.898l34.511,20.586l-34.511,60.934V174.898z M102.657,200.516
			l47.237,28.182l46.69-28.232l37.43,66.088c-0.445,0.067-0.896,0.114-1.358,0.114H68.718c-1.125,0-2.196-0.216-3.19-0.595
			L102.657,200.516z"/>
		<path fill="#1976D2" d="M269.921,0H30.08C13.493,0,0,13.494,0,30.08v239.84C0,286.506,13.493,300,30.08,300h239.841
			C286.506,300,300,286.506,300,269.92V30.08C300,13.494,286.506,0,269.921,0z M284.413,269.92c0,7.992-6.501,14.494-14.492,14.494
			H30.08c-7.992,0-14.494-6.502-14.494-14.494V30.08c0-7.992,6.502-14.494,14.494-14.494h239.841
			c7.991,0,14.492,6.502,14.492,14.494V269.92z"/>
	</g>
</g>
</svg>
