<?xml version="1.0" encoding="utf-8"?>
<!-- Generator: Adobe Illustrator 16.0.0, SVG Export Plug-In . SVG Version: 6.00 Build 0)  -->
<!DOCTYPE svg PUBLIC "-//W3C//DTD SVG 1.1//EN" "http://www.w3.org/Graphics/SVG/1.1/DTD/svg11.dtd">
<svg version="1.1" id="Layer_1" xmlns="http://www.w3.org/2000/svg" xmlns:xlink="http://www.w3.org/1999/xlink" x="0px" y="0px"
	 width="300px" height="300px" viewBox="0 0 300 300" enable-background="new 0 0 300 300" xml:space="preserve">
<g>
	<g>
		<path fill="#1976D2" d="M269.918,0H30.08C13.494,0,0,13.494,0,30.08v239.84C0,286.506,13.494,300,30.08,300h239.838
			C286.505,300,300,286.506,300,269.92V30.08C300,13.494,286.505,0,269.918,0z M127.255,120.198
			c2.258-0.716,4.562-1.326,6.906-1.829c5.109-1.1,10.404-1.692,15.839-1.692c5.561,0,10.973,0.625,16.191,1.774
			c2.345,0.516,4.646,1.136,6.904,1.866c30.235,9.773,52.172,38.181,52.172,71.626c0,41.502-33.768,75.266-75.27,75.266
			c-20.072,0.001-38.964-7.838-53.196-22.07c-14.232-14.23-22.069-33.123-22.069-53.195
			C74.734,158.367,96.837,129.862,127.255,120.198z M166.189,78.921v33.082c-5.235-1.058-10.647-1.619-16.19-1.619
			c-5.421,0-10.713,0.543-15.839,1.556V78.921h-15.986l31.454-43.346l32.531,43.346H166.189z"/>
		<path fill="#1976D2" d="M149.999,257.502c36.149,0,65.56-29.41,65.56-65.561c0-28.09-17.764-52.103-42.644-61.416
			c-2.192-0.821-4.435-1.531-6.729-2.115c-5.18-1.322-10.603-2.028-16.188-2.028c-5.442,0-10.728,0.679-15.785,1.934
			c-2.31,0.573-4.573,1.259-6.779,2.068c-25.066,9.218-42.994,33.333-42.994,61.559C84.44,228.091,113.849,257.502,149.999,257.502z
			 M149.999,132.677c32.681,0,59.267,26.585,59.267,59.265c0,32.681-26.586,59.269-59.267,59.269
			c-32.68-0.002-59.266-26.588-59.266-59.267C90.733,159.262,117.319,132.677,149.999,132.677z"/>
		<polygon fill="#1976D2" points="186.384,171.73 125.21,156.889 123.008,156.352 119.899,169.164 183.275,184.541 		"/>
		<polygon fill="#1976D2" points="177.639,205.355 180.746,192.546 119.57,177.705 117.37,177.166 114.261,189.979 175.441,204.824 
					"/>
		<polygon fill="#1976D2" points="172.436,224.873 175.542,212.062 112.165,196.686 109.06,209.497 170.234,224.34 		"/>
		<polygon fill="#1976D2" points="166.637,142.611 154.979,139.68 150.689,156.709 162.35,159.643 		"/>
		<polygon fill="#1976D2" points="129.897,239.632 141.558,242.566 145.849,225.539 134.189,222.604 		"/>
	</g>
</g>
</svg>
