<?xml version="1.0" encoding="utf-8"?>
<!-- Generator: Adobe Illustrator 16.0.0, SVG Export Plug-In . SVG Version: 6.00 Build 0)  -->
<!DOCTYPE svg PUBLIC "-//W3C//DTD SVG 1.1//EN" "http://www.w3.org/Graphics/SVG/1.1/DTD/svg11.dtd">
<svg version="1.1" id="Layer_1" xmlns="http://www.w3.org/2000/svg" xmlns:xlink="http://www.w3.org/1999/xlink" x="0px" y="0px"
	 width="300px" height="300px" viewBox="0 0 300 300" enable-background="new 0 0 300 300" xml:space="preserve">
<g>
	<path fill="none" d="M166.189,113.575V80.494h15.971l-32.533-43.345l-31.455,43.345h15.989v33.02
		c5.125-1.015,10.418-1.558,15.838-1.558C155.542,111.956,160.954,112.516,166.189,113.575z"/>
	<path fill="none" d="M149.999,252.779c32.679,0,59.267-26.586,59.267-59.264c0-32.679-26.588-59.266-59.267-59.266
		c-32.68,0-59.266,26.587-59.266,59.266C90.733,226.193,117.319,252.779,149.999,252.779z M141.557,244.139l-11.659-2.936
		l4.291-17.027l11.661,2.936L141.557,244.139z M154.979,141.25l11.658,2.934l-4.289,17.031l-11.658-2.934L154.979,141.25z
		 M123.008,157.924l2.202,0.535l61.174,14.844l-3.108,12.812L119.9,170.736L123.008,157.924z M117.37,178.74l2.199,0.535
		l61.177,14.842l-3.105,12.811l-2.199-0.529l-61.182-14.846L117.37,178.74z M112.164,198.258l63.378,15.377l-3.106,12.809
		l-2.199-0.53l-61.177-14.845L112.164,198.258z"/>
	<path fill="none" d="M269.92,12.587H30.08c-9.646,0-17.494,7.846-17.494,17.493v239.838c0,9.648,7.848,17.492,17.494,17.492h239.84
		c9.646,0,17.493-7.848,17.493-17.492V30.08C287.413,20.433,279.566,12.587,269.92,12.587z M149.999,275.074
		c-21.754,0-42.226-8.49-57.646-23.914c-15.422-15.42-23.914-35.893-23.914-57.645c0-37.078,24.879-68.436,58.814-78.31V88.725
		h-4.568c-0.002,0-5.473,0.01-5.797,0.01c-1.916,0-6.474-0.319-7.432-3.277c-1.355-4.2,2.811-9.434,2.987-9.655l32.201-44.371
		c0.12-0.152,2.712-3.361,4.728-3.361c2.835,0,5.069,3.139,5.165,3.272l33.307,44.379c0.172,0.236,4.131,5.723,2.626,9.685
		c-1.112,2.929-4.556,3.364-6.51,3.364c-0.565,0-0.954-0.036-1.037-0.045h-9.829v26.582c33.758,9.987,58.465,41.258,58.465,78.209
		C231.561,238.486,194.973,275.074,149.999,275.074z"/>
	<g>
		<path fill="#1976D2" d="M173.096,115.306V88.725h9.828c0.083,0.009,0.471,0.045,1.037,0.045c1.954,0,5.396-0.435,6.51-3.364
			c1.504-3.962-2.455-9.448-2.626-9.685l-33.307-44.379c-0.095-0.133-2.33-3.272-5.165-3.272c-2.016,0-4.607,3.209-4.728,3.361
			l-32.201,44.371c-0.177,0.222-4.343,5.455-2.987,9.655c0.958,2.958,5.516,3.277,7.432,3.277c0.324,0,5.795-0.01,5.797-0.01h4.568
			v26.482c-33.936,9.874-58.814,41.231-58.814,78.31c0,21.752,8.492,42.225,23.914,57.645c15.42,15.424,35.892,23.914,57.646,23.914
			c44.973,0,81.561-36.588,81.561-81.559C231.561,156.564,206.852,125.293,173.096,115.306z M149.999,268.781
			c-20.072,0-38.965-7.838-53.197-22.07c-14.232-14.232-22.069-33.123-22.069-53.195c0-33.576,22.104-62.082,52.521-71.746
			c2.258-0.719,4.562-1.325,6.907-1.83c5.108-1.098,10.403-1.69,15.838-1.69c5.558,0,10.972,0.622,16.19,1.771
			c2.345,0.516,4.648,1.138,6.904,1.87c30.236,9.772,52.172,38.177,52.172,71.625C225.266,235.016,191.501,268.781,149.999,268.781z
			 M118.172,80.494l31.455-43.345l32.533,43.345h-15.971v33.081c-5.235-1.059-10.647-1.619-16.19-1.619
			c-5.42,0-10.713,0.543-15.838,1.558v-33.02H118.172z"/>
		<path fill="#1976D2" d="M172.912,132.099c-2.189-0.821-4.432-1.528-6.727-2.114c-5.181-1.321-10.603-2.027-16.188-2.027
			c-5.442,0-10.729,0.678-15.785,1.934c-2.309,0.574-4.573,1.259-6.78,2.068c-25.064,9.219-42.993,33.332-42.993,61.556
			c0,36.148,29.408,65.558,65.559,65.558c36.149,0,65.56-29.408,65.56-65.558C215.559,165.424,197.795,141.413,172.912,132.099z
			 M149.999,252.779c-32.68,0-59.266-26.586-59.266-59.264c0-32.679,26.586-59.266,59.266-59.266
			c32.679,0,59.267,26.587,59.267,59.266C209.266,226.193,182.678,252.779,149.999,252.779z"/>
		<polygon fill="#1976D2" points="123.008,157.924 119.899,170.736 183.275,186.113 186.384,173.303 125.21,158.459 		"/>
		<polygon fill="#1976D2" points="117.37,178.74 114.26,191.553 175.439,206.398 177.641,206.928 180.746,194.117 119.569,179.275 
					"/>
		<polygon fill="#1976D2" points="109.059,211.068 170.234,225.912 172.436,226.443 175.542,213.635 112.164,198.258 		"/>
		
			<rect x="152.661" y="142.451" transform="matrix(-0.9698 -0.244 0.244 -0.9698 275.6466 336.6127)" fill="#1976D2" width="12.023" height="17.564"/>
		<polygon fill="#1976D2" points="129.897,241.203 141.557,244.139 145.85,227.111 134.188,224.176 		"/>
	</g>
</g>
<g>
	<path fill="#1976D2" d="M269.921,0H30.08C13.493,0,0,13.494,0,30.08v239.84C0,286.506,13.493,300,30.08,300h239.841
		C286.506,300,300,286.506,300,269.92V30.08C300,13.494,286.506,0,269.921,0z M269.921,284.414H30.08
		c-7.992,0-14.494-6.502-14.494-14.494V30.08c0-7.992,6.502-14.494,14.494-14.494h239.841c7.991,0,14.492,6.502,14.492,14.494
		v239.84C284.413,277.912,277.912,284.414,269.921,284.414z"/>
</g>
</svg>
