<?xml version="1.0" encoding="utf-8"?>
<!-- Generator: Adobe Illustrator 16.0.0, SVG Export Plug-In . SVG Version: 6.00 Build 0)  -->
<!DOCTYPE svg PUBLIC "-//W3C//DTD SVG 1.1//EN" "http://www.w3.org/Graphics/SVG/1.1/DTD/svg11.dtd">
<svg version="1.1" id="Layer_1" xmlns="http://www.w3.org/2000/svg" xmlns:xlink="http://www.w3.org/1999/xlink" x="0px" y="0px"
	 width="300px" height="300px" viewBox="0 0 300 300" enable-background="new 0 0 300 300" xml:space="preserve">
<g>
	<g>
		<polygon fill="#1976D2" points="178.391,189.96 174.934,186.875 169.489,182.018 166.596,179.436 161.154,174.579 158.645,172.34 
			157.717,171.51 152.893,176.918 155.712,179.436 161.154,184.291 164.049,186.875 169.491,191.73 172.947,194.816 
			177.943,199.271 180.826,197.5 184.389,195.311 183.834,194.816 		"/>
		<polygon fill="#1976D2" points="166.034,194.816 160.588,189.96 157.695,187.377 152.256,182.521 150.52,180.975 149.592,180.145 
			144.766,185.551 146.813,187.377 152.256,192.232 155.146,194.814 160.59,199.672 164.049,202.756 167.4,205.748 173.85,201.787 
			169.491,197.9 		"/>
		<polygon fill="#1976D2" points="157.695,202.255 152.253,197.398 149.358,194.816 143.916,189.96 142.014,188.26 137.189,193.668 
			138.476,194.816 143.92,199.672 146.813,202.254 152.256,207.109 155.712,210.195 157.527,211.816 163.973,207.854 
			161.154,205.34 		"/>
		
			<rect x="173.431" y="172.679" transform="matrix(0.7405 0.6721 -0.6721 0.7405 165.1643 -72.7142)" fill="#1976D2" width="6.61" height="9.654"/>
		<polygon fill="#1976D2" points="141.129,211.877 147.035,215.203 150.877,210.975 145.981,206.533 		"/>
		<polygon fill="#1976D2" points="204.199,62.705 200.742,59.621 195.298,54.764 192.402,52.182 186.963,47.326 184.453,45.086 
			183.525,44.256 178.695,49.665 181.52,52.182 186.961,57.038 189.855,59.621 195.298,64.477 198.756,67.562 204.199,72.418 
			205.449,73.534 210.271,68.126 209.643,67.562 		"/>
		<polygon fill="#1976D2" points="195.298,70.648 191.841,67.562 186.398,62.705 183.505,60.124 178.062,55.268 176.328,53.72 
			175.396,52.89 170.572,58.299 172.618,60.124 178.062,64.979 180.954,67.562 186.398,72.418 189.855,75.503 195.298,80.359 
			196.396,81.34 197.325,82.166 202.146,76.76 200.742,75.503 		"/>
		<polygon fill="#1976D2" points="186.962,78.085 183.505,75 178.062,70.144 175.167,67.562 169.723,62.705 167.82,61.006 
			162.998,66.415 164.282,67.562 169.723,72.418 172.618,75 178.062,79.856 181.52,82.941 186.962,87.798 188.818,89.456 
			189.747,90.282 194.57,84.875 192.402,82.942 		"/>
		
			<rect x="199.238" y="45.425" transform="matrix(0.7403 0.6723 -0.6723 0.7403 86.3904 -123.1189)" fill="#1976D2" width="6.609" height="9.655"/>
		<polygon fill="#1976D2" points="165.298,86.425 170.193,90.867 176.684,83.72 171.789,79.28 		"/>
		<polygon fill="#1976D2" points="88.684,102.6 87.755,101.77 82.927,107.177 105.743,127.533 109.679,131.046 114.503,125.64 
			112.599,123.938 		"/>
		<polygon fill="#1976D2" points="80.557,111.232 79.631,110.403 74.803,115.811 94.669,133.537 100.627,138.853 101.553,139.68 
			106.378,134.272 101.42,129.848 		"/>
		<polygon fill="#1976D2" points="72.049,118.52 67.228,123.928 84.469,139.311 92.184,146.195 93.051,146.968 93.978,147.795 
			98.659,142.548 98.802,142.389 91.107,135.525 		"/>
		
			<rect x="103.472" y="102.936" transform="matrix(0.7405 0.6721 -0.6721 0.7405 100.1346 -43.7956)" fill="#1976D2" width="6.609" height="9.654"/>
		<polygon fill="#1976D2" points="69.529,143.938 72.38,146.525 74.422,148.381 80.622,141.554 80.914,141.234 76.019,136.792 		"/>
		<path fill="#1976D2" d="M269.921,0H30.08C13.493,0,0,13.494,0,30.08v239.84C0,286.506,13.493,300,30.08,300h239.841
			C286.506,300,300,286.506,300,269.92V30.08C300,13.494,286.506,0,269.921,0z M199.613,173.566
			c-11.201-20.967-37.366-28.914-58.332-17.717c-16.01,8.547-24.415,25.824-22.518,42.849L62.427,165.09
			c1.554-1.23,3.643-2.742,6.238-4.499c12.676,7.953,29.146,9.104,43.265,1.563c14.549-7.769,22.822-22.745,22.787-38.191
			c8.37-3.899,14.192-6.198,16.25-6.471c11.672,3.108,32.125,12.505,53.592,24.637c15.805,8.93,26.645,16.234,32.449,20.85
			c0.395,0.312,0.768,0.612,1.113,0.899l-88.262,53.368l-13.534-8.071l-7.14-4.021c-0.034-0.1-0.064-0.198-0.095-0.297
			c-5.286-15.604,1.335-33.237,16.333-41.25c16.688-8.912,37.519-2.586,46.429,14.103c1.854,3.468,3.037,7.112,3.615,10.793
			l7.986-4.907C202.614,180.18,201.344,176.809,199.613,173.566z M125.656,128.328c-1.334,10.698-7.656,20.613-17.869,26.066
			c-9.905,5.291-21.268,5.213-30.732,0.785c-3.225-1.511-6.226-3.533-8.876-6.013c-2.676-2.502-4.997-5.468-6.817-8.875
			c-8.912-16.688-2.588-37.512,14.1-46.423c16.689-8.914,37.516-2.588,46.43,14.101c1.647,3.086,2.772,6.316,3.407,9.585
			C125.997,121.143,126.1,124.779,125.656,128.328z M59.715,174.898l34.511,20.586l-34.511,60.934V174.898z M102.657,200.516
			l47.237,28.182l46.69-28.232l37.43,66.088c-0.445,0.067-0.896,0.114-1.358,0.114H68.718c-1.125,0-2.196-0.216-3.19-0.595
			L102.657,200.516z M204.984,195.387l36.673-22.176v84.453c0,0.702-0.089,1.385-0.24,2.042L204.984,195.387z M203.559,96.882
			c-16.688,8.913-37.517,2.586-46.43-14.1c-8.91-16.69-2.585-37.514,14.104-46.427c16.688-8.912,37.514-2.587,46.43,14.099
			C226.57,67.142,220.246,87.97,203.559,96.882z"/>
	</g>
</g>
</svg>
