<?xml version="1.0" encoding="utf-8"?>
<!-- Generator: Adobe Illustrator 16.0.0, SVG Export Plug-In . SVG Version: 6.00 Build 0)  -->
<!DOCTYPE svg PUBLIC "-//W3C//DTD SVG 1.1//EN" "http://www.w3.org/Graphics/SVG/1.1/DTD/svg11.dtd">
<svg version="1.1" id="Layer_1" xmlns="http://www.w3.org/2000/svg" xmlns:xlink="http://www.w3.org/1999/xlink" x="0px" y="0px"
	 width="300px" height="300px" viewBox="0 0 300 300" enable-background="new 0 0 300 300" xml:space="preserve">
<g>
	<path fill="#1976D2" d="M269.92,0H30.08C13.492,0,0,13.494,0,30.081v239.838C0,286.506,13.492,300,30.08,300h239.84
		c16.588,0,30.08-13.494,30.08-30.081V30.081C300,13.494,286.508,0,269.92,0z M204.15,274.307c-1.246,0-2.518-0.031-3.777-0.096
		c-0.227-0.012-0.451-0.029-0.672-0.049l-0.291-0.024c-0.922-0.058-1.854-0.12-2.773-0.213c-0.25-0.026-0.502-0.06-0.752-0.095
		l-0.623-0.076c-0.773-0.092-1.545-0.184-2.309-0.301c-0.23-0.035-0.455-0.077-0.68-0.119l-0.49-0.088
		c-0.822-0.139-1.646-0.277-2.461-0.445c-0.201-0.041-0.402-0.09-0.602-0.138l-0.256-0.062c-0.904-0.197-1.812-0.397-2.709-0.631
		c-0.168-0.043-0.342-0.094-0.518-0.146l-0.188-0.055c-0.938-0.253-1.871-0.512-2.793-0.799c-0.145-0.045-0.281-0.093-0.418-0.141
		l-0.115-0.041c-0.98-0.314-1.947-0.638-2.898-0.988c-0.115-0.043-0.229-0.088-0.344-0.135c-1.189-0.447-2.131-0.822-3.01-1.198
		c-0.078-0.032-0.178-0.077-0.275-0.123c-1.096-0.474-2.07-0.917-2.988-1.362c-0.084-0.04-0.168-0.084-0.252-0.129
		c-1.006-0.492-1.984-0.996-2.932-1.514l-0.174-0.1c-0.955-0.523-1.961-1.105-2.912-1.689l-0.15-0.096
		c-0.908-0.557-1.891-1.19-2.836-1.834l-0.135-0.092c-0.959-0.658-1.873-1.312-2.754-1.979l-0.098-0.074
		c-0.869-0.656-1.789-1.385-2.678-2.123l-0.1-0.087c-0.865-0.72-1.707-1.456-2.508-2.187c-0.508,0.271-1.023,0.541-1.541,0.805
		c-11.307,5.743-23.703,8.656-36.848,8.656c-19.266,0-39.482-6.451-56.932-18.168c-10.221-6.865-18.852-15.016-25.652-24.229
		l-0.305-0.412l-0.139-0.312c-0.422-0.559-0.842-1.116-1.262-1.678l-0.119-0.163c-10.545-15.405-12.326-28.468-4.887-35.835
		c0.822-0.814,1.008-0.998,1.299-1.217c0.098-0.087,0.262-0.236,0.553-0.506c3.316-3.08,7.617-4.777,12.104-4.777
		c4.33,0,8.537,1.533,11.844,4.312c12.42,10.445,23.92,15.742,34.178,15.742c6.615,0,12.959-2.125,19.971-6.687
		c12.572-8.181,17.227-27.065,18.92-41.468c0.652-5.545,0.98-11.396,0.982-17.446l-18.004,0.281
		c-0.941,0.015-1.92,0.074-2.914,0.134c-1.328,0.077-2.701,0.16-4.113,0.16c-3.998,0-9.75-0.621-13.531-5.987
		c-6.85-9.722-0.088-17.286,4.387-22.291c0.637-0.712,1.273-1.423,1.875-2.138L153.4,31.972l0.225-0.205
		c0.639-0.587,6.445-5.747,13.244-6.06c0.199-0.009,0.4-0.014,0.602-0.014c6.762,0,12.523,5.248,13.158,5.847l0.291,0.301
		l62.307,70.178c6.068,6.833,7.938,14.342,5.125,20.598c-2.678,5.964-9.275,9.613-17.754,9.872c0.17,0.066,0.338,0.133,0.506,0.2
		l0.533,0.21c0.898,0.364,1.779,0.745,2.654,1.14l0.588,0.268c0.848,0.392,1.686,0.803,2.518,1.227l0.639,0.329
		c0.805,0.42,1.604,0.858,2.395,1.31l0.676,0.389c0.762,0.446,1.518,0.909,2.266,1.384l0.721,0.463
		c0.715,0.465,1.432,0.95,2.139,1.447c0.25,0.175,0.496,0.35,0.738,0.525c0.684,0.492,1.357,0.994,2.02,1.508
		c0.266,0.206,0.52,0.404,0.771,0.605c0.639,0.508,1.271,1.029,1.896,1.56c0.264,0.226,0.525,0.454,0.787,0.683
		c0.6,0.525,1.191,1.059,1.775,1.604c0.254,0.236,0.506,0.479,0.758,0.722c0.602,0.579,1.154,1.125,1.697,1.681
		c0.236,0.242,0.463,0.484,0.691,0.727l0.113,0.118c0.521,0.553,1.035,1.108,1.537,1.673c0.227,0.254,0.447,0.512,0.668,0.768
		l0.139,0.163c0.482,0.562,0.957,1.124,1.42,1.698c0.244,0.301,0.477,0.6,0.713,0.902l0.094,0.119
		c0.439,0.566,0.875,1.133,1.299,1.711c0.227,0.307,0.443,0.615,0.662,0.925l0.131,0.187c0.404,0.573,0.805,1.148,1.193,1.732
		c0.215,0.326,0.43,0.662,0.641,0.998l0.129,0.201c0.363,0.57,0.727,1.143,1.074,1.727c0.197,0.328,0.383,0.654,0.566,0.979
		l0.178,0.31c0.34,0.597,0.664,1.166,0.973,1.744c0.189,0.354,0.371,0.709,0.549,1.064l0.252,0.494
		c0.264,0.518,0.525,1.037,0.775,1.562c0.18,0.373,0.35,0.756,0.52,1.139l0.279,0.625c0.215,0.479,0.43,0.957,0.631,1.442
		c0.168,0.399,0.326,0.806,0.484,1.212l0.275,0.709c0.178,0.453,0.355,0.905,0.521,1.361c0.148,0.416,0.285,0.828,0.424,1.242
		l0.27,0.807c0.148,0.438,0.295,0.874,0.432,1.316c0.141,0.457,0.268,0.912,0.393,1.369l0.227,0.812
		c0.119,0.417,0.238,0.835,0.348,1.257c0.125,0.493,0.236,0.988,0.346,1.482l0.189,0.836c0.094,0.393,0.186,0.785,0.264,1.182
		c0.109,0.533,0.201,1.064,0.289,1.594l0.146,0.83c0.07,0.381,0.139,0.762,0.197,1.146c0.084,0.564,0.154,1.132,0.221,1.699
		l0.113,0.912c0.045,0.334,0.09,0.668,0.121,1.006c0.07,0.695,0.119,1.388,0.166,2.08l0.055,0.754
		c0.021,0.28,0.043,0.561,0.061,0.842c0.062,1.263,0.094,2.514,0.094,3.728C277.535,241.389,244.615,274.307,204.15,274.307z"/>
	<path fill="#1976D2" d="M272.66,196.256c-0.051-0.753-0.098-1.508-0.174-2.254c-0.047-0.471-0.115-0.934-0.172-1.4
		c-0.08-0.664-0.156-1.332-0.254-1.991c-0.076-0.499-0.174-0.992-0.26-1.488c-0.107-0.616-0.209-1.235-0.33-1.847
		c-0.107-0.518-0.234-1.029-0.35-1.544c-0.131-0.579-0.254-1.159-0.398-1.73c-0.137-0.53-0.291-1.054-0.439-1.578
		c-0.154-0.547-0.301-1.096-0.465-1.636c-0.166-0.537-0.352-1.068-0.529-1.6c-0.172-0.517-0.34-1.035-0.523-1.545
		c-0.197-0.545-0.412-1.082-0.623-1.621c-0.189-0.484-0.373-0.973-0.574-1.454c-0.229-0.546-0.475-1.085-0.717-1.623
		c-0.205-0.46-0.406-0.922-0.621-1.376c-0.262-0.549-0.537-1.087-0.811-1.629c-0.221-0.43-0.436-0.863-0.662-1.289
		c-0.295-0.549-0.604-1.089-0.912-1.629c-0.23-0.402-0.457-0.809-0.695-1.207c-0.328-0.547-0.668-1.084-1.008-1.622
		c-0.24-0.376-0.479-0.753-0.723-1.124c-0.361-0.547-0.738-1.084-1.115-1.617c-0.244-0.348-0.488-0.696-0.738-1.039
		c-0.398-0.54-0.809-1.073-1.221-1.604c-0.25-0.32-0.496-0.64-0.75-0.955c-0.434-0.537-0.881-1.065-1.33-1.588
		c-0.25-0.292-0.5-0.584-0.756-0.871c-0.471-0.531-0.951-1.05-1.439-1.566c-0.25-0.264-0.498-0.531-0.754-0.791
		c-0.508-0.521-1.025-1.032-1.553-1.537c-0.246-0.238-0.492-0.479-0.746-0.713c-0.547-0.51-1.102-1.01-1.664-1.504
		c-0.242-0.211-0.486-0.426-0.734-0.635c-0.584-0.498-1.178-0.985-1.779-1.465c-0.236-0.188-0.475-0.375-0.713-0.561
		c-0.625-0.482-1.256-0.954-1.895-1.414c-0.23-0.167-0.461-0.332-0.693-0.494c-0.662-0.464-1.33-0.918-2.01-1.359
		c-0.221-0.145-0.441-0.285-0.662-0.425c-0.701-0.446-1.408-0.878-2.127-1.298c-0.209-0.123-0.418-0.243-0.629-0.363
		c-0.74-0.422-1.486-0.833-2.242-1.227c-0.197-0.104-0.395-0.205-0.594-0.307c-0.777-0.395-1.564-0.78-2.357-1.147
		c-0.184-0.084-0.367-0.166-0.551-0.249c-0.816-0.37-1.643-0.727-2.477-1.065c-0.168-0.066-0.334-0.13-0.5-0.198
		c-0.857-0.338-1.723-0.665-2.596-0.971c-0.148-0.052-0.301-0.102-0.449-0.153c-0.898-0.305-1.801-0.597-2.713-0.868
		c-0.129-0.039-0.264-0.073-0.393-0.111c-0.936-0.271-1.879-0.525-2.83-0.757c-0.109-0.027-0.221-0.052-0.33-0.076
		c-0.979-0.233-1.961-0.448-2.953-0.64c-0.084-0.016-0.17-0.028-0.256-0.045c-1.018-0.19-2.045-0.362-3.08-0.508
		c-0.057-0.01-0.113-0.015-0.17-0.023c-1.064-0.146-2.135-0.272-3.213-0.369c-0.025-0.002-0.051-0.004-0.076-0.005
		c-1.107-0.1-2.223-0.175-3.346-0.22c0.076-1.556,0.164-3.1,0.223-4.682c0,0,21.812,0.132,22.242,0.135c0.002,0,0.016,0,0.016,0
		c14.865,0.09,20.484-11.11,10.254-22.631l-62.309-70.178c0,0-5.086-4.796-10.305-4.553c-0.002,0-0.002,0-0.002,0
		c-5.281,0.244-10.268,4.822-10.268,4.822L98.18,104.898c-4.729,5.615-11.426,10.988-6.012,18.669
		c2.369,3.364,6.014,4.002,9.822,3.983c2.291-0.01,4.639-0.258,6.803-0.291l22.713-0.355h0.021
		c0.166,6.215,0.049,14.264-0.953,22.791c-1.809,15.406-6.924,35.693-21.033,44.873c-7.812,5.084-14.975,7.45-22.543,7.45
		c-0.004,0-0.006,0-0.008,0c-11.4-0.003-23.918-5.673-37.209-16.849c-2.389-2.008-5.486-3.166-8.652-3.203
		c-3.158-0.036-6.387,1.043-9.047,3.514c-1.533,1.424-0.256,0.146-1.74,1.617c-7.83,7.754,0.686,22.84,5.461,29.814
		c0.449,0.601,0.9,1.198,1.344,1.785c0.164,0.215,0.287,0.431,0.383,0.645c6.367,8.627,14.678,16.527,24.486,23.113
		c16.674,11.195,35.955,17.363,54.289,17.366c0.004,0,0.006,0,0.01,0c12.395,0,24.072-2.739,34.709-8.144
		c0.746-0.38,1.486-0.773,2.217-1.177c0.043-0.022,0.084-0.048,0.125-0.071c0.691-0.383,1.379-0.775,2.059-1.182
		c0.002,0,0.004,0,0.004-0.002c0.004-0.002,0.006-0.004,0.01-0.006c0.004,0.005,0.008,0.012,0.014,0.016
		c0.748,0.752,1.512,1.486,2.293,2.205c0.031,0.027,0.061,0.057,0.09,0.085c0.797,0.729,1.611,1.44,2.439,2.13
		c0.02,0.016,0.037,0.032,0.055,0.049c0.838,0.695,1.693,1.373,2.562,2.029c0.014,0.009,0.025,0.02,0.039,0.029
		c0.875,0.66,1.766,1.299,2.67,1.916c0.012,0.006,0.02,0.013,0.029,0.02c0.896,0.609,1.809,1.197,2.734,1.766
		c0.021,0.015,0.041,0.029,0.064,0.041c0.916,0.561,1.846,1.1,2.789,1.617c0.031,0.018,0.064,0.039,0.098,0.057
		c0.918,0.502,1.852,0.982,2.795,1.443c0.062,0.029,0.121,0.063,0.182,0.094c0.918,0.443,1.85,0.865,2.787,1.271
		c0.09,0.037,0.18,0.082,0.271,0.119c0.908,0.389,1.83,0.75,2.76,1.099c0.125,0.046,0.248,0.101,0.373,0.147
		c0.889,0.327,1.793,0.629,2.699,0.922c0.17,0.053,0.338,0.117,0.508,0.171c0.861,0.271,1.736,0.512,2.613,0.749
		c0.221,0.059,0.438,0.131,0.662,0.188c0.836,0.217,1.686,0.404,2.535,0.59c0.268,0.059,0.531,0.131,0.799,0.186
		c0.809,0.167,1.629,0.303,2.449,0.441c0.316,0.053,0.627,0.119,0.945,0.169c0.799,0.122,1.605,0.214,2.412,0.31
		c0.346,0.041,0.686,0.096,1.033,0.131c0.861,0.089,1.732,0.145,2.602,0.201c0.299,0.018,0.594,0.053,0.893,0.068
		c1.168,0.059,2.346,0.088,3.529,0.09c0.004,0,0.008,0,0.012,0c37.861,0,68.662-30.803,68.662-68.663
		c0-1.169-0.031-2.329-0.088-3.483C272.729,197.044,272.686,196.652,272.66,196.256z M86.998,215.619
		c12.393,0,22.389-4.724,29.961-9.65c36.133-23.51,27.277-92.863,27.277-92.863l-30.713,0.478l0.004-0.004
		c-2.928-0.366-2.475-2.369-2.096-3.304l55.811-66.27l59.748,67.296l-0.041,0.022c0,0,1.254,2.137-0.939,2.836l-32.166-0.194
		c0.006,6.688-0.17,13.062-0.504,19.155c-32.734,5.21-57.836,33.625-57.836,67.803c0,13.879,4.152,26.801,11.262,37.613
		c-9.643,5.337-20.037,7.684-30.451,7.684c-33.012,0-66.205-23.54-76.09-49.844l0.803-0.797
		C58.883,210.596,74.215,215.619,86.998,215.619z M149.52,200.924c0-26.021,18.283-47.838,42.674-53.314
		c3.857-0.868,7.863-1.34,11.98-1.34c0.604,0,1.199,0.025,1.799,0.046c29.301,0.954,52.85,25.077,52.85,54.609
		c0,30.136-24.516,54.651-54.648,54.651c-14.389,0-27.488-5.598-37.258-14.717c-3.32-3.102-6.252-6.609-8.721-10.445
		C152.713,221.899,149.52,211.781,149.52,200.924z"/>
	<polygon fill="#1976D2" points="198.77,186.061 233.309,194.441 236.031,183.225 201.584,174.863 188.381,171.66 182.463,170.223 
		180.535,169.756 177.812,180.977 185.566,182.857 	"/>
	<polygon fill="#1976D2" points="192.486,203.965 226.449,212.203 228.371,212.668 231.094,201.451 196.598,193.082 183.35,189.866 
		177.525,188.455 175.598,187.984 172.875,199.204 179.09,200.712 	"/>
	<polygon fill="#1976D2" points="184.178,220.141 221.893,229.293 223.814,229.756 226.539,218.543 189.908,209.654 
		176.369,206.369 171.041,205.076 168.32,216.293 170.168,216.742 	"/>
	
		<rect x="206.493" y="156.207" transform="matrix(0.9698 0.2439 -0.2439 0.9698 46.3761 -46.7036)" fill="#1976D2" width="10.529" height="15.376"/>
	
		<rect x="188.289" y="228.823" transform="matrix(-0.9697 -0.2442 0.2442 -0.9697 323.4785 513.1356)" fill="#1976D2" width="10.528" height="15.38"/>
</g>
</svg>
