<?xml version="1.0" encoding="utf-8"?>
<!-- Generator: Adobe Illustrator 16.0.0, SVG Export Plug-In . SVG Version: 6.00 Build 0)  -->
<!DOCTYPE svg PUBLIC "-//W3C//DTD SVG 1.1//EN" "http://www.w3.org/Graphics/SVG/1.1/DTD/svg11.dtd">
<svg version="1.1" id="Layer_1" xmlns="http://www.w3.org/2000/svg" xmlns:xlink="http://www.w3.org/1999/xlink" x="0px" y="0px"
	 width="300px" height="300px" viewBox="0 0 300 300" enable-background="new 0 0 300 300" xml:space="preserve">
<g>
	<path fill="#1976D2" d="M37.146,218.696c0.164,0.216,0.287,0.432,0.383,0.646c6.366,8.626,14.679,16.527,24.484,23.113
		c16.678,11.198,35.961,17.366,54.299,17.366c12.396,0,24.073-2.74,34.711-8.145c1.496-0.761,2.968-1.575,4.412-2.437
		c12.45,12.555,29.698,20.347,48.736,20.347c37.86,0,68.664-30.803,68.664-68.662c0-36.92-29.291-67.113-65.851-68.596
		c0.077-1.557,0.165-3.101,0.223-4.682c0,0,22.125,0.134,22.259,0.135c14.865,0.091,20.483-11.11,10.253-22.631l-62.308-70.178
		c0,0-5.086-4.796-10.306-4.553c-5.281,0.243-10.269,4.822-10.269,4.822l-58.66,69.654c-4.729,5.615-11.426,10.988-6.013,18.669
		c3.797,5.391,10.867,3.782,16.627,3.692l22.733-0.354c0.166,6.215,0.051,14.264-0.952,22.791
		c-1.808,15.405-6.924,35.693-21.032,44.873c-7.812,5.083-14.977,7.45-22.544,7.45c-11.4,0-23.922-5.67-37.217-16.85
		c-4.769-4.009-12.369-4.635-17.699,0.312c-1.534,1.424-0.256,0.147-1.739,1.617c-7.831,7.754,0.686,22.839,5.46,29.814
		C36.251,217.513,36.701,218.109,37.146,218.696z M258.821,200.925c0,30.135-24.515,54.65-54.649,54.65
		c-14.389,0-27.486-5.597-37.256-14.716c-3.32-3.102-6.253-6.61-8.721-10.445c-5.48-8.516-8.677-18.634-8.677-29.49
		c0-26.021,18.282-47.839,42.674-53.315c3.857-0.867,7.864-1.339,11.979-1.339c0.603,0,1.201,0.025,1.799,0.045
		C235.273,147.269,258.821,171.393,258.821,200.925z M41.026,195.579c17.855,15.016,33.187,20.04,45.971,20.04
		c12.393,0,22.39-4.725,29.959-9.65c36.136-23.51,27.279-92.864,27.279-92.864l-30.711,0.478l0.001-0.004
		c-2.926-0.366-2.474-2.369-2.096-3.303l55.811-66.271l59.75,67.295l-0.042,0.024c0,0,1.256,2.136-0.938,2.836l-32.167-0.195
		c0.005,6.687-0.169,13.062-0.503,19.155c-32.734,5.21-57.835,33.625-57.835,67.804c0,13.879,4.152,26.8,11.262,37.613
		c-9.642,5.337-20.039,7.683-30.454,7.683c-33.012,0-66.203-23.539-76.086-49.843L41.026,195.579z"/>
	<polygon fill="#1976D2" points="188.381,171.66 182.463,170.223 180.535,169.755 177.811,180.977 185.566,182.857 198.769,186.061 
		233.31,194.44 236.03,183.225 201.582,174.863 	"/>
	<polygon fill="#1976D2" points="183.348,189.865 177.525,188.454 175.598,187.983 172.873,199.204 179.089,200.712 
		192.485,203.964 226.448,212.204 228.37,212.667 231.093,201.45 196.598,193.081 	"/>
	<polygon fill="#1976D2" points="176.369,206.368 171.04,205.074 168.319,216.291 170.167,216.74 184.178,220.14 221.893,229.293 
		223.814,229.756 226.539,218.541 189.908,209.652 	"/>
	<polygon fill="#1976D2" points="218.743,157.724 208.529,155.155 204.772,170.066 214.982,172.638 	"/>
	
		<rect x="188.287" y="228.823" transform="matrix(-0.9697 -0.2442 0.2442 -0.9697 323.4901 513.1296)" fill="#1976D2" width="10.53" height="15.379"/>
	<path fill="#1976D2" d="M30.079,300h239.842C286.506,300,300,286.506,300,269.919V30.08C300,13.493,286.506,0,269.921,0H30.079
		C13.493,0,0,13.493,0,30.08v239.839C0,286.506,13.493,300,30.079,300z M12.586,30.08c0-9.646,7.848-17.494,17.493-17.494h239.842
		c9.646,0,17.492,7.848,17.492,17.494v239.839c0,9.646-7.847,17.494-17.492,17.494H30.079c-9.646,0-17.493-7.848-17.493-17.494
		V30.08z"/>
</g>
</svg>
