<?xml version="1.0" encoding="utf-8"?>
<!-- Generator: Adobe Illustrator 16.0.0, SVG Export Plug-In . SVG Version: 6.00 Build 0)  -->
<!DOCTYPE svg PUBLIC "-//W3C//DTD SVG 1.1//EN" "http://www.w3.org/Graphics/SVG/1.1/DTD/svg11.dtd">
<svg version="1.1" id="Layer_1" xmlns="http://www.w3.org/2000/svg" xmlns:xlink="http://www.w3.org/1999/xlink" x="0px" y="0px"
	 width="300px" height="300px" viewBox="0 0 300 300" enable-background="new 0 0 300 300" xml:space="preserve">
<g>
	<path fill="#1976D2" d="M269.92,0H30.08C13.492,0,0,13.494,0,30.081v239.838C0,286.506,13.492,300,30.08,300h239.84
		c16.588,0,30.08-13.494,30.08-30.081V30.081C300,13.494,286.508,0,269.92,0z M204.175,255.576
		c-14.389,0-27.487-5.598-37.258-14.717c-3.319-3.103-6.252-6.609-8.722-10.445c-5.482-8.516-8.675-18.633-8.675-29.49
		c0-26.021,18.283-47.838,42.673-53.314c3.857-0.868,7.863-1.34,11.98-1.34c0.604,0,1.199,0.025,1.799,0.046
		c29.301,0.954,52.851,25.077,52.851,54.609C258.823,231.061,234.307,255.576,204.175,255.576z M116.959,205.969
		c36.133-23.51,27.277-92.863,27.277-92.863l-30.713,0.478l0.004-0.004c-2.928-0.366-2.475-2.369-2.096-3.304l55.811-66.27
		l59.748,67.296l-0.041,0.022c0,0,1.254,2.137-0.939,2.836l-32.166-0.194c0.006,6.688-0.17,13.062-0.504,19.155
		c-32.734,5.21-57.836,33.625-57.836,67.803c0,13.879,4.152,26.801,11.262,37.613c-9.643,5.337-20.037,7.684-30.451,7.684
		c-33.012,0-66.205-23.539-76.09-49.844l0.803-0.797c17.855,15.016,33.187,20.039,45.97,20.039
		C99.391,215.619,109.387,210.895,116.959,205.969z"/>
	<polygon fill="#1976D2" points="188.381,171.66 182.463,170.223 180.535,169.756 177.812,180.977 185.566,182.857 198.77,186.061 
		233.309,194.441 236.031,183.225 201.584,174.863 	"/>
	<polygon fill="#1976D2" points="183.35,189.866 177.525,188.455 175.598,187.984 172.875,199.204 179.09,200.712 192.486,203.965 
		226.449,212.203 228.371,212.668 231.094,201.451 196.598,193.082 	"/>
	<polygon fill="#1976D2" points="176.369,206.369 171.041,205.076 168.32,216.293 170.168,216.742 184.178,220.141 221.893,229.293 
		223.814,229.756 226.539,218.543 189.908,209.654 	"/>
	
		<rect x="206.5" y="156.201" transform="matrix(0.9698 0.2439 -0.2439 0.9698 46.3748 -46.7055)" fill="#1976D2" width="10.529" height="15.375"/>
	
		<rect x="188.283" y="228.834" transform="matrix(-0.9697 -0.2442 0.2442 -0.9697 323.4893 513.1436)" fill="#1976D2" width="10.528" height="15.38"/>
</g>
</svg>
