<?xml version="1.0" encoding="utf-8"?>
<!-- Generator: Adobe Illustrator 16.0.0, SVG Export Plug-In . SVG Version: 6.00 Build 0)  -->
<!DOCTYPE svg PUBLIC "-//W3C//DTD SVG 1.1//EN" "http://www.w3.org/Graphics/SVG/1.1/DTD/svg11.dtd">
<svg version="1.1" id="Layer_1" xmlns="http://www.w3.org/2000/svg" xmlns:xlink="http://www.w3.org/1999/xlink" x="0px" y="0px"
	 width="100px" height="100px" viewBox="0 0 100 100" enable-background="new 0 0 100 100" xml:space="preserve">
<g>
	<path fill="#7BD3FF" d="M100,12.893C100,5.535,93.686,0,86.33,0H13.44C6.085,0,0,5.535,0,12.893v72.879
		C0,93.129,6.085,100,13.44,100h72.89c7.355,0,13.67-6.871,13.67-14.229V12.893z"/>
	<g>
		<path fill="none" d="M60.172,65H38.148c-0.824,0-1.2,0.006-1.2,0.5c0,0.555,0.433,0.5,0.944,0.5h22.024
			c0.514,0,0.946,0.055,0.946-0.5C60.863,65.053,60.528,65,60.172,65z"/>
		<g>
			<path fill="#0275BD" d="M57.228,27.309l-5.355-0.375l-4.449-0.312l-1.681-0.117L41.5,27.358l-9.062,7.438
				c-0.028,0.057-0.068,0.109-0.12,0.152c-0.022,0.018-0.046,0.033-0.068,0.047l-2.752,11.648c0.317,0.322,1.107,1.011,1.999,0.887
				c0.912-0.126,1.784-1.099,2.522-2.813c0.486-1.128,0.922-2.109,1.309-2.961c0.037,0.284,0.082,0.565,0.136,0.845
				c0.051,0.26,0.106,0.518,0.171,0.772c1.481,5.843,6.773,10.167,13.078,10.167c7.449,0,13.49-6.041,13.49-13.49
				c0-0.873-0.084-1.725-0.243-2.55l-0.689,0.233l-0.692,0.232c0.12,0.678,0.182,1.373,0.182,2.084
				c0,6.643-5.404,12.047-12.047,12.047c-6.315,0-11.342-4.883-11.842-11.07C36.846,40.705,37,40.379,37,40.051
				c0-0.013,0-0.025,0-0.039c0-0.404-0.145-0.805-0.105-1.199c0.621-6.062,5.677-10.81,11.902-10.81
				c2.838,0,5.406,0.987,7.469,2.636l0.202-0.74l0.213-0.74L57.228,27.309z"/>
			
				<rect x="41.968" y="43.084" transform="matrix(0.9718 0.2357 -0.2357 0.9718 11.7218 -9.985)" fill="#0275BD" width="11.31" height="1.9"/>
			<path fill="#0275BD" d="M42.923,39.859l5.267,1.277c-0.005-0.029-0.01-0.059-0.015-0.088c-0.139-1.016,0.423-1.721,0.445-1.749
				l0.01-0.012l-5.259-1.276L42.923,39.859z"/>
			<path fill="#0275BD" d="M53.914,42.526l0.065-0.272c-0.133,0.068-0.263,0.133-0.39,0.195L53.914,42.526z"/>
			<path fill="#0275BD" d="M43.863,36.33l6.238,1.514c0.055-0.053,0.11-0.106,0.168-0.163c0.441-0.427,0.937-0.906,1.445-1.401
				l-7.402-1.795L43.863,36.33z"/>
			
				<rect x="45.277" y="46.947" transform="matrix(-0.2448 0.9696 -0.9696 -0.2448 104.3776 14.2907)" fill="#0275BD" width="2.692" height="1.692"/>
			<polygon fill="#0275BD" points="50.902,34.197 51.019,33.735 51.136,33.274 51.532,31.698 49.893,31.285 49.435,33.104 
				49.317,33.565 49.235,33.895 50.134,34.121 50.874,34.308 			"/>
			<path fill="#0275BD" d="M71.156,32.678l4.156-8.516c-0.048-0.015-0.096-0.029-0.142-0.049l-0.012,0.039l-0.789-0.244l-8.853-2.74
				c-1.147,0.99-2.557,2.221-3.837,3.354c-0.119,0.107-0.239,0.215-0.357,0.32c-0.123,0.109-0.244,0.217-0.362,0.322
				c-1.068,0.954-1.973,1.781-2.448,2.256c-0.175,0.175-0.294,0.01-0.338,0.075c0.001-0.002-0.056,0.001-0.099,0.019l-0.611,1.979
				l-0.23,0.91l-0.231,0.842l-0.402,1.37l0.148-0.073l0.777,1.258l0.301,0.487l0.303,0.487l1.556,2.5l0.693-0.232l0.685-0.232
				l0.687-0.23l5.118-1.729C69.259,34.021,70.797,32.943,71.156,32.678z M66.1,26.309c-0.34,0-0.646-0.146-0.858-0.379
				c-0.193-0.209-0.312-0.486-0.312-0.791c0-0.646,0.524-1.17,1.17-1.17s1.169,0.523,1.169,1.17c0,0.123-0.019,0.242-0.055,0.354
				C67.063,25.965,66.622,26.309,66.1,26.309z"/>
			<path fill="#0275BD" d="M26.862,36.773c0.965,0,2.087-0.457,3.338-1.357l1.13-0.927l-2.778-3.38
				c-0.091-0.109-0.121-0.247-0.1-0.376l-4.283,4.135C24.44,35.45,25.235,36.773,26.862,36.773z"/>
			<path fill="#0275BD" d="M31.657,33.404l0.376,0.457l0.024,0.03l0.421-0.345l3.94-3.234l-1.29-1.811l-1.778-2.498l-4.496,4.341
				c0.156-0.021,0.317,0.036,0.424,0.166L31.657,33.404z"/>
			<polygon fill="#0275BD" points="37.148,29.713 40.781,26.729 40.08,22.621 39.996,22.131 39.912,21.641 39.623,19.949 
				34.036,25.342 35.66,27.624 			"/>
			<path fill="#0275BD" d="M46.396,19.289l0.491,5.988L48,25.604c0,0.013,0,0.024,0,0.036l10.742,0.791
				c0.473-0.459,0.915-1.121,2.006-2.096c0.113-0.101,0.094-0.205,0.215-0.312c0.113-0.102,0.161-0.204,0.281-0.311
				c0.032-0.029,0.028-0.055,0.061-0.084c1.894-1.676,3.794-3.328,3.814-3.345l0.188-0.171l9.377,2.905l-8.331-9.662l-0.448,0.257
				l-0.077,0.016c-2.756,0.532-12.898,2.773-19.544,4.252l0.073,0.924L46.396,19.289z M64.687,15.846c0.646,0,1.17,0.523,1.17,1.17
				c0,0.646-0.524,1.168-1.17,1.168s-1.169-0.522-1.169-1.168C63.518,16.369,64.041,15.846,64.687,15.846z M48.854,18.955
				c0.215-0.245,0.529-0.401,0.881-0.401c0.338,0,0.641,0.144,0.854,0.372c0.194,0.209,0.315,0.488,0.315,0.797
				c0,0.646-0.524,1.17-1.17,1.17s-1.169-0.523-1.169-1.17C48.565,19.43,48.675,19.16,48.854,18.955z"/>
			<path fill="#0275BD" d="M40.871,21.658l0.084,0.49l0.719,4.215l4.008-0.809l0.272,0.02l-0.439-5.49L45.476,19.6l-0.039-0.484
				l-0.082-1.029c-2.497,0.557-4.357,0.973-4.905,1.096l0.339,1.986L40.871,21.658z"/>
			<path fill="#0275BD" d="M49.348,39.898c-0.037,0.051-0.323,0.459-0.237,1.039c0.022,0.153,0.068,0.306,0.139,0.457
				c0.186,0.405,0.536,0.805,1.051,1.193c0.268-0.041,0.873-0.166,1.764-0.51c0.35-0.135,0.742-0.304,1.176-0.515
				c-0.396-0.544-0.732-1.007-1.019-1.403c-0.659-0.915-1.05-1.473-1.283-1.816c-0.004,0.006-0.008,0.01-0.013,0.014
				c-0.47,0.455-0.924,0.895-1.225,1.189C49.518,39.727,49.39,39.854,49.348,39.898z"/>
			<path fill="#0275BD" d="M54.281,41.015c1.28-0.724,2.82-1.774,4.57-3.298l-1.87-3.002l-0.306-0.491l-0.307-0.491l-0.291-0.467
				c-0.121,0.127-0.254,0.266-0.399,0.414c-0.134,0.139-0.278,0.285-0.43,0.438c-0.14,0.141-0.284,0.287-0.436,0.438
				c-0.618,0.617-1.322,1.308-2.018,1.986c-0.399,0.39-0.797,0.774-1.172,1.14c0.105,0.157,0.258,0.377,0.442,0.639
				c0.41,0.582,0.979,1.372,1.567,2.182c0.149,0.208,0.301,0.416,0.452,0.623C54.15,41.089,54.216,41.051,54.281,41.015z"/>
			<polygon fill="#0275BD" points="79.825,16.213 69.762,10.616 67.608,12.816 75.157,21.717 			"/>
			<polygon fill="#0275BD" points="70.018,9.68 79.255,14.817 80.446,15.48 80.866,15.714 81.285,15.947 81.969,16.328 
				83.609,12.775 70.943,5.73 69.304,9.283 69.591,9.443 			"/>
			<path fill="#0275BD" d="M81.919,91.473c0.007-0.013,0.014-0.025,0.021-0.038c-0.006-0.017-0.01-0.036-0.015-0.055
				C81.923,91.41,81.921,91.44,81.919,91.473z"/>
			<path fill="#0275BD" d="M77.68,59.103c-0.064-0.093-54.519-0.051-54.519-0.051L14,73.543V91.86v0.251v0.061
				c0,0.013,0.137,0.025,0.138,0.038c0.002,0.004,0.069,0.041,0.073,0.044c0.051,0.4,0.448,0.746,0.851,0.746h0.016
				C15.514,93,17,92.563,17,92.111V91.86c0-0.015-0.001-0.029-0.002-0.044C16.999,91.815,17,91.813,17,91.812V75h65v16.86v0.229
				v0.021C82,92.563,82.178,93,82.614,93h0.016c0.437,0,1.37-0.437,1.37-0.889v-0.002V91.86V73.235
				C84,72.922,77.68,59.103,77.68,59.103z M59.917,66H37.893c-0.512,0-0.944,0.055-0.944-0.5c0-0.494,0.376-0.5,1.2-0.5h22.023
				c0.356,0,0.691,0.053,0.691,0.5C60.863,66.055,60.431,66,59.917,66z"/>
		</g>
	</g>
</g>
</svg>
