<?xml version="1.0" encoding="utf-8"?>
<!-- Generator: Adobe Illustrator 16.0.0, SVG Export Plug-In . SVG Version: 6.00 Build 0)  -->
<!DOCTYPE svg PUBLIC "-//W3C//DTD SVG 1.1//EN" "http://www.w3.org/Graphics/SVG/1.1/DTD/svg11.dtd">
<svg version="1.1" id="Layer_1" xmlns="http://www.w3.org/2000/svg" xmlns:xlink="http://www.w3.org/1999/xlink" x="0px" y="0px"
	 width="100px" height="100px" viewBox="0 0 100 100" enable-background="new 0 0 100 100" xml:space="preserve">
<g>
	<path fill="#DF87FF" d="M100,12.543C100,5.194,93.416,0,86.036,0H13.239C5.858,0,0,5.194,0,12.543v72.912
		C0,92.804,5.858,100,13.239,100h72.797C93.416,100,100,92.804,100,85.455V12.543z"/>
	<g>
		<path fill="#9517CE" d="M47.421,31.641l0.003-0.967c0.009-1.817-1.459-3.296-3.275-3.303l-11.994-0.05
			c-1.816-0.007-3.296,1.46-3.304,3.276l-0.004,0.965c-0.008,1.818,1.459,3.297,3.277,3.305l11.991,0.049
			C45.934,34.924,47.413,33.456,47.421,31.641z"/>
		<path fill="#9517CE" d="M70,45.531v5.008l2.57-4.386c0.43,0.041,0.66,0.063,1.104,0.063c7.59,0,13.642-6.154,13.642-13.746
			c0-7.59-6.206-13.743-13.797-13.743s-13.357,6.153-13.357,13.743C60.161,38.563,65,43.729,70,45.531z M71.773,41.121l-1.619-0.407
			l0.649-2.58l1.62,0.409L71.773,41.121z M74.52,23.316l1.619,0.41l-0.65,2.577l-1.62-0.407L74.52,23.316z M69.005,26.477
			l10.859,2.637l-0.443,1.824l-10.858-2.635L69.005,26.477z M68.075,29.965L78.935,32.6l-0.443,1.824l-10.858-2.635L68.075,29.965z
			 M67.067,33.683l10.86,2.636l-0.444,1.825l-10.858-2.636L67.067,33.683z"/>
	</g>
	<path fill="#9517CE" d="M90.127,83.767c-0.516-0.809-0.598-1.344-1.545-1.613L89,83.285V83.18L87.997,82c0.001,0-0.034,0-0.034,0
		l2.545-11.693c0-4.914-4.002-8.307-8.917-8.307H58.618c-3.943-2-7.946-4.107-11.954-4.908c-0.894-0.18-1.787-0.582-2.682-0.693
		l-0.006,1.05l-0.004,1.604C46.879,59.443,49.97,60,53.21,62h-1.782c-4.914,0-8.292,2.769-8.897,8.406L40.29,82H22.418h-0.454
		l-0.011-5.766c3.257-1.551,5.418-4.831,5.434-8.609c0.01-2.396-0.855-4.6-2.303-6.289c2.21-1.017,4.907-1.982,8.001-2.573
		l-0.01,2.682c-0.01,2.455,1.979,4.505,4.435,4.516L39.49,66h0.019c2.444,0,4.441-2.021,4.451-4.467l0.013-3.036l0.004-1.173
		l0.006-1.177l0.01-2.543c1.155-0.467,2.245-1.091,3.229-1.862c2.458-1.925,4.144-4.577,4.873-7.701
		c2.039-8.738,2.42-27.79-9.423-30.905c-0.535-0.141-1.123-0.241-1.757-0.298l0.017-4.204c0.001-0.052-0.001-0.104-0.002-0.154
		c0.62-0.569,1.009-1.387,1.009-2.295c0-1.719-1.394-3.112-3.112-3.112s-3.112,1.394-3.112,3.112c0,0.808,0.308,1.543,0.812,2.096
		c-0.009,0.11-0.016,0.222-0.016,0.336l-0.017,4.195c-0.671,0.049-1.292,0.145-1.853,0.285c-11.868,3.02-11.645,22.07-9.677,30.826
		c1.017,4.521,4.113,8.062,8.146,9.702l-0.011,2.784c-0.16,0.029-0.319,0.056-0.479,0.086c-3.233,0.619-6.439,2.215-9.396,3.664
		C21.686,59.105,19.827,59,17.825,59h-0.04c-5.282,0-9.598,3.76-9.619,9.043c-0.013,3.072,1.427,5.592,3.668,7.36L11.806,82h-1.646
		c-1.72,0-2.982,0.588-3.752,1.797c-0.572,0.896-0.839,2.066-0.839,3.706c0,1.639,0.267,2.799,0.839,3.696
		C7.177,92.407,8.439,93,10.159,93h76.216c1.721,0,2.983-0.598,3.752-1.805c0.573-0.898,0.839-2.074,0.839-3.713
		S90.7,84.664,90.127,83.767z M42,61.489c0,1.17-1.14,2.122-2.31,2.122l-1.779-0.008C36.737,63.598,36,62.639,36,61.464v-0.172
		c1,0.363,1.648,0.784,3.059,0.784c0.898,0,1.941-0.171,2.941-0.637V61.489z M42,58.233l-0.182,1.609
		c-0.329,0.164-0.74,0.299-1.048,0.405c-1.828,0.633-3.298,0.343-4.178-0.017c-0.609-0.248-0.979-0.528-1.019-0.561
		c-0.045-0.038,0.025-0.724-0.026-0.749l0.031-1.297L36,57.664c0,0.206,0.605,0.43,1.234,0.585c0.486,0.121,0.891,0.2,1.504,0.2
		c0.604,0,1.367-0.077,2.082-0.27c0.349-0.095,1.18-0.215,1.18-0.367V58.233z M41.661,55.924l-0.002,0.291
		c-0.331,0.164-0.652,0.3-0.961,0.405c-1.828,0.633-3.255,0.343-4.137-0.017c-0.553-0.225-0.892-0.477-0.978-0.546
		c-0.009-0.007-0.015-0.012-0.019-0.015c-0.045-0.038-0.093-0.068-0.144-0.094l0.007-1.616c0.91,0.19,1.852,0.292,2.815,0.292
		c0.081,0,0.161-0.03,0.242-0.031c0.117,0.003,0.236-0.034,0.354-0.034l0,0c0.955,0,1.901-0.079,2.827-0.272L41.661,55.924z
		 M38.368,9.265c0.149,0.022,0.303,0.033,0.458,0.033c0.082,0,0.162-0.004,0.241-0.011l-0.014,3.504
		c-0.131,0.004-0.263,0.009-0.396,0.016c-0.102-0.006-0.202-0.01-0.305-0.014L38.368,9.265z M31.256,49.9
		c-2.044-1.615-3.437-3.856-4.026-6.481c-1.735-7.716-2.132-25.495,7.983-28.068c0.375-0.095,0.805-0.163,1.27-0.206
		c0.297-0.025,0.609-0.043,0.932-0.047c0.303-0.004,0.613,0.002,0.931,0.018c0.077,0.004,0.155,0.009,0.232,0.014l0.071,0.004
		l0.073-0.004c0.107-0.005,0.216-0.01,0.322-0.015c0.317-0.011,0.629-0.013,0.931-0.004c0.323,0.009,0.635,0.03,0.931,0.062
		c0.429,0.047,0.825,0.115,1.176,0.208c10.094,2.655,9.55,20.431,7.752,28.132c-0.606,2.605-2.006,4.824-4.044,6.421
		c-0.561,0.439-1.165,0.821-1.799,1.145c-0.374,0.19-0.758,0.36-1.15,0.508c-0.997,0.374-2.004,0.799-3.064,0.939
		c-0.76,0.101-3.221-0.096-3.462-0.141c-0.71-0.131-1.361-0.363-2.035-0.614c-0.393-0.146-0.777-0.401-1.15-0.591
		C32.467,50.844,31.839,50.361,31.256,49.9z M87.689,83.287L87.689,83.287l-0.012,0.055L87.689,83.287z M61.314,68h0.438h1.163
		h1.161h7.311c1.37,0,1.305,1.201,1.305,2c0,0.801,0.065,2-1.305,2h-6.569h-0.863h-0.298h-0.863h-1.162h-0.316
		c-0.278,0-0.497,0-0.669,0h-0.047C60.046,72,60,70.252,60,69.725c0-0.066,0-0.259,0-0.325C60,68.6,59.944,68,61.314,68z M17.475,82
		h-3.346l0.007-1.979c0.674,0.299,1.604,0.56,2.743,0.56c0.222,0,0.449-0.02,0.686-0.043c0.642-0.061,1.34-0.183,2.086-0.462
		L19.642,82H17.475z M14.143,78.358l-0.117-1.896C15.136,76.916,16.447,77,17.719,77h0.023h0.046c0.642,0,1.311-0.254,1.917-0.373
		l-0.049,2.059c-0.229,0.104-0.452,0.082-0.67,0.158c-0.471,0.162-0.914,0.206-1.327,0.262c-1.2,0.16-2.157-0.097-2.812-0.363
		C14.547,78.62,14.311,78.464,14.143,78.358z M10.488,67.889C10.504,63.881,13.778,61,17.785,61h0.029
		c1.068,0,2.08-0.117,2.994,0.297c0.41,0.186,0.8,0.232,1.165,0.489c0.343,0.239,0.664,0.419,0.96,0.713
		c1.333,1.324,2.157,3.116,2.149,5.144c-0.011,2.439-1.229,4.57-3.084,5.881c-1.422,1.005-3.479,1.598-5.262,1.443
		c-0.509-0.044-1.47-0.17-1.94-0.374c-0.873-0.38-1.078-0.617-1.793-1.237c-0.433-0.375-0.821-0.771-1.155-1.236
		C10.987,70.919,10.48,69.479,10.488,67.889z M86.375,91H10.159c-1.471,0-2.268,0.203-2.268-2.5c0-2.086,0.361-2.5,2.268-2.5h1.638
		h0.733h0.428h1.16h1.839h1.369h0.464h1.843h1.161h1.161h0.463h17.441h13.731h1.014h1.161h1.161h0.521h3.624h0.008h1.361h0.953
		h0.207h1.161h10.929h10.684C86.789,86,88,86,88,86v-1.584c1,0.37,0.918,1.279,0.918,3.223C88.918,89.723,88.283,91,86.375,91z"/>
</g>
</svg>
