<?xml version="1.0" encoding="utf-8"?>
<!-- Generator: Adobe Illustrator 16.0.0, SVG Export Plug-In . SVG Version: 6.00 Build 0)  -->
<!DOCTYPE svg PUBLIC "-//W3C//DTD SVG 1.1//EN" "http://www.w3.org/Graphics/SVG/1.1/DTD/svg11.dtd">
<svg version="1.1" id="Layer_1" xmlns="http://www.w3.org/2000/svg" xmlns:xlink="http://www.w3.org/1999/xlink" x="0px" y="0px"
	 width="100px" height="100px" viewBox="0 0 100 100" enable-background="new 0 0 100 100" xml:space="preserve">
<g>
	<path fill="#91EA9A" d="M100,13.478C100,6.049,93.421,0,85.938,0H12.428C4.946,0,0,6.049,0,13.478v73.705
		C0,94.611,4.946,101,12.428,101h73.511C93.421,101,100,94.611,100,87.183V13.478z"/>
	<g>
		<path fill="none" d="M50.406,53.726C47.937,53.604,45.774,55,45.007,58h0.562h9.139h0.49C54.551,55,52.688,53.848,50.406,53.726z"
			/>
		<path fill="none" d="M64.986,21.303c-1.371-1.979-2.342-3.919-3.026-5.637l-15.166,0.258l-8.718-0.207
			c-0.685,1.707-1.652,3.635-3.013,5.597c-3.098,4.467-8.825,9.942-19.044,12.47c-0.262,4.29-0.197,11.291,1.855,19.046
			c1.092,4.13,2.607,7.956,4.539,11.473c0.13-0.057,0.28-0.07,0.425-0.021c0.367,0.122,2.048,0.173,2.776,0.106
			c0.045-0.954,0.102-3.551,0.141-5.713c-0.653-0.275-1.112-0.923-1.112-1.676c0-1.001,0.813-1.815,1.816-1.815
			c1.002,0,1.816,0.814,1.816,1.815c0,0.836-0.567,1.539-1.336,1.752c-0.104,5.926-0.172,6.169-0.195,6.252
			c-0.048,0.171-0.167,0.314-0.334,0.404c-0.262,0.138-0.942,0.192-1.672,0.192c-0.574,0-0.769-0.033-1.226-0.083
			C25.943,69.641,29,73.322,33,76.551v-4.978l-2.953-0.19l-0.141-4.706c-0.695-0.256-1.295-0.922-1.295-1.706
			c0-1.001,0.763-1.815,1.765-1.815s1.792,0.814,1.792,1.815c0,0.811-0.545,1.498-1.277,1.732l0.266,3.595L34,70.483v7.083
			c1,0.481,1,0.95,2,1.41V62.271c-1-0.288-1.494-0.918-1.494-1.648c0-1.001,0.596-1.814,1.598-1.814c1,0,2.057,0.813,2.057,1.814
			c0,0.86-0.16,1.581-1.16,1.769v17.456c4,2.877,8.383,5.308,13.529,7.283C55.652,85.165,61,82.748,64,79.89V62.32
			c0-0.26-1.328-0.922-1.328-1.698c0-1.001,0.738-1.814,1.74-1.814s1.844,0.813,1.844,1.814c0,0.817-0.256,1.51-1.256,1.738v16.66
			c1-0.425,1-0.861,2-1.307v-7.231l2.383-0.191l-0.113-3.664c-0.631-0.285-1.133-0.919-1.133-1.656c0-1.001,0.785-1.815,1.786-1.815
			c1.003,0,1.802,0.814,1.802,1.815c0,0.854-0.599,1.571-1.394,1.766l0.142,4.652L68,71.576v5.132c4-3.262,6.622-6.99,9.09-11.176
			c-0.429,0.04-1.029,0.066-1.533,0.066c-0.73,0-1.448-0.055-1.71-0.192c-0.167-0.09-0.307-0.233-0.355-0.405
			c-0.022-0.082-0.098-0.329-0.203-6.251c-0.77-0.213-1.341-0.916-1.341-1.752c0-1.001,0.813-1.815,1.814-1.815
			c1.003,0,1.815,0.814,1.815,1.815c0,0.753-0.46,1.4-1.114,1.676c0.039,2.162,0.096,4.758,0.14,5.709
			c0.729,0.067,2.41,0.019,2.776-0.104c0.095-0.032,0.189-0.035,0.28-0.021c1.85-3.374,3.317-7.032,4.395-10.971
			c2.152-7.86,2.224-15.104,1.964-19.505C73.806,31.252,68.081,25.771,64.986,21.303z M41.152,26.227
			c0.148-0.506,0.729-0.686,1.191-0.799c0.76-0.185,3.198-0.454,4.754-0.602c0.628-1.437,1.573-3.518,1.97-4.154
			c0.25-0.404,0.601-0.899,1.127-0.885c0.527-0.015,0.877,0.48,1.127,0.885c0.396,0.637,1.342,2.718,1.97,4.154
			c1.556,0.147,3.995,0.417,4.754,0.602c0.464,0.113,1.041,0.293,1.191,0.799c0.132,0.372-0.039,0.738-0.262,1.053
			c-0.074,0.104-0.153,0.203-0.23,0.293c-0.506,0.596-2.314,2.251-3.486,3.289c0.1,0.353,0.21,0.75,0.322,1.162
			c0.368,1.353,0.753,2.862,0.831,3.452c0.045,0.342,0.079,0.754-0.064,1.077c-0.056,0.123-0.134,0.232-0.248,0.32
			c-0.399,0.346-0.983,0.184-1.434,0.029c-0.764-0.262-3.092-1.416-4.471-2.129c-1.379,0.713-3.705,1.867-4.47,2.129
			c-0.451,0.154-1.035,0.316-1.434-0.029c-0.114-0.088-0.193-0.197-0.247-0.32c-0.145-0.323-0.109-0.735-0.063-1.077
			c0.077-0.59,0.461-2.1,0.828-3.452c0.112-0.412,0.223-0.81,0.322-1.162c-1.172-1.038-2.98-2.693-3.485-3.289
			c-0.077-0.09-0.156-0.189-0.23-0.293C41.19,26.965,41.02,26.598,41.152,26.227z M38.479,48.123
			c-0.054,0.123-0.133,0.232-0.247,0.322c-0.399,0.345-0.983,0.184-1.433,0.028c-0.766-0.261-3.093-1.417-4.473-2.128
			c-1.379,0.711-3.704,1.867-4.47,2.128c-0.451,0.155-1.033,0.316-1.433-0.028c-0.114-0.09-0.193-0.199-0.248-0.322
			c-0.143-0.323-0.109-0.734-0.064-1.077c0.078-0.591,0.463-2.099,0.829-3.45c0.112-0.412,0.223-0.811,0.322-1.163
			c-1.171-1.037-2.98-2.692-3.484-3.29c-0.077-0.091-0.157-0.189-0.231-0.293c-0.223-0.313-0.394-0.68-0.263-1.053
			c0.15-0.505,0.729-0.686,1.192-0.798c0.759-0.185,3.196-0.454,4.755-0.604c0.627-1.434,1.574-3.514,1.968-4.15
			c0.252-0.406,0.601-0.9,1.127-0.887c0.528-0.014,0.877,0.48,1.127,0.887c0.396,0.637,1.342,2.717,1.97,4.15
			c1.556,0.15,3.996,0.42,4.754,0.604c0.464,0.112,1.042,0.293,1.192,0.798c0.133,0.373-0.038,0.739-0.263,1.053
			c-0.073,0.104-0.153,0.202-0.229,0.293c-0.505,0.598-2.316,2.253-3.487,3.29c0.1,0.353,0.21,0.751,0.322,1.163
			c0.368,1.352,0.752,2.859,0.83,3.45C38.589,47.389,38.623,47.8,38.479,48.123z M61,59.447v14.64C61,74.849,59.623,76,58.862,76
			H41.19C40.429,76,40,74.849,40,74.087v-14.64v-1.208c0-0.639,0.344-1.192,0.934-1.348c-0.002,0.003-0.155,0.01-0.155,0.015
			c0.072-0.042,0.055,0.586,0.142,0.553C40.925,57.416,40.834,58,40.84,58c0.003,0,0.004,0,0.007,0c0.903-5,4.992-9.174,9.772-8.915
			c4.448,0.235,7.996,3.735,8.729,8.325c0.006,0.035,0.007-0.094,0.013-0.06c0.07,0.042,0.128,0.004,0.189,0.054
			c-0.013-0.123,0.202-0.286,0.181-0.409C60.251,57.192,61,57.651,61,58.239V59.447z M76.504,38.85
			c-0.073,0.104-0.153,0.202-0.23,0.293c-0.504,0.598-2.314,2.252-3.485,3.29c0.1,0.353,0.21,0.751,0.322,1.163
			c0.367,1.352,0.752,2.859,0.83,3.45c0.045,0.343,0.079,0.754-0.064,1.076c-0.056,0.124-0.134,0.233-0.248,0.323
			c-0.397,0.345-0.982,0.184-1.433,0.028c-0.765-0.263-3.092-1.417-4.471-2.128c-1.378,0.711-3.705,1.865-4.47,2.128
			c-0.451,0.155-1.035,0.316-1.434-0.028c-0.114-0.09-0.192-0.199-0.247-0.32c-0.145-0.324-0.11-0.736-0.063-1.079
			c0.077-0.591,0.461-2.099,0.828-3.45c0.111-0.412,0.222-0.811,0.321-1.163c-1.171-1.038-2.979-2.692-3.485-3.29
			c-0.077-0.091-0.156-0.188-0.23-0.293c-0.224-0.313-0.394-0.68-0.262-1.053c0.15-0.506,0.728-0.686,1.191-0.798
			c0.76-0.185,3.197-0.456,4.754-0.603c0.628-1.436,1.574-3.516,1.97-4.152c0.251-0.406,0.601-0.9,1.127-0.887
			c0.526-0.014,0.877,0.48,1.127,0.887c0.396,0.637,1.342,2.717,1.97,4.152c1.556,0.146,3.994,0.418,4.754,0.603
			c0.462,0.112,1.041,0.292,1.191,0.798C76.899,38.17,76.729,38.536,76.504,38.85z"/>
		<path fill="none" d="M50.579,50.516c-0.063-0.002-0.137-0.349-0.21-0.364c-0.072-0.017-0.146,0.461-0.21,0.461
			c-3.841,0-7.092,2.388-7.936,7.388h0.36h1.018c0.825-4,3.618-6.283,6.876-6.121c2.933,0.156,6.007,1.992,6.761,5.258
			C57.262,57.135,58,56.795,58,56.792c0-0.001,0-0.018,0-0.018l-0.689,0.673c-0.01,0-0.709,0.553-0.717,0.553h1.048h0.229
			C57,53,54.144,50.705,50.579,50.516z"/>
		<path fill="none" d="M65.187,60.622c0-0.468-0.381-0.849-0.851-0.849c-0.469,0-0.851,0.381-0.851,0.849
			c0,0.246,0.105,0.467,0.272,0.622c0.151,0.143,0.354,0.229,0.578,0.229c0.186,0,0.357-0.061,0.497-0.161
			C65.047,61.157,65.187,60.905,65.187,60.622z"/>
		<path fill="none" d="M36.733,60.622c0-0.468-0.382-0.849-0.852-0.849c-0.469,0-0.85,0.381-0.85,0.849
			c0,0.208,0.075,0.397,0.198,0.546c0.156,0.187,0.391,0.306,0.651,0.306c0.145,0,0.279-0.036,0.398-0.099
			C36.549,61.231,36.733,60.948,36.733,60.622z"/>
		<path fill="none" d="M52.479,61.55c-0.219-0.181-0.625-0.333-0.886-0.453c-0.419-0.189-0.346-0.297-0.834-0.297
			c-1.814,0-2.76,1.479-2.76,3.291c0,0.001,0,0.001,0,0.003c0,0.202-0.585,0.398-0.55,0.592c-0.035,0.192-0.351,0.392-0.351,0.595
			c0-0.203-0.135-0.517-0.1-0.709C47.215,65.76,47.933,67,49.052,67c0.001,0-0.009,0-0.008,0c-0.08,1-0.171,0.815-0.262,1.183
			c-0.2,0.823-0.419,1.73-0.601,2.411c-0.237,0.896-0.254,1.277-0.254,1.277c0.023,0.117,0.079,0.501,0.152,0.573
			C48.307,72.67,48.69,73,48.69,73h0.761h0.617h0.612h0.751c0,0,0.435-0.418,0.596-0.594l0,0c0.007-0.01,0.015-0.156,0.021-0.164
			c0.012-0.017,0.429-0.101,0.438-0.118C52.555,72.022,53,71.841,53,71.688c0-0.01,0-0.02,0-0.03c0-0.159-0.447-0.528-0.525-0.825
			C52.281,70.111,51.711,70,51.47,68c0.001,0-0.046,0-0.046,0c-0.096-1-0.213-0.604-0.298-0.965c0-0.004,0.339,0.077,0.338,0.072
			C52.584,66.74,53,65.86,54,64.687C54,64.683,54,65,54,65h-0.638C53.398,65,54,64.286,54,64.079c0-0.001,0-0.001,0-0.002
			C54,63.06,53.208,62.15,52.479,61.55z M50.058,60.726c0.001,0,0.001,0,0.002,0c0.351,0,0.687,0.058,1.004,0.16
			C50.745,60.783,50.406,60.726,50.058,60.726z"/>
		<path fill="none" d="M73.759,56.149c-0.469,0-0.85,0.381-0.85,0.849c0,0.282,0.139,0.533,0.351,0.688
			c0.142,0.102,0.312,0.163,0.499,0.163c0.28,0,0.529-0.137,0.684-0.347c0.104-0.142,0.167-0.315,0.167-0.505
			C74.609,56.53,74.229,56.149,73.759,56.149z"/>
		<path fill="none" d="M31.176,64.971c0-0.468-0.381-0.849-0.851-0.849c-0.469,0-0.85,0.381-0.85,0.849
			c0,0.231,0.092,0.442,0.241,0.595c0.155,0.158,0.37,0.258,0.608,0.258c0.218,0,0.416-0.084,0.567-0.219
			C31.066,65.448,31.176,65.223,31.176,64.971z"/>
		<path fill="none" d="M26.958,57.687c0.213-0.155,0.352-0.406,0.352-0.688c0-0.468-0.381-0.849-0.85-0.849
			c-0.47,0-0.851,0.381-0.851,0.849c0,0.189,0.062,0.363,0.167,0.505c0.154,0.21,0.403,0.347,0.684,0.347
			C26.646,57.85,26.817,57.788,26.958,57.687z"/>
		<path fill="none" d="M69.205,18.381c-2.209-3.189-3.136-6.219-3.511-7.91L46.843,10.79l-12.504-0.294
			c-0.964,4.14-5.284,16.263-23.051,19.004c-0.433,3.211-1.389,13.333,1.653,24.751c4.889,18.347,17.261,31.211,36.775,38.238
			l0.287,0.072l0.348-0.078c19.505-7.027,31.871-19.891,36.759-38.23c3.041-11.418,2.085-21.54,1.654-24.75
			C77.828,27.814,72.103,22.562,69.205,18.381z M83.506,53.687c-4.507,16.467-15.59,28.19-32.942,34.848l-0.538,0.207l-0.54-0.207
			c-17.522-6.723-28.647-18.605-33.066-35.32c-2.077-7.854-2.182-14.95-1.902-19.521l0.067-1.104l1.074-0.265
			c9.915-2.453,15.352-7.808,18.169-11.867c1.144-1.651,2.105-3.435,2.853-5.3l0.389-0.969l9.761,0.23l16.144-0.275l0.385,0.965
			c0.749,1.877,1.713,3.674,2.866,5.339c2.812,4.062,8.247,9.419,18.156,11.877l1.075,0.265l0.065,1.105
			C85.801,38.434,85.68,45.75,83.506,53.687z"/>
		<path fill="none" d="M70.324,65.703c0.252-0.147,0.419-0.42,0.419-0.732c0-0.468-0.381-0.849-0.85-0.849
			c-0.47,0-0.851,0.381-0.851,0.849c0,0.15,0.039,0.291,0.106,0.413c0.146,0.262,0.424,0.439,0.744,0.439
			C70.052,65.823,70.198,65.779,70.324,65.703z"/>
	</g>
</g>
<g>
	<path fill="none" d="M50.406,53.726C47.937,53.604,45.774,55,45.007,58h0.562h9.139h0.49C54.551,55,52.688,53.848,50.406,53.726z"
		/>
	<path fill="none" d="M47.445,66.015c0.214,0.31,0.471,0.573,0.767,0.748C47.917,66.556,47.663,66.3,47.445,66.015z"/>
	<path fill="none" d="M49.017,67.176c-0.075,0.794-0.155,0.699-0.239,1.042c-0.201,0.823-0.417,1.821-0.598,2.503
		c-0.239,0.894-0.254,1.32-0.254,1.32c0.023,0.116,0.08,0.346,0.153,0.418C48.306,72.684,48.69,73,48.69,73h0.761h0.617h0.612h0.751
		c0,0,0.536-0.418,0.697-0.594c0.007-0.01,0.115-0.297,0.121-0.304c0.012-0.017,0.227-0.032,0.236-0.048
		c0.068-0.104-1.303,0.041-1.303-0.112c0-0.011,0.463-0.101,0.452-0.101c-1.239,0.009-0.07-0.629-0.15-0.928
		C51.292,70.195,51.616,70,51.376,68c0.001,0,0.003,0,0.003,0c-0.079,0-0.145-0.401-0.212-0.746
		c-0.304,0.086-0.618,0.146-0.949,0.146C49.794,67.4,49.393,67.313,49.017,67.176z"/>
	<path fill="none" d="M50.579,50.023c-0.063-0.003-0.347,0.027-0.412,0.027c-3.841,0-7.1,2.949-7.944,7.949h0.36h1.018
		c0.825-4,3.618-6.264,6.876-6.101c2.884,0.153,5.29,1.955,6.084,5.131c0.427-0.009,0.989-0.097,1.454-0.062
		C57.144,53.209,54.143,50.213,50.579,50.023z"/>
	<g>
		<path fill="#018B21" d="M91.562,27.889l-0.202-1.074l-1.086-0.139C70.261,24.119,68.516,9.418,68.452,8.799l-0.134-1.385
			L46.854,7.779L31.735,7.423l-0.135,1.393c-0.004,0.038-0.395,3.771-3.229,7.858c-3.848,5.551-10.104,8.916-18.595,9.998
			l-1.085,0.139l-0.204,1.076c-0.095,0.507-2.302,12.593,1.514,27.023C13.536,68.275,23.13,86.142,48.77,95.348l1.197,0.309
			l1.139-0.258l0.176-0.051c25.64-9.206,35.233-27.071,38.77-40.437C93.864,40.482,91.659,28.396,91.562,27.889z M87.11,54.253
			c-4.888,18.34-17.254,31.203-36.759,38.23l-0.348,0.078l-0.287-0.072C30.202,85.462,17.83,72.598,12.941,54.251
			c-3.042-11.418-2.086-21.54-1.653-24.751c17.767-2.741,22.087-14.864,23.051-19.004l12.504,0.294l18.852-0.319
			c0.375,1.691,1.302,4.721,3.511,7.91c2.897,4.182,8.623,9.434,19.56,11.122C89.195,32.713,90.151,42.835,87.11,54.253z"/>
		<path fill="#018B21" d="M85.455,32.588l-1.075-0.265c-9.909-2.458-15.344-7.814-18.156-11.877
			c-1.153-1.665-2.117-3.462-2.866-5.339l-0.385-0.965l-16.144,0.275l-9.761-0.23l-0.389,0.969c-0.747,1.865-1.709,3.648-2.853,5.3
			c-2.817,4.06-8.254,9.414-18.169,11.867l-1.074,0.265l-0.067,1.104c-0.279,4.571-0.175,11.668,1.902,19.521
			c4.419,16.715,15.544,28.598,33.066,35.32l0.54,0.207l0.538-0.207c17.353-6.657,28.436-18.381,32.942-34.848
			c2.174-7.937,2.295-15.253,2.015-19.993L85.455,32.588z M36.28,61.375c-0.119,0.062-0.254,0.099-0.398,0.099
			c-0.261,0-0.495-0.119-0.651-0.306c-0.123-0.148-0.198-0.338-0.198-0.546c0-0.468,0.381-0.849,0.85-0.849
			c0.47,0,0.852,0.381,0.852,0.849C36.733,60.948,36.549,61.231,36.28,61.375z M64.336,61.474c-0.224,0-0.427-0.087-0.578-0.229
			c-0.167-0.155-0.272-0.376-0.272-0.622c0-0.468,0.382-0.849,0.851-0.849c0.47,0,0.851,0.381,0.851,0.849
			c0,0.283-0.14,0.535-0.354,0.69C64.693,61.413,64.521,61.474,64.336,61.474z M82.054,53.288
			c-1.077,3.938-2.545,7.597-4.395,10.971c-0.091-0.015-0.186-0.012-0.28,0.021c-0.366,0.122-2.047,0.171-2.776,0.104
			c-0.044-0.951-0.101-3.547-0.14-5.709c0.654-0.275,1.113-0.923,1.113-1.676c0-1.001-0.815-1.815-1.817-1.815
			s-1.817,0.814-1.817,1.815c0,0.836,0.568,1.539,1.337,1.752c0.105,5.922,0.173,6.169,0.195,6.251
			c0.048,0.172,0.167,0.315,0.334,0.405c0.262,0.138,0.941,0.192,1.672,0.192c0.502,0,1.182-0.026,1.61-0.066
			C74.622,69.718,72,73.446,68,76.708v-5.132l2.468-0.188L70.4,66.736c0.795-0.194,1.35-0.911,1.35-1.766
			c0-1.001-0.836-1.815-1.838-1.815s-1.826,0.814-1.826,1.815c0,0.737,0.436,1.371,1.066,1.656l0.232,3.664L67,70.482v7.231
			c-1,0.445-1,0.882-2,1.307V62.36c1-0.229,1.219-0.921,1.219-1.738c0-1.001-0.849-1.814-1.852-1.814
			c-1.002,0-1.68,0.813-1.68,1.814c0,0.776,1.312,1.438,1.312,1.698V79.89c-3,2.858-8.348,5.275-13.471,7.24
			C45.383,85.154,41,82.724,37,79.847V62.391c1-0.188,1.051-0.908,1.051-1.769c0-1.001-0.991-1.814-1.993-1.814
			c-1,0-1.465,0.813-1.465,1.814c0,0.73,0.407,1.36,1.407,1.648v16.706c-1-0.46-1-0.929-2-1.41v-7.083l-2.851-0.186l-0.111-3.595
			c0.732-0.234,1.184-0.922,1.184-1.732c0-1.001-0.854-1.815-1.856-1.815s-1.837,0.814-1.837,1.815c0,0.784,0.489,1.45,1.185,1.706
			l0.339,4.706L33,71.573v4.978c-4-3.229-7.057-6.91-9.486-11.035c0.457,0.05,0.855,0.083,1.43,0.083c0.73,0,1.31-0.055,1.57-0.192
			c0.168-0.09,0.234-0.233,0.281-0.404c0.024-0.083,0.066-0.326,0.171-6.252c0.769-0.213,1.324-0.916,1.324-1.752
			c0-1.001-0.822-1.815-1.824-1.815s-1.819,0.814-1.819,1.815c0,0.753,0.457,1.4,1.11,1.676c-0.038,2.162-0.097,4.759-0.142,5.713
			c-0.729,0.066-2.409,0.016-2.776-0.106c-0.145-0.049-0.295-0.035-0.425,0.021c-1.932-3.517-3.447-7.343-4.539-11.473
			c-2.053-7.755-2.117-14.756-1.855-19.046c10.219-2.527,15.946-8.003,19.044-12.47c1.36-1.962,2.328-3.89,3.013-5.597l8.718,0.207
			l15.166-0.258c0.685,1.718,1.655,3.658,3.026,5.637c3.095,4.469,8.819,9.949,19.031,12.48
			C84.277,38.185,84.206,45.428,82.054,53.288z M74.442,57.503c-0.154,0.21-0.403,0.347-0.684,0.347
			c-0.187,0-0.357-0.062-0.499-0.163c-0.212-0.155-0.351-0.406-0.351-0.688c0-0.468,0.381-0.849,0.85-0.849
			c0.47,0,0.851,0.381,0.851,0.849C74.609,57.188,74.547,57.361,74.442,57.503z M69.894,65.823c-0.32,0-0.598-0.178-0.744-0.439
			c-0.067-0.122-0.106-0.263-0.106-0.413c0-0.468,0.381-0.849,0.851-0.849c0.469,0,0.85,0.381,0.85,0.849
			c0,0.312-0.167,0.585-0.419,0.732C70.198,65.779,70.052,65.823,69.894,65.823z M30.893,65.604
			c-0.151,0.135-0.35,0.219-0.567,0.219c-0.238,0-0.453-0.1-0.608-0.258c-0.149-0.152-0.241-0.363-0.241-0.595
			c0-0.468,0.381-0.849,0.85-0.849c0.47,0,0.851,0.381,0.851,0.849C31.176,65.223,31.066,65.448,30.893,65.604z M25.776,57.503
			c-0.104-0.142-0.167-0.315-0.167-0.505c0-0.468,0.381-0.849,0.851-0.849c0.469,0,0.85,0.381,0.85,0.849
			c0,0.282-0.139,0.533-0.352,0.688c-0.141,0.102-0.312,0.163-0.498,0.163C26.18,57.85,25.931,57.713,25.776,57.503z"/>
		<path fill="#018B21" d="M37.713,43.596c-0.112-0.412-0.223-0.811-0.322-1.163c1.171-1.037,2.982-2.692,3.487-3.29
			c0.075-0.091,0.155-0.188,0.229-0.293c0.225-0.313,0.396-0.68,0.263-1.053c-0.15-0.505-0.729-0.686-1.192-0.798
			c-0.758-0.185-3.198-0.454-4.754-0.604c-0.628-1.434-1.573-3.514-1.97-4.15c-0.25-0.406-0.599-0.9-1.127-0.887
			c-0.526-0.014-0.875,0.48-1.127,0.887c-0.394,0.637-1.341,2.717-1.968,4.15c-1.559,0.15-3.996,0.42-4.755,0.604
			c-0.464,0.112-1.042,0.293-1.192,0.798c-0.131,0.373,0.04,0.739,0.263,1.053c0.074,0.104,0.154,0.202,0.231,0.293
			c0.504,0.598,2.313,2.253,3.484,3.29c-0.1,0.353-0.21,0.751-0.322,1.163c-0.366,1.352-0.751,2.859-0.829,3.45
			c-0.045,0.343-0.078,0.754,0.064,1.077c0.055,0.123,0.134,0.232,0.248,0.322c0.399,0.345,0.981,0.184,1.433,0.028
			c0.766-0.261,3.091-1.417,4.47-2.128c1.38,0.711,3.707,1.867,4.473,2.128c0.449,0.155,1.033,0.316,1.433-0.028
			c0.114-0.09,0.193-0.199,0.247-0.322c0.145-0.323,0.11-0.734,0.064-1.077C38.465,46.455,38.081,44.947,37.713,43.596z"/>
		<path fill="#018B21" d="M75.575,36.999c-0.76-0.185-3.198-0.456-4.754-0.603c-0.628-1.436-1.574-3.516-1.97-4.152
			c-0.25-0.406-0.601-0.9-1.127-0.887c-0.526-0.014-0.876,0.48-1.127,0.887c-0.396,0.637-1.342,2.717-1.97,4.152
			c-1.557,0.146-3.994,0.418-4.754,0.603c-0.464,0.112-1.041,0.292-1.191,0.798c-0.132,0.373,0.038,0.739,0.262,1.053
			c0.074,0.104,0.153,0.202,0.23,0.293c0.506,0.598,2.314,2.252,3.485,3.29c-0.1,0.353-0.21,0.751-0.321,1.163
			c-0.367,1.352-0.751,2.859-0.828,3.45c-0.047,0.343-0.081,0.755,0.063,1.079c0.055,0.121,0.133,0.23,0.247,0.32
			c0.398,0.345,0.982,0.184,1.434,0.028c0.765-0.263,3.092-1.417,4.47-2.128c1.379,0.711,3.706,1.865,4.471,2.128
			c0.45,0.155,1.035,0.316,1.433-0.028c0.114-0.09,0.192-0.199,0.248-0.323c0.144-0.322,0.109-0.733,0.064-1.076
			c-0.078-0.591-0.463-2.099-0.83-3.45c-0.112-0.412-0.223-0.811-0.322-1.163c1.171-1.038,2.981-2.692,3.485-3.29
			c0.077-0.091,0.157-0.188,0.23-0.293c0.225-0.313,0.396-0.68,0.263-1.053C76.616,37.291,76.037,37.111,75.575,36.999z"/>
		<path fill="#018B21" d="M41.646,27.572c0.505,0.596,2.313,2.251,3.485,3.289c-0.1,0.353-0.21,0.75-0.322,1.162
			c-0.367,1.353-0.751,2.862-0.828,3.452c-0.046,0.342-0.081,0.754,0.063,1.077c0.054,0.123,0.133,0.232,0.247,0.32
			c0.398,0.346,0.982,0.184,1.434,0.029c0.765-0.262,3.091-1.416,4.47-2.129c1.379,0.713,3.707,1.867,4.471,2.129
			c0.45,0.154,1.034,0.316,1.434-0.029c0.114-0.088,0.192-0.197,0.248-0.32c0.144-0.323,0.109-0.735,0.064-1.077
			c-0.078-0.59-0.463-2.1-0.831-3.452c-0.112-0.412-0.223-0.81-0.322-1.162c1.172-1.038,2.98-2.693,3.486-3.289
			c0.077-0.09,0.156-0.189,0.23-0.293c0.223-0.314,0.394-0.681,0.262-1.053c-0.15-0.506-0.728-0.686-1.191-0.799
			c-0.759-0.185-3.198-0.454-4.754-0.602c-0.628-1.437-1.574-3.518-1.97-4.154c-0.25-0.404-0.6-0.899-1.127-0.885
			c-0.526-0.015-0.877,0.48-1.127,0.885c-0.396,0.637-1.342,2.718-1.97,4.154c-1.556,0.147-3.994,0.417-4.754,0.602
			c-0.463,0.113-1.043,0.293-1.191,0.799c-0.133,0.371,0.038,0.738,0.263,1.053C41.489,27.383,41.568,27.482,41.646,27.572z"/>
		<path fill="#018B21" d="M50.058,60.726c0.349,0,0.688,0.058,1.006,0.16c-0.317-0.103-0.653-0.16-1.004-0.16
			C50.059,60.726,50.059,60.726,50.058,60.726z"/>
		<path fill="#018B21" d="M60,57h-0.164c-0.035-0.015-0.071-0.032-0.104-0.045c0.002,0.011-0.116,0.021-0.114,0.031
			c-0.057-0.021-0.175-0.041-0.234-0.061c-0.789-4.52-4.337-7.609-8.736-7.841c-4.457-0.241-8.334,3.372-9.571,7.915H41
			c-0.552,0-1,0.447-1,1c0,0.035,0.017,0.065,0.02,0.101C40.016,58.148,40,58.188,40,58.239v1.208v14.64
			C40,74.849,40.429,76,41.19,76h17.672C59.623,76,61,74.849,61,74.087v-14.64v-1.208c0-0.046-0.012-0.091-0.021-0.136
			C60.983,58.068,61,58.037,61,58C61,57.447,60.553,57,60,57z M50.167,50.051c0.064,0,0.348-0.03,0.412-0.027
			c3.563,0.189,6.564,3.186,7.437,6.945c-0.316-0.023-0.664,0.005-0.997,0.031h-0.467c-0.802-3.156-3.2-4.947-6.074-5.101
			c-2.974-0.148-5.556,1.729-6.611,5.101h-1.433C43.521,52.61,46.591,50.051,50.167,50.051z M45.341,57
			c0.955-2.308,2.889-3.381,5.065-3.274c2.008,0.107,3.688,1.016,4.505,3.274H45.341z"/>
	</g>
</g>
<path fill="#91EA9A" d="M53.719,63.898c0-1.934-1.567-3.501-3.501-3.501c-1.934,0-3.501,1.567-3.501,3.501
	c0,0.287,0.044,0.562,0.109,0.829c0.007-0.053,0.011-0.109,0.02-0.156c0.027,0.152,0.066,0.305,0.113,0.455
	c0.111,0.354,0.279,0.69,0.486,0.988c0.218,0.285,0.473,0.541,0.767,0.748c0.222,0.131,0.466,0.205,0.724,0.223
	c-0.125,0.683-1.04,5.233-1.04,5.233s-0.301,1.079,2.058,0.929l2.61-0.126c0,0,0.683,0.309-1.294-5.806
	C52.685,66.767,53.719,65.462,53.719,63.898z"/>
</svg>
