<?xml version="1.0" encoding="utf-8"?>
<!-- Generator: Adobe Illustrator 16.0.0, SVG Export Plug-In . SVG Version: 6.00 Build 0)  -->
<!DOCTYPE svg PUBLIC "-//W3C//DTD SVG 1.1//EN" "http://www.w3.org/Graphics/SVG/1.1/DTD/svg11.dtd">
<svg version="1.1" id="Layer_1" xmlns="http://www.w3.org/2000/svg" xmlns:xlink="http://www.w3.org/1999/xlink" x="0px" y="0px"
	 width="100px" height="100px" viewBox="0 0 100 100" enable-background="new 0 0 100 100" xml:space="preserve">
<g>
	<path fill="#FFE47B" d="M100,12.146C100,4.874,94.133,0,86.904,0H13.079C5.852,0,0,4.874,0,12.146v73.666
		C0,93.084,5.852,100,13.079,100h73.825C94.133,100,100,93.084,100,85.812V12.146z"/>
	<g>
		<path fill="#DD6C01" d="M42.982,39.041c0.646,0.696,1.7,0.835,2.675,0.447c0.205-0.066,0.396-0.164,0.572-0.293
			c0.166-0.107,0.327-0.23,0.479-0.371l0.062-0.056c0.089-0.083,0.17-0.169,0.247-0.257l22.319-20.703
			c0.979-0.871,6.873-6.916,5.815-8.105l-0.055-0.061c-1.057-1.189-8.329,4.508-9.309,5.377L44.932,32.549l-8.202-7.813
			c-0.891-0.962-4.807-4.321-5.973-3.239l-0.062,0.057c-1.166,1.081,2.524,5.685,3.415,6.646L42.982,39.041z"/>
		<path fill="#DD6C01" d="M28.018,55l0.004-0.051l0.3-1.146c-1.722-0.509-3.59-1.063-5.303-1.544l-4.585,15.679l5.682,1.619
			L28.021,55H28.018z"/>
		<path fill="#DD6C01" d="M5,47.607v16.729l2.036,0.652l4.629-15.5C9.237,48.781,7,48.07,5,47.607z"/>
		<path fill="#DD6C01" d="M88.421,54.312l-0.216-0.305c-0.309-1.103-1.399-1.873-2.561-1.873c-0.242,0-0.517,0.033-0.751,0.099
			l-5.704,1.59c-1.391,0.389-2.217,1.816-1.836,3.185l0.262,0.947c-0.757,0.206-1.498,0.431-2.188,0.666l-0.327,0.111l-0.08,0.335
			c-0.438,1.807-1.39,3.402-2.684,4.49c-0.636,0.536-1.41,0.915-2.3,1.126l-0.054,0.013l-0.051,0.022
			c-1.358,0.591-3.126,0.56-5.059-0.076c-0.404-0.133-0.792-0.292-1.164-0.469l-0.38,0.514l-0.378,0.511
			c0.485,0.246,0.998,0.459,1.53,0.635c2.209,0.726,4.263,0.749,5.898,0.057c1.059-0.259,1.989-0.721,2.764-1.374
			c1.414-1.189,2.472-2.89,3.006-4.816c0.574-0.19,1.181-0.371,1.796-0.539l3.626,12.974c-1.7,0.656-3.707,1.229-5.853,1.725
			l0.438,0.291c0.087,0.057,0.167,0.12,0.244,0.187c0.181,0.156,0.333,0.336,0.456,0.532c1.826-0.451,3.544-0.964,5.057-1.541
			c0.357,1.017,1.34,1.715,2.445,1.715c0.241,0,0.483-0.034,0.717-0.1l5.688-1.589c1.391-0.389,2.212-1.818,1.829-3.184l0.102-0.558
			C93.041,69.504,94,69.395,94,69.285V68.63v-0.657c0,0.147-1.193,0.292-1.643,0.431l-3.471-12.885L94,53.958v-0.657v-0.656
			L88.421,54.312z M90.994,68.746l0.169,0.604l0.169,0.604l0.146,0.526c0.21,0.753-0.25,1.541-1.025,1.758l-5.688,1.59
			c-0.133,0.037-0.27,0.057-0.406,0.057c-0.633,0-1.191-0.407-1.372-0.994c-0.004-0.012-0.008-0.022-0.011-0.034l-0.16-0.568
			l-0.166-0.6L79.473,60.32l-0.404-1.449l-0.169-0.602l-0.168-0.604l-0.104-0.368l-0.168-0.603c-0.211-0.753,0.25-1.542,1.026-1.759
			l5.687-1.589c0.134-0.038,0.271-0.057,0.405-0.057c0.646,0,1.214,0.423,1.385,1.027l0.094,0.34l0.17,0.604l0.168,0.603
			L90.994,68.746z"/>
		<path fill="#DD6C01" d="M21.812,51.913l0.004-0.014l0.107-0.299c0.029-0.1,0.077-0.198,0.077-0.298c0-0.004,0-0.008,0-0.013
			c0-0.224-0.033-0.448-0.111-0.66c-0.024-0.074-0.066-0.146-0.104-0.217c-0.201-0.364-0.537-0.63-0.936-0.746l-6.075-1.776
			c-0.143-0.041-0.292-0.062-0.438-0.062c-0.576,0-1.101,0.324-1.368,0.819c-0.053,0.095-0.096,0.196-0.127,0.302l-0.086,0.288
			l-0.176,0.603L8.047,65.342l-0.176,0.601l-0.176,0.602l-0.012,0.038c-0.116,0.4-0.07,0.821,0.129,1.186
			c0.201,0.367,0.53,0.632,0.931,0.748l6.071,1.775c0.144,0.042,0.291,0.063,0.439,0.063c0.687,0,1.302-0.461,1.495-1.122
			l0.009-0.034l0.117-0.399l0.06-0.201l0.116-0.4l0.06-0.201l0.116-0.399l4.413-15.096L21.812,51.913z"/>
		<path fill="#DD6C01" d="M61.145,67.641l-1.209,1.634l1.351,0.822c0.037-0.069,0.078-0.139,0.122-0.204l0.986-1.489L61.145,67.641z
			"/>
		<path fill="#DD6C01" d="M69.353,79.089l-2.999-1.985c-0.006,0.453-0.14,0.896-0.396,1.281l-1.141,1.722
			c-0.274,0.416-0.667,0.728-1.116,0.904l3.043,2.015c0.22,0.145,0.473,0.222,0.733,0.222c0.447,0,0.862-0.223,1.108-0.596
			l1.141-1.721C70.13,80.319,69.963,79.493,69.353,79.089z"/>
		<path fill="#DD6C01" d="M55.339,75.491l-0.376,0.51c0.032,0.031,0.067,0.062,0.103,0.091c0.036-0.002,0.072-0.003,0.108-0.003
			c0.092,0,0.183,0.006,0.271,0.017c-0.059-0.196-0.091-0.401-0.099-0.606c0-0.006-0.001-0.012-0.001-0.018L55.339,75.491z"/>
		<path fill="#DD6C01" d="M63.935,79.521l1.14-1.723c0.17-0.256,0.244-0.556,0.214-0.858c-0.004-0.046-0.011-0.093-0.02-0.139
			c-0.035-0.172-0.103-0.332-0.196-0.474c-0.037-0.055-0.079-0.106-0.124-0.155c-0.073-0.08-0.154-0.152-0.248-0.214l-0.277-0.184
			l-1.188-0.787L62.647,74.6l-3.043-2.016c-0.219-0.145-0.472-0.221-0.732-0.221c-0.302,0-0.586,0.103-0.815,0.282
			c-0.112,0.087-0.213,0.191-0.293,0.313l-0.115,0.172l-0.346,0.522l-0.68,1.026c-0.162,0.244-0.23,0.523-0.218,0.797
			c0.021,0.408,0.226,0.803,0.593,1.045l0.03,0.021l0.846,0.559l0.061,0.041l0.782,0.52l0.975,0.645l0.304,0.201l0.562,0.372
			l0.845,0.56l0.691,0.458c0.219,0.144,0.472,0.221,0.731,0.221C63.273,80.117,63.688,79.895,63.935,79.521z"/>
		<path fill="#DD6C01" d="M75.713,75.141c-0.045-0.039-0.09-0.076-0.141-0.109l-0.566-0.376l-0.726-0.479l-2.267-1.501
			c0.043,0.53-0.089,1.057-0.388,1.507l-0.383,0.58l-0.476,0.718l-0.28,0.424c-0.073,0.109-0.154,0.212-0.244,0.308
			c-0.195,0.21-0.424,0.381-0.676,0.508l3.397,2.249c0.219,0.146,0.473,0.222,0.733,0.222c0.447,0,0.862-0.223,1.108-0.596
			l1.14-1.721C76.317,76.312,76.206,75.571,75.713,75.141z"/>
		<path fill="#DD6C01" d="M62.098,71.475c0.062,0.301,0.22,0.564,0.452,0.756c0.036,0.031,0.076,0.061,0.116,0.088l3.559,2.355
			l0.621,0.411l0.459,0.305l0.457,0.302c0.146,0.097,0.307,0.162,0.475,0.195c0.033,0.007,0.065,0.012,0.099,0.017
			c0.053,0.006,0.105,0.01,0.159,0.01c0.228,0,0.447-0.059,0.641-0.165c0.186-0.102,0.348-0.247,0.468-0.43l0.208-0.313l0.933-1.408
			c0.195-0.296,0.265-0.65,0.194-0.998c-0.071-0.348-0.273-0.648-0.568-0.844l-0.467-0.309l-0.695-0.461l-0.537-0.354l-3.396-2.25
			c-0.219-0.145-0.472-0.221-0.732-0.221c-0.046,0-0.09,0.004-0.134,0.008c-0.264,0.027-0.51,0.13-0.71,0.296
			c-0.101,0.083-0.191,0.179-0.266,0.291l-0.133,0.2l-1.007,1.522c-0.037,0.056-0.068,0.114-0.097,0.174
			c-0.097,0.207-0.137,0.434-0.119,0.662C62.08,71.366,62.086,71.421,62.098,71.475z"/>
	</g>
	<path fill="#DD6C01" d="M73.355,57.131c-0.943-4.371-5.124-7.201-8.465-8.806l-0.038-0.019l-12.591-4.036
		c-0.149-0.071-0.484-0.198-0.97-0.198c-0.864,0-1.964,0.376-3.217,1.648c-0.143,0.145-0.286,0.301-0.433,0.47
		c-0.128,0.147-0.257,0.304-0.388,0.47c-0.006-0.003-0.01-0.006-0.017-0.009c-0.005,0.006-0.011,0.014-0.016,0.021
		c-0.298-0.15-0.952-0.402-2.021-0.402c-2.321,0-6.247,1.131-12.321,6.044c3.521-0.469,7.893-0.591,11.463-0.593
		c-0.141,0.346-0.33,0.811-0.476,1.173l-0.044,0.082c-3.187,0.013-7.911,0.137-11.5,0.684c-0.46,0.069-0.899,0.146-1.315,0.231
		c-0.021,0.004-0.041,0.008-0.062,0.013c-0.434,0.089-0.839,0.187-1.213,0.293c-0.006,0.002-0.013,0.004-0.021,0.006
		c-0.075,0.022-0.152,0.043-0.226,0.066l-0.05,0.185l-0.137,0.508l-0.166,0.626l-3.813,14.255l-0.104,0.393
		c0.054,0.077,0.121,0.173,0.203,0.285c0.155,0.214,0.36,0.491,0.612,0.819c0.401,0.524,0.923,1.181,1.558,1.931l-0.398,0.51
		l-0.394,0.504l-1.553,1.993c-0.809,1.039-0.623,2.543,0.415,3.354l1.629,1.269c0.424,0.33,0.931,0.505,1.466,0.505
		c0.401,0,0.786-0.099,1.126-0.28c0.145,0.424,0.409,0.812,0.788,1.106l1.628,1.27c0.425,0.33,0.932,0.504,1.469,0.504
		c0.74,0,1.428-0.335,1.884-0.919l0.218-0.28l0.321-0.412c0.112,0.428,0.337,0.814,0.658,1.12c0.059,0.055,0.119,0.107,0.182,0.156
		l1.628,1.27c0.337,0.263,0.727,0.426,1.143,0.481c0.107,0.016,0.215,0.023,0.325,0.023c0.262,0,0.517-0.043,0.759-0.122
		c0.238-0.079,0.463-0.195,0.665-0.347c0.194,0.105,0.389,0.212,0.586,0.314l1.602-0.501c0.12,0.157,0.259,0.302,0.421,0.429
		l0.089,0.069l0.602,0.468l0.938,0.731c0.423,0.331,0.931,0.505,1.467,0.505c0.609,0,1.181-0.226,1.618-0.63
		c0.096-0.089,0.186-0.186,0.267-0.29l0.088-0.112l0.326-0.419l3.291,2.179c0.219,0.146,0.472,0.222,0.731,0.222
		c0.447,0,0.863-0.223,1.109-0.596l1.141-1.721c0.269-0.406,0.283-0.908,0.084-1.317c-0.102-0.206-0.255-0.389-0.458-0.524
		l-1.304-0.863l-1.209-0.8l-0.474-0.314l0.239-0.306l0.087-0.113l0.052-0.065l0.054-0.068c0.047-0.062,0.091-0.123,0.131-0.186
		c0.024-0.038,0.044-0.077,0.066-0.115l2.748,1.819l0.193,0.128c0.271,0.18,0.494,0.406,0.664,0.661l1.696,1.123
		c0.22,0.145,0.473,0.222,0.732,0.222c0.447,0,0.862-0.223,1.109-0.596l1.14-1.723c0.404-0.61,0.235-1.436-0.374-1.84l-4.387-2.905
		l-0.709-0.47c-0.054-0.035-0.109-0.066-0.168-0.094c-0.176-0.083-0.368-0.127-0.564-0.127c-0.13,0-0.257,0.021-0.378,0.057
		c-0.124,0.037-0.24,0.091-0.35,0.161c-0.09,0.06-0.173,0.129-0.247,0.209c-0.048,0.053-0.095,0.107-0.136,0.169l-0.188,0.285
		l-0.039,0.059l-0.581,0.878c-0.051-0.141-0.113-0.274-0.188-0.402c-0.028-0.047-0.058-0.093-0.089-0.14
		c-0.092-0.132-0.196-0.256-0.314-0.368c-0.016-0.015-0.032-0.028-0.049-0.043c-0.027-0.025-0.059-0.051-0.088-0.075
		c-0.016-0.014-0.03-0.028-0.047-0.041l-0.304-0.235l0.287-0.387l0.546-0.739l0.678-0.918l0.617-0.834l0.328-0.444l0.327-0.44
		l0.619-0.838l0.042-0.057l0.656-0.888l2.046-2.767l0.44-0.597l1.516-2.049l0.439-0.597l1.146-1.547l0.23-0.312
		c-0.119-0.083-0.236-0.166-0.351-0.249c-0.321-0.229-0.624-0.448-0.973-0.614c-0.515-0.242-1.034-0.52-1.566-0.831
		c-0.328-0.193-0.661-0.4-1-0.621c-0.184-0.119-0.369-0.243-0.557-0.371c-0.182-0.126-0.365-0.256-0.552-0.389
		c-0.094-0.067-0.188-0.134-0.281-0.203c-1.568-1.15-3.563-2.688-5.396-4.318c-0.036-0.031-0.071-0.062-0.106-0.094l0.37-0.511
		l0.117-0.161l0.252-0.349l0.09-0.124l0.333,0.268l0.588,0.473l2.303,1.852c0.186,0.187,1.124,1.108,2.521,2.193
		c0.089,0.068,0.178,0.138,0.271,0.207c0.181,0.138,0.367,0.276,0.562,0.416c0.304,0.219,0.623,0.441,0.956,0.661
		c0.205,0.137,0.417,0.271,0.633,0.404c0.785,0.487,1.632,0.813,2.513,1.203c1.501,0.664,3.104,0.981,4.685,0.981c0,0,0,0,0.001,0
		c2.106,0,3.911-0.646,5.367-2.231l0.062,0.021l0.041-0.049C73.016,61.731,73.934,59.805,73.355,57.131z M41.97,59.117l0.357-0.673
		l0.388-0.725l1.294-2.43c0.06,0.009,0.12,0.009,0.183-0.002c0.012-0.002,0.467-0.069,1.121,0.024
		c0.694,0.099,1.614,0.382,2.469,1.122c0.135,0.115,0.267,0.244,0.397,0.384c0.038,0.043,0.077,0.088,0.117,0.133
		c0.139,0.16,0.274,0.335,0.404,0.526c0.065,0.096,0.128,0.194,0.19,0.297l-0.803,1.105l-0.026,0.041
		c-1.482,2.415-3.013,3.64-4.549,3.64c-1.254,0-2.243-0.839-2.688-1.297L41.97,59.117z M30.647,78.373l-0.393,0.504
		c-0.226,0.288-0.371,0.614-0.445,0.949l-0.004,0.005c-0.254,0.325-0.636,0.513-1.05,0.513c-0.297,0-0.578-0.098-0.814-0.281
		l-1.629-1.269c-0.577-0.451-0.681-1.288-0.23-1.866l1.426-1.829l0.392-0.502l0.398-0.51l1.358-1.744l0.184-0.234
		c0.086-0.11,0.188-0.204,0.301-0.281c0.217-0.147,0.476-0.23,0.748-0.23c0.299,0,0.581,0.179,0.816,0.362l0.732,0.654h0.001
		l0.894,0.616c0.281,0.218,0.459,0.49,0.502,0.843c0.011,0.081,0.012,0.144,0.008,0.224l-2.415,3.088l-0.393,0.498L30.647,78.373z
		 M35.794,81.175l-0.389,0.498l-0.382,0.491l-0.209,0.269c-0.255,0.324-0.637,0.511-1.048,0.511c-0.299,0-0.581-0.097-0.817-0.28
		l-1.628-1.27c-0.357-0.279-0.534-0.708-0.508-1.13c0.016-0.259,0.105-0.516,0.276-0.735l0.331-0.425l0.386-0.493l0.468-0.502
		L35,74.711v-0.002c1-0.325,0.561-0.513,0.974-0.513c0.298,0,0.542,0.098,0.778,0.281l1.608,1.27
		c0.279,0.219,0.448,0.533,0.491,0.885c0.044,0.352-0.057,0.7-0.275,0.98L35.794,81.175z M41.175,83.871
		c-0.188,0.24-0.444,0.403-0.732,0.474c-0.103,0.024-0.209,0.038-0.317,0.038c-0.298,0-0.579-0.098-0.815-0.281l-1.628-1.27
		c-0.191-0.148-0.334-0.342-0.42-0.562c-0.007-0.005-0.015-0.012-0.023-0.017c-0.035-0.098-0.054-0.2-0.067-0.305
		c-0.044-0.352,0.058-0.7,0.274-0.98l3.76-4.82c0.254-0.324,0.637-0.512,1.051-0.512c0.298,0,0.581,0.098,0.816,0.281l1.628,1.27
		c0.578,0.45,0.682,1.287,0.231,1.864L41.175,83.871z M51.46,78.445l0.087,0.068l0.282,0.219c0.07,0.056,0.135,0.117,0.191,0.184
		c0.002,0.001,0.002,0.003,0.004,0.005c0.014,0.015,0.025,0.032,0.038,0.048c0.114,0.148,0.197,0.318,0.241,0.503
		c0.002,0.01,0.005,0.02,0.007,0.027c0.005,0.024,0.008,0.048,0.013,0.071c0.002,0.017,0.006,0.031,0.008,0.048
		c0.025,0.21,0,0.419-0.07,0.613c-0.016,0.044-0.033,0.088-0.055,0.131c-0.006,0.013-0.014,0.026-0.02,0.039
		c-0.037,0.068-0.079,0.135-0.127,0.196l-0.13,0.166l-0.025,0.033l-0.131,0.167l-0.196,0.252l-0.038,0.049l-0.387,0.498
		l-0.388,0.497l-1.253,1.605l-0.388,0.498l-0.388,0.497l-0.07,0.091l-0.327,0.419l-0.037,0.048
		c-0.103,0.131-0.227,0.239-0.365,0.322c-0.203,0.121-0.438,0.189-0.684,0.189c-0.298,0-0.579-0.098-0.814-0.281l-0.361-0.28
		l-0.601-0.469l-0.601-0.468L44.81,84.38c-0.578-0.45-0.682-1.287-0.23-1.866l3.756-4.818c0.255-0.325,0.638-0.513,1.05-0.513
		c0.298,0,0.581,0.098,0.816,0.281l0.728,0.566L51.46,78.445z M52.808,50.553c-0.091,0.888-0.312,1.85-0.77,2.768
		c-0.182,0.248-0.29,0.495-0.439,0.744l-0.08,0.106c0,0.002,0.006,0.003,0.011,0.005c-0.003,0.006-0.007,0.01-0.01,0.015
		l-0.018-0.012c0.001-0.003,0.002-0.005,0.004-0.008l-0.374,0.516l-0.371,0.512l-0.312,0.428l-0.06,0.083l-0.563,0.777l-0.148,0.203
		c-0.03-0.043-0.06-0.088-0.091-0.13c-0.143-0.194-0.288-0.374-0.438-0.54c-1.55-1.727-3.449-2.003-4.456-2.011l0.371-0.698
		l0.026-0.058c0.039-0.093,0.077-0.185,0.114-0.275c0.091-0.214,0.179-0.423,0.268-0.627c0.094-0.213,0.187-0.422,0.279-0.623
		c0.916-2.004,1.768-3.388,2.523-4.343c0.136-0.173,0.271-0.332,0.4-0.478c0.152-0.169,0.3-0.321,0.44-0.456
		c0.995-0.951,1.755-1.127,2.176-1.127c0.132,0,0.235,0.019,0.307,0.037c-0.06-0.104-0.095-0.16-0.099-0.166l0.046-0.029
		c0.003,0.004,0.007,0.007,0.012,0.011l-0.031,0.019c0.003,0.006,0.013,0.062,0.072,0.166c0.015,0.004,0.027,0.007,0.038,0.01
		c0.096,0.172,0.209,0.46,0.438,0.846c0.232,0.678,0.671,1.648,0.79,2.784L53,49.045c0,0.004,0,0.011,0,0.018l-0.162-0.062
		c0.027,0.259,0.006,0.524,0.011,0.798c0.002,0.241-0.026,0.486-0.047,0.737L52.808,50.553z M61.043,60.258
		c-0.156,0.124-0.317,0.246-0.482,0.366c-0.191-0.125-0.378-0.251-0.561-0.378c-0.213-0.147-0.421-0.295-0.622-0.441
		c-1.861-1.366-3.118-2.632-3.146-2.659l-1.748-1.423l-0.583-0.475l-0.598-0.486l-0.461-0.375c0.557-0.956,0.924-1.977,1.101-3.04
		c0.039-0.229,0.068-0.461,0.088-0.693c0.022-0.246,0.031-0.493,0.032-0.741c0.005-0.711-0.07-1.434-0.23-2.164
		c-0.156-0.711-0.371-1.336-0.579-1.84l11.133,3.57c0.061,0.029,0.119,0.059,0.179,0.089c0.04,0.102,0.117,0.312,0.2,0.611
		c0.184,0.666,0.396,1.773,0.295,3.104c-0.154,2.033-0.965,3.868-2.419,5.485c-0.309,0.344-0.646,0.677-1.012,1
		C61.441,59.934,61.245,60.098,61.043,60.258z M71.878,61.25c-0.609,0.648-1.276,1.133-2.01,1.455
		c-0.437,0.191-0.896,0.399-1.382,0.476c-0.315,0.049-0.643,0.148-0.98,0.148h-0.001c-1.953,0-3.997-0.893-5.798-1.927
		c0.19-0.147,0.372-0.335,0.549-0.485c0.161-0.139,0.318-0.297,0.469-0.437c0.158-0.146,0.307-0.305,0.453-0.453
		c0.023-0.024,0.049-0.054,0.073-0.08c0.233-0.243,0.448-0.488,0.649-0.732c0.193-0.237,0.375-0.477,0.542-0.714
		c1.306-1.862,1.759-3.693,1.867-5.123c0.091-1.188-0.039-2.222-0.203-2.986c3.353,1.955,5.418,4.335,6.008,6.943
		C72.567,59.333,72.021,60.896,71.878,61.25z"/>
</g>
<circle fill="#DD6C01" cx="81.483" cy="57.609" r="1.819"/>
<circle fill="#DD6C01" cx="85.483" cy="70.609" r="1.819"/>
<circle fill="#FFE47B" cx="23.483" cy="60.609" r="1.819"/>
</svg>
