<svg id="Capa_1" data-name="Capa 1" xmlns="http://www.w3.org/2000/svg" viewBox="0 0 18.66 29.68"><defs><style>.cls-1{fill:#c55fcc;}.cls-2{fill:#fff;}</style></defs><path class="cls-1" d="M18,7.88A9.1,9.1,0,0,0,10.89.54a9.42,9.42,0,0,0-3.12,0A9.1,9.1,0,0,0,.66,7.88a12.92,12.92,0,0,0,1.19,8.25C2.68,18,7.47,27.51,9.07,28.93c0,.12.11.19.19.18l.07,0,.07,0c.08,0,.15-.06.19-.18C11.19,27.51,16,18,16.81,16.13A12.92,12.92,0,0,0,18,7.88Z"/><path d="M9.23,29.52a.57.57,0,0,1-.5-.35C7,27.49,2.24,18,1.48,16.29A13.54,13.54,0,0,1,.26,7.79C1.18,3.69,4,.84,7.7.14v0A7.63,7.63,0,0,1,9.33,0,7.53,7.53,0,0,1,11,.16v0c3.74.7,6.52,3.55,7.44,7.65a13.54,13.54,0,0,1-1.22,8.5c-.76,1.71-5.5,11.2-7.25,12.88a.58.58,0,0,1-.55.35H9.23ZM8,.92l-.12,0C4.44,1.57,1.9,4.2,1.05,8,.5,10.43.86,12.9,2.22,16c.9,2,5.62,11.33,7.11,12.66C10.82,27.29,15.54,18,16.44,16c1.36-3.06,1.72-5.53,1.17-8h0c-.85-3.77-3.39-6.4-6.8-7l-.12,0A8.46,8.46,0,0,0,8,.92Z"/><path d="M12.58,14H6.19c-2.13,0-3.07-1.75-3.07-3.88h0c0-2.13.94-3.88,3.07-3.88h6.39c2.14,0,3.07,1.75,3.07,3.88h0C15.65,12.27,14.72,14,12.58,14Z"/><rect class="cls-2" x="5.02" y="7.73" width="2.16" height="2.34" rx="1.02"/><rect class="cls-2" x="11.25" y="7.73" width="2.16" height="2.34" rx="1.02"/><path class="cls-2" d="M9.24,12.67A3.57,3.57,0,0,1,7,11.87a.4.4,0,0,1,0-.57.41.41,0,0,1,.57-.05,2.76,2.76,0,0,0,3.49,0,.39.39,0,0,1,.56.08.4.4,0,0,1-.08.57A3.7,3.7,0,0,1,9.24,12.67Z"/></svg>