<?xml version="1.0" encoding="utf-8"?>
<!-- Generator: Adobe Illustrator 16.0.0, SVG Export Plug-In . SVG Version: 6.00 Build 0)  -->
<!DOCTYPE svg PUBLIC "-//W3C//DTD SVG 1.1//EN" "http://www.w3.org/Graphics/SVG/1.1/DTD/svg11.dtd">
<svg version="1.1" id="Layer_1" xmlns="http://www.w3.org/2000/svg" xmlns:xlink="http://www.w3.org/1999/xlink" x="0px" y="0px"
	 width="100px" height="100px" viewBox="0 0 100 100" enable-background="new 0 0 100 100" xml:space="preserve">
<path fill="#FF9FB3" d="M100,12.785C100,5.444,93.838,0,86.466,0H13.645C6.271,0,0,5.444,0,12.785v72.938
	C0,93.064,6.271,100,13.645,100h72.821C93.838,100,100,93.064,100,85.723V12.785z"/>
<g>
	<path fill="#CF2B00" d="M17,30.843v-0.246C17,30.643,16.997,30.737,17,30.843z"/>
	<path fill="#CF2B00" d="M83.416,16H59.137H52.83h-1.967C50.387,16,50,16.387,50,16.863v0.273C50,17.613,50.387,18,50.863,18H54
		h5.137h24.279C85.821,18,89,18.849,89,21.314v33.497C89,57.294,85.782,60,83.416,60h-7.754l-5.83,4.802L71.482,60H22.285
		C19.841,60,19,57.172,19,54.812V33v-1v-1c0-0.553-0.447-1-1-1c-0.538,0-0.968,0.426-0.991,0.958
		c-0.005-0.04-0.008-0.077-0.009-0.115V31v2v21.812C17,58.559,18.452,62,22.285,62H68.06l-3.349,9.739L76.538,62h6.878
		C87.113,62,91,58.623,91,54.812V21.314C91,17.496,87.175,16,83.416,16z"/>
	<path fill="#CF2B00" d="M80.554,33H26.932c-0.451,0-0.814,0.551-0.814,1s0.363,1,0.814,1h53.622c0.449,0,0.814-0.551,0.814-1
		S81.003,33,80.554,33z"/>
	<path fill="#CF2B00" d="M81.368,42c0-0.449-0.365-1-0.814-1H26.932c-0.451,0-0.814,0.551-0.814,1s0.363,1,0.814,1h53.622
		C81.003,43,81.368,42.449,81.368,42z"/>
	<path fill="#CF2B00" d="M26.683,49c-0.284,0-0.512,0.545-0.512,1s0.228,1,0.512,1h33.216c0.282,0,0.511-0.545,0.511-1
		s-0.229-1-0.511-1H26.683z"/>
	<path fill="#CF2B00" d="M31.007,16.333C31.022,16.35,31.015,16.314,31.007,16.333L31.007,16.333z"/>
	<path fill="#CF2B00" d="M18,24.707c0,0.415,0,0.83,0,1.245c0,0.38,0.078,0.595,0.234,0.767c0.219,0.24,0.234,0.188,0.426,0.281
		h10.241c0.709,0,2.11-0.004,2.099-1.048v-8.894v-0.649c0-0.046,0.003-0.067,0.007-0.076c-0.006-0.006-0.015-0.017-0.03-0.049
		C30.764,15.858,29.422,16,28.901,16h-8.143c0.01,0,0.021-0.687,0.03-0.824c0.115-1.422,0.311-2.85,0.8-4.197
		c0.591-1.627,2.094-2.839,3.578-3.627c0.769-0.408,1.863-0.609,2.161-1.551c0.438-1.384-1.191-1.764-2.201-1.461
		c-1.516,0.453-3.095,1.1-4.206,2.262c-1.041,1.09-1.793,2.518-2.247,3.946c-0.28,0.881-0.453,1.798-0.551,2.717
		c-0.119,1.119-0.149,2.247-0.15,3.376c-0.002,1.063,0.023,2.127,0.024,3.186C17.999,21.453,18.003,23.08,18,24.707z"/>
	<path fill="#CF2B00" d="M36.129,76.546c-0.83-0.203-3.49-0.496-5.189-0.659c-0.685-1.565-1.717-3.837-2.148-4.533
		c-0.274-0.44-0.654-0.98-1.23-0.965c-0.576-0.016-0.958,0.524-1.231,0.965c-0.43,0.696-1.465,2.968-2.148,4.533
		c-1.698,0.163-4.359,0.456-5.188,0.659c-0.506,0.122-1.137,0.319-1.301,0.869c-0.191,0.542,0.203,1.073,0.538,1.47
		c0.551,0.651,2.526,2.457,3.804,3.591c-0.465,1.645-1.145,4.195-1.256,5.035c-0.067,0.516-0.115,1.174,0.341,1.526
		c0.434,0.375,1.071,0.199,1.563,0.031c0.835-0.286,3.373-1.547,4.879-2.323c1.504,0.776,4.045,2.037,4.879,2.323
		c0.492,0.168,1.129,0.344,1.564-0.031c0.454-0.353,0.409-1.011,0.341-1.526c-0.112-0.84-0.793-3.391-1.258-5.035
		c1.277-1.134,3.253-2.939,3.806-3.591c0.335-0.396,0.728-0.928,0.535-1.47C37.264,76.865,36.635,76.668,36.129,76.546z"/>
	<path fill="#CF2B00" d="M61.442,76.546c-0.828-0.203-3.49-0.496-5.188-0.659c-0.685-1.565-1.718-3.837-2.149-4.533
		c-0.272-0.44-0.653-0.98-1.229-0.965c-0.575-0.016-0.957,0.524-1.23,0.965c-0.432,0.696-1.465,2.968-2.149,4.533
		c-1.699,0.163-4.358,0.456-5.188,0.659c-0.505,0.122-1.137,0.319-1.3,0.869c-0.192,0.542,0.201,1.073,0.537,1.47
		c0.551,0.651,2.525,2.457,3.805,3.591c-0.466,1.645-1.146,4.195-1.256,5.035c-0.068,0.516-0.115,1.174,0.34,1.526
		c0.435,0.375,1.07,0.199,1.564,0.031c0.834-0.286,3.372-1.547,4.878-2.323c1.505,0.776,4.045,2.037,4.879,2.323
		c0.491,0.168,1.129,0.344,1.564-0.031c0.454-0.353,0.409-1.011,0.34-1.526c-0.111-0.84-0.791-3.391-1.258-5.035
		c1.278-1.134,3.254-2.939,3.806-3.591c0.336-0.396,0.729-0.928,0.537-1.47C62.579,76.865,61.949,76.668,61.442,76.546z"/>
	<path fill="#CF2B00" d="M86.758,76.546c-0.83-0.203-3.49-0.496-5.189-0.659c-0.685-1.565-1.718-3.837-2.148-4.533
		c-0.273-0.44-0.654-0.98-1.23-0.965c-0.574-0.016-0.958,0.524-1.229,0.965c-0.433,0.696-1.465,2.968-2.149,4.533
		c-1.699,0.163-4.359,0.456-5.188,0.659c-0.507,0.122-1.139,0.319-1.301,0.869c-0.191,0.542,0.202,1.073,0.538,1.47
		c0.55,0.651,2.525,2.457,3.804,3.591c-0.466,1.645-1.145,4.195-1.255,5.035c-0.069,0.516-0.116,1.174,0.339,1.526
		c0.435,0.375,1.071,0.199,1.563,0.031c0.835-0.286,3.374-1.547,4.879-2.323c1.505,0.776,4.045,2.037,4.879,2.323
		c0.492,0.168,1.129,0.345,1.565-0.031c0.453-0.353,0.409-1.011,0.34-1.526c-0.111-0.84-0.792-3.391-1.258-5.035
		c1.278-1.134,3.253-2.939,3.806-3.591c0.335-0.396,0.729-0.928,0.535-1.469C87.894,76.865,87.263,76.668,86.758,76.546z"/>
	<path fill="#CF2B00" d="M34,24.707c0,0.415,0,0.83,0,1.245c0,0.38,0.078,0.595,0.234,0.767c0.219,0.24,0.234,0.188,0.426,0.281
		h10.241c0.709,0,2.11-0.004,2.099-1.048v-8.894v-0.649c0-0.046,0.003-0.067,0.007-0.076c-0.006-0.006-0.015-0.017-0.03-0.049
		C46.764,15.858,45.422,16,44.901,16h-8.143c0.01,0,0.021-0.687,0.03-0.824c0.115-1.422,0.311-2.85,0.8-4.197
		c0.591-1.627,2.094-2.839,3.578-3.627c0.769-0.408,1.863-0.609,2.161-1.551c0.438-1.384-1.191-1.764-2.201-1.461
		c-1.516,0.453-3.095,1.1-4.206,2.262c-1.041,1.09-1.793,2.518-2.247,3.946c-0.28,0.881-0.453,1.798-0.551,2.717
		c-0.119,1.119-0.149,2.247-0.15,3.376c-0.002,1.063,0.023,2.127,0.024,3.186C33.999,21.453,34.003,23.08,34,24.707z"/>
	<path fill="#CF2B00" d="M47.007,16.333C47.022,16.35,47.015,16.314,47.007,16.333L47.007,16.333z"/>
</g>
</svg>
