<?xml version="1.0" encoding="utf-8"?>
<!-- Generator: Adobe Illustrator 16.0.0, SVG Export Plug-In . SVG Version: 6.00 Build 0)  -->
<!DOCTYPE svg PUBLIC "-//W3C//DTD SVG 1.1//EN" "http://www.w3.org/Graphics/SVG/1.1/DTD/svg11.dtd">
<svg version="1.1" id="Layer_1" xmlns="http://www.w3.org/2000/svg" xmlns:xlink="http://www.w3.org/1999/xlink" x="0px" y="0px"
	 width="300px" height="300px" viewBox="0 0 300 300" enable-background="new 0 0 300 300" xml:space="preserve">
<g>
	<path fill="#1976D2" d="M16.045,134.037l76.051,0.29c3.286,0,6.387-1.264,8.71-3.567c2.331-2.325,3.633-5.416,3.643-8.75
		c0-6.744-5.498-12.262-12.251-12.289l-76.06-0.301c-3.286-0.017-6.369,1.247-8.71,3.569c-2.333,2.305-3.625,5.396-3.635,8.655
		v0.075C3.793,128.483,9.292,134.008,16.045,134.037z"/>
	<path fill="#1976D2" d="M100.807,188.29c2.331-2.286,3.633-5.396,3.643-8.729c0-6.744-5.498-12.271-12.251-12.289l-76.06-0.299
		c-3.286-0.039-6.369,1.234-8.71,3.559c-2.333,2.322-3.625,5.396-3.635,8.656v0.074c0,6.742,5.499,12.288,12.252,12.325l76.051,0.3
		C95.382,191.887,98.483,190.613,100.807,188.29z"/>
	<path fill="#1976D2" d="M286.486,130.328L157.928,11.968C157.271,11.312,142.103-3.994,129.938,1c-8.57,3.522-9.5,20.27-9.5,27.295
		c0,1.208,0.029,1.93,0.029,1.93V47.01H30.872l-1.225,0.037v0.094c-5.47,0.702-9.743,6.116-9.743,12.692
		c0,6.978,4.833,12.664,10.857,12.767h22.732v-0.197h90.823V33.025l125.59,115.605l-125.59,119.578v-39.321H52.267l-1.031,0.02
		l-20.373-0.038h-2.518l0.226,0.3c-4.948,1.217-8.667,6.332-8.667,12.477c0,7.045,4.909,12.776,10.958,12.776
		c0.487,0,1.022-0.038,1.602-0.149h88.002V271c-0.029,0.318-0.13,1.741-0.13,3.839c0,7.157,1.264,19.821,9.751,23.905
		c11.484,5.545,27.388-9.03,28.073-9.629l128.568-122.442c0.414-0.347,9.479-8.544,9.479-18.979
		C296.207,140.285,286.916,130.76,286.486,130.328z"/>
</g>
</svg>
