<?xml version="1.0" encoding="utf-8"?>
<!-- Generator: Adobe Illustrator 16.0.0, SVG Export Plug-In . SVG Version: 6.00 Build 0)  -->
<!DOCTYPE svg PUBLIC "-//W3C//DTD SVG 1.1//EN" "http://www.w3.org/Graphics/SVG/1.1/DTD/svg11.dtd">
<svg version="1.1" id="Layer_1" xmlns="http://www.w3.org/2000/svg" xmlns:xlink="http://www.w3.org/1999/xlink" x="0px" y="0px"
	 width="300px" height="300px" viewBox="0 0 300 300" enable-background="new 0 0 300 300" xml:space="preserve">
<g>
	<path fill="#1976D2" d="M299.865,135.949c-1.098-11.697-10.248-24.545-57.348-62.291c-4.685-3.753-8.742-7.011-11.029-9.001
		c-0.157-0.165-0.408-0.415-0.754-0.744c-21.31-20.894-38.262-31.048-51.768-31.048c-7.931,0-26.34,3.542-26.504,36.226
		l-0.384,6.158c-24.083,2.57-77.999,12.833-115.009,53.625C8.721,160.117-3.469,202.203,0.847,253.973l0.587,7.066l6.189,3.43
		c1.434,0.814,5.359,2.666,10.834,2.666c6.079,0,17.456-2.398,25.494-18.365c1.417-2.633,26.934-47.568,110.229-48.509l-0.613,14.54
		l0.097,0.971c0.116,1.066,0.829,6.771,3.946,12.646c4.998,9.465,13.805,14.901,24.162,14.901c10.012,0,21.138-4.952,34.03-15.104
		l0.611-0.532c5.451-4.857,10.905-9.697,16.358-14.539c15.371-13.695,31.273-27.828,46.723-41.945
		c0.939-0.846,1.941-1.709,2.945-2.57C289.962,162.092,301.369,152.197,299.865,135.949z M265.049,148.593
		c-1.158,1.012-2.318,2.022-3.415,3.011c-15.354,14.015-31.181,28.101-46.503,41.717c-5.345,4.777-10.703,9.541-16.046,14.305
		c-11.155,8.712-16.374,9.167-17.312,9.167c-0.111,0-0.188-0.017-0.236-0.017c-0.486-0.532-1.082-1.942-1.379-3.196l1.63-39.015
		l-13.226-0.58c-3.963-0.172-7.926-0.25-11.766-0.25c-79.362,0-116.576,35.707-130.135,53.384
		c1.268-32.843,11.327-59.791,30.052-80.427c40.243-44.349,107.384-45.784,108.058-45.799l12.285-0.165l1.928-31.196
		c0-5.555,0.674-8.532,1.158-9.965c3.196,0.735,12.832,4.48,32.043,23.283c0.847,0.831,1.408,1.378,1.676,1.606
		c2.711,2.389,6.849,5.703,12.082,9.902c10.902,8.728,43.744,35.051,47.521,44.452C273.292,141.252,269.844,144.434,265.049,148.593
		z"/>
</g>
</svg>
