<?xml version="1.0" encoding="utf-8"?>
<!-- Generator: Adobe Illustrator 16.0.0, SVG Export Plug-In . SVG Version: 6.00 Build 0)  -->
<!DOCTYPE svg PUBLIC "-//W3C//DTD SVG 1.1//EN" "http://www.w3.org/Graphics/SVG/1.1/DTD/svg11.dtd">
<svg version="1.1" id="Layer_1" xmlns="http://www.w3.org/2000/svg" xmlns:xlink="http://www.w3.org/1999/xlink" x="0px" y="0px"
	 width="300px" height="300px" viewBox="0 0 300 300" enable-background="new 0 0 300 300" xml:space="preserve">
<g>
	<path fill="#FFFFFF" d="M280.708,96.266h-0.132c-0.554,0-1.112,0.023-1.67,0.072c-3.362,0.158-20.23,0.797-50.176,1.896
		c-6.729-40.389-41.653-70.447-83.082-70.668l-0.454-0.002c-22.003,0-42.868,8.434-58.747,23.746
		c-14.718,14.191-23.691,32.865-25.572,53.006l-37.512,1.35c-0.907,0.031-1.964-0.021-3.058-0.068
		c-1.085-0.047-2.21-0.096-3.312-0.096c-2.989,0-5.155,0.348-7.023,1.129c-3.001,1.254-5.589,3.709-7.395,6.941l-2.386,7.059
		c-0.622,4.328,0.289,8.445,2.62,11.449c4.839,6.242,11.708,11.439,18.352,16.463c3.178,2.404,6.18,4.676,8.807,6.945
		c2.32,2.006,4.652,3.996,6.985,5.986c1.706,1.457,3.412,2.914,5.112,4.373c0.354,0.307,0.804,0.627,1.486,1.115
		c0.469,0.334,1.464,1.043,2.201,1.623c0.225,4.936,1.036,22.408,3.932,84.914c-0.417,2.85-0.842,11.762,8.739,17.648l0.338,0.189
		c0.502,0.258,2.368,1.098,5.309,1.098c3.315,0,6.769-1.016,10.292-3.023l0.175,0.053l1.914-1.17
		c7.775-4.746,27.578-14.916,50.925-26.166l11.621,9.338l0.769,0.283c0.929,0.344,1.891,0.768,2.909,1.217
		c2.912,1.285,6.213,2.742,9.969,2.742l0,0c2.242,0,4.407-0.527,6.437-1.57c0.738-0.379,1.467-0.777,2.186-1.188l0.551-0.312
		l2.556-2.469c52.724-50.877,114.039-108.871,125.107-117.369c6.603-3.389,10.712-10.279,10.513-17.709
		C299.712,104.59,291.237,96.32,280.708,96.266z M286.818,128.5c-10.239,7.615-71.845,65.842-125.941,118.047l-2.1,2.027
		c-0.658,0.373-1.323,0.74-1.998,1.086c-5.348,2.746-10.177-0.752-15.267-2.635l-13.456-10.811
		c-22.639,10.859-45.351,22.363-54.226,27.781c-0.07-0.02-0.143-0.033-0.212-0.049c-7.873,5.314-12.558,2.91-12.558,2.91
		c-8.283-5.09-6.32-13.045-6.32-13.045S50.7,166.623,50.7,166.609c-0.046-1.01-4.621-3.953-5.35-4.578
		c-4.023-3.457-8.075-6.883-12.088-10.352c-8.245-7.127-19.822-14.107-26.472-22.684c-2.057-2.652-2.178-6.645-1.01-10.223
		c0.03-0.094,0.06-0.189,0.092-0.285c1.123-3.223,3.296-6.064,6.041-7.211c3.125-1.305,8.223-0.457,11.631-0.58
		c12.59-0.453,26.856-0.963,42.057-1.512c1.632-42.693,36.985-76.811,80.02-76.584c40.798,0.219,74.36,31.225,78.747,70.832
		c29.891-1.096,51.238-1.895,54.879-2.07c0.475-0.045,0.95-0.064,1.428-0.062c7.801,0.041,14.077,6.158,14.285,13.926
		C295.114,121.045,291.795,126.121,286.818,128.5z"/>
	<path fill="#FFFFFF" d="M69.796,249.801c0.929-0.531,1.93-1.096,3.017-1.699c5.902-3.277,13.984-7.486,24.022-12.508
		c6.626-3.318,13.251-6.564,18.884-9.295l-30.134-24.215L69.796,249.801z"/>
	<path fill="#FFFFFF" d="M66.327,123.477c-25.258,0.908-42.271,1.518-42.271,1.518l39.753,34.002l15.4-2.16
		C72.57,147.039,68.056,135.695,66.327,123.477z"/>
	<path fill="#FFFFFF" d="M220.937,136.965l1.188-0.166l-1.299,0.512c-10.574,31.846-40.721,54.805-76.049,54.615
		c-13.689-0.072-26.564-3.611-37.794-9.779l-15.683,6.178l59.644,47.928c0,0,123.297-118.982,129.542-120.627
		c-2.202,0.131-24.833,0.979-55.815,2.115C224.213,124.406,222.937,130.848,220.937,136.965z"/>
	<path fill="#FFFFFF" d="M82.687,122.887c2.015,11.895,7.355,22.678,15.034,31.354c1.996,2.254,4.148,4.367,6.444,6.318
		c4.369,3.721,9.246,6.857,14.514,9.293c3.252,1.506,6.652,2.742,10.174,3.68c5.112,1.365,10.478,2.107,16.01,2.139
		c22.714,0.119,42.739-11.783,54.032-29.725c1.292-2.051,2.47-4.184,3.525-6.385c3.13-6.535,5.171-13.689,5.892-21.225
		c0.181-1.889,0.28-3.801,0.292-5.734c0.002-0.479-0.003-0.957-0.012-1.432c-0.039-2.416-0.22-4.795-0.524-7.139
		c-4.029-30.947-30.477-55.002-62.532-55.172c-33.843-0.18-61.722,26.328-63.636,59.742c-0.063,1.102-0.098,2.209-0.105,3.326
		c-0.006,1.285,0.031,2.562,0.099,3.83C82.024,118.172,82.291,120.551,82.687,122.887z M140.313,148.27l-1.931,7.492l-1.814,7.045
		l-0.216,0.842l-1.164-0.299l-10.668-2.746l0.774-3.006l1.932-7.492l1.746-6.779l11.831,3.045L140.313,148.27z M150.54,59.195
		l11.831,3.043l-4.452,17.277l-11.83-3.045L150.54,59.195z M117.972,75.961l2.231,0.557l62.068,15.41l-3.226,12.998l-64.303-15.965
		L117.972,75.961z M109.517,107.605l2.615-10.527l2.23,0.557l34.442,8.549l25.154,6.246l2.473,0.615l-1.615,6.512l-1.611,6.484
		l-2.229-0.553l-20.359-5.055l-25.163-6.248l-16.55-4.109L109.517,107.605z M105.45,122.066l1.289-5.189l18.085,4.49l46.215,11.475
		l-2.859,11.52l-0.366,1.477l-2.229-0.553l-1.442-0.357l-60.631-15.053L105.45,122.066z"/>
	<path fill="#FFFFFF" d="M70.908,203.506l3.345-11.912c0,0-0.069-13.221,10.671-15.939c0,0-0.039-0.061-0.105-0.156l1.237-0.486
		l6.852-2.697c-0.954-0.832-1.887-1.686-2.798-2.561l-24.315,3.408l-1.152,0.162L63.95,225.92l6.797-22.645
		C70.848,203.42,70.908,203.506,70.908,203.506z"/>
	<path fill="#1976D2" d="M280.675,101.301c-0.478-0.002-0.953,0.018-1.428,0.062c-3.641,0.176-24.988,0.975-54.879,2.07
		c-4.387-39.607-37.949-70.613-78.747-70.832c-43.034-0.227-78.387,33.891-80.02,76.584c-15.201,0.549-29.467,1.059-42.057,1.512
		c-3.409,0.123-8.506-0.725-11.631,0.58c-2.745,1.146-4.918,3.988-6.041,7.211c-0.032,0.096-0.062,0.191-0.092,0.285
		c-1.168,3.578-1.047,7.57,1.01,10.223c6.649,8.576,18.227,15.557,26.472,22.684c4.014,3.469,8.065,6.895,12.088,10.352
		c0.729,0.625,5.304,3.568,5.35,4.578c0,0.014,4.041,87.203,4.041,87.203s-1.963,7.955,6.32,13.045c0,0,4.685,2.404,12.558-2.91
		c0.07,0.016,0.142,0.029,0.212,0.049c8.875-5.418,31.586-16.922,54.226-27.781l13.456,10.811c5.09,1.883,9.919,5.381,15.267,2.635
		c0.675-0.346,1.34-0.713,1.998-1.086l2.1-2.027c54.097-52.205,115.702-110.432,125.941-118.047
		c4.977-2.379,8.296-7.455,8.142-13.273C294.752,107.459,288.476,101.342,280.675,101.301z M96.834,235.594
		c-10.038,5.021-18.12,9.23-24.022,12.508c-1.086,0.604-2.087,1.168-3.017,1.699l15.789-47.717l30.134,24.215
		C110.085,229.029,103.461,232.275,96.834,235.594z M24.056,124.994c0,0,17.013-0.609,42.271-1.518
		c1.729,12.219,6.243,23.562,12.882,33.359l-15.4,2.16L24.056,124.994z M208.592,111.17c0.009,0.475,0.014,0.953,0.012,1.432
		c-0.012,1.934-0.111,3.846-0.292,5.734c-0.721,7.535-2.762,14.689-5.892,21.225c-1.056,2.201-2.233,4.334-3.525,6.385
		c-11.293,17.941-31.318,29.844-54.032,29.725c-5.532-0.031-10.897-0.773-16.01-2.139c-3.521-0.938-6.922-2.174-10.174-3.68
		c-5.269-2.436-10.146-5.572-14.514-9.293c-2.295-1.951-4.448-4.064-6.444-6.318c-7.679-8.676-13.019-19.459-15.034-31.354
		c-0.396-2.336-0.662-4.715-0.793-7.129c-0.068-1.268-0.105-2.545-0.099-3.83c0.007-1.117,0.042-2.225,0.105-3.326
		c1.914-33.414,29.793-59.922,63.636-59.742c32.055,0.17,58.502,24.225,62.532,55.172
		C208.372,106.375,208.553,108.754,208.592,111.17z M64.642,173.324l1.152-0.162l24.315-3.408c0.911,0.875,1.845,1.729,2.798,2.561
		l-6.852,2.697l-1.237,0.486c0.067,0.096,0.105,0.156,0.105,0.156c-10.74,2.719-10.671,15.939-10.671,15.939l-3.345,11.912
		c0,0-0.06-0.086-0.162-0.23L63.95,225.92L64.642,173.324z M91.299,188.324l15.683-6.178c11.23,6.168,24.105,9.707,37.794,9.779
		c35.328,0.189,65.475-22.77,76.049-54.615l1.299-0.512l-1.188,0.166c2-6.117,3.276-12.559,3.732-19.225
		c30.982-1.137,53.613-1.984,55.815-2.115c-6.245,1.645-129.542,120.627-129.542,120.627L91.299,188.324z"/>
	<polygon fill="#1976D2" points="117.972,75.961 114.742,88.961 179.045,104.926 182.271,91.928 120.203,76.518 	"/>
	<polygon fill="#1976D2" points="148.804,106.184 114.362,97.635 112.132,97.078 109.517,107.605 108.903,110.076 125.453,114.186 
		150.616,120.434 170.975,125.488 173.204,126.041 174.815,119.557 176.431,113.045 173.958,112.43 	"/>
	<polygon fill="#1976D2" points="106.738,116.877 105.45,122.066 103.51,129.875 164.141,144.928 165.583,145.285 167.812,145.838 
		168.179,144.361 171.038,132.842 124.823,121.367 	"/>
	<polygon fill="#1976D2" points="162.37,62.238 150.54,59.195 146.088,76.471 157.918,79.516 	"/>
	<polygon fill="#1976D2" points="127.226,150.105 125.293,157.598 124.52,160.604 135.188,163.35 136.351,163.648 136.567,162.807 
		138.382,155.762 140.313,148.27 140.803,146.371 128.972,143.326 	"/>
</g>
</svg>
