<?xml version="1.0" encoding="utf-8"?>
<!-- Generator: Adobe Illustrator 16.0.0, SVG Export Plug-In . SVG Version: 6.00 Build 0)  -->
<!DOCTYPE svg PUBLIC "-//W3C//DTD SVG 1.1//EN" "http://www.w3.org/Graphics/SVG/1.1/DTD/svg11.dtd">
<svg version="1.1" id="Layer_1" xmlns="http://www.w3.org/2000/svg" xmlns:xlink="http://www.w3.org/1999/xlink" x="0px" y="0px"
	 width="2000px" height="1000px" viewBox="0 0 2000 1000" enable-background="new 0 0 2000 1000" xml:space="preserve">
<g>
	<path d="M455.556,849.519c10.487-10.606,18.315-22.243,23.484-35.499c11.767-30.177,10.624-59.483-6.55-87.546
		c-6.421-10.492-15.644-18.342-24.709-26.363c-42.412-37.528-84.791-75.089-127.178-112.646c-0.23-0.204-0.403-0.473-0.833-0.988
		c11.603-7.813,23.158-15.593,34.985-23.557c-6.017-4.258-11.845-8.382-17.938-12.692c7.366-9.069,14.573-17.943,21.752-26.783
		c8.336,4.434,15.519,3.458,20.084-2.588c4.005-5.302,3.629-12.893-0.884-17.858c-4.39-4.829-12.207-5.82-17.747-2.248
		c-6.434,4.146-7.922,11.053-4.118,19.817c-14.202,10.302-28.45,20.636-43.156,31.302c5.842,4.249,11.425,8.311,17.289,12.576
		c-5.781,5.368-11.328,10.518-16.947,15.736c-42.797-30.003-84.466-23.893-125.09,6.729c0-62.969,0-126.048,0-189.438
		c1.134-0.051,2.23-0.144,3.327-0.144c61.359-0.006,122.719-0.134,184.077,0.059c23.582,0.074,47.182,1.188,70.189,6.894
		c33.068,8.2,59.95,25.613,78.508,54.766c8.642,13.576,12.927,28.656,14.487,44.482c2.252,22.815,0.823,45.408-5.545,67.547
		c-7.479,25.995-23.225,46.343-43.608,63.466c-10.102,8.486-21.167,15.536-32.924,21.505c-0.814,0.413-1.585,0.905-2.597,1.487
		c50.553,63.965,100.971,127.76,151.731,191.983C555.434,849.519,505.838,849.519,455.556,849.519z"/>
	<path d="M255.521,635.166c16.096-0.067,29.067,12.759,29.148,28.827c0.083,16.276-12.776,29.339-28.953,29.405
		c-16.022,0.067-29.385-13.258-29.278-29.196C226.544,648.168,239.5,635.234,255.521,635.166z"/>
	<path d="M357.619,772.016c0.441-16.3,13.472-29.043,29.376-28.729c16.465,0.325,29.215,13.623,28.752,29.985
		c-0.451,15.939-13.688,28.597-29.541,28.242C370.048,801.155,357.19,787.886,357.619,772.016z"/>
	<path d="M188.111,736.337c14.63,12.955,28.898,25.589,43.417,38.445c-3.115,3.519-6.132,6.927-9.336,10.548
		c-3.528-3.123-6.993-6.098-10.344-9.194c-1.96-1.813-3.346-1.561-5.269,0.292c-6.227,5.999-12.67,11.772-18.468,17.114
		C188.111,775.57,188.111,756.221,188.111,736.337z"/>
	<path d="M315.788,849.533c-18.813,0-36.98,0-55.824,0c5.607-5.78,10.793-11.127,16.108-16.606
		c-3.987-3.574-7.77-6.967-11.734-10.521c3.071-3.48,6.007-6.811,9.173-10.398C287.54,824.461,301.433,836.792,315.788,849.533z"/>
</g>
<g>
	<path d="M766.812,758.155c0,18.361-3.246,34.457-9.734,48.289c-6.49,13.834-15.776,24.51-27.859,32.022
		c-12.085,7.516-25.938,11.273-41.564,11.273c-15.458,0-29.249-3.715-41.374-11.145c-12.127-7.429-21.519-18.039-28.181-31.831
		c-6.66-13.789-10.035-29.653-10.118-47.584v-9.223c0-18.358,3.308-34.521,9.927-48.481c6.617-13.962,15.968-24.678,28.052-32.15
		c12.083-7.471,25.894-11.207,41.437-11.207c15.541,0,29.352,3.735,41.437,11.207c12.083,7.473,21.433,18.188,28.052,32.15
		c6.616,13.961,9.926,30.081,9.926,48.354V758.155L766.812,758.155z M727.873,749.701c0-19.553-3.503-34.411-10.504-44.574
		c-7.003-10.163-16.993-15.243-29.972-15.243c-12.895,0-22.845,5.017-29.846,15.05c-7.003,10.036-10.546,24.744-10.631,44.127v9.093
		c0,19.043,3.5,33.817,10.503,44.319c7,10.504,17.079,15.755,30.229,15.755c12.893,0,22.799-5.059,29.715-15.178
		c6.917-10.119,10.418-24.868,10.504-44.255L727.873,749.701L727.873,749.701z"/>
	<path d="M794.736,847.177V660.678h65.326c22.627,0,39.791,4.336,51.491,13.001c11.699,8.668,17.549,21.372,17.549,38.107
		c0,9.138-2.35,17.187-7.045,24.146c-4.697,6.961-11.23,12.062-19.597,15.307c9.562,2.39,17.1,7.216,22.607,14.474
		c5.508,7.259,8.263,16.138,8.263,26.642c0,17.934-5.723,31.51-17.165,40.733c-11.446,9.223-27.754,13.919-48.93,14.089
		L794.736,847.177L794.736,847.177z M833.162,738.813h28.437c19.383-0.341,29.076-8.069,29.076-23.186
		c0-8.453-2.455-14.538-7.364-18.252c-4.913-3.714-12.662-5.572-23.248-5.572h-26.9V738.813L833.162,738.813z M833.162,765.968
		v50.341h32.919c9.051,0,16.118-2.155,21.198-6.469c5.08-4.313,7.621-10.269,7.621-17.868c0-17.078-8.838-25.746-26.514-26.003
		L833.162,765.968L833.162,765.968z"/>
	<path d="M1115.343,758.155c0,18.361-3.245,34.457-9.734,48.289c-6.492,13.834-15.776,24.51-27.858,32.022
		c-12.085,7.516-25.94,11.273-41.567,11.273c-15.457,0-29.246-3.715-41.37-11.145c-12.127-7.429-21.521-18.039-28.182-31.831
		c-6.66-13.789-10.035-29.653-10.119-47.584v-9.223c0-18.358,3.309-34.521,9.928-48.481c6.616-13.962,15.966-24.678,28.051-32.15
		c12.081-7.471,25.894-11.207,41.436-11.207s29.354,3.735,41.439,11.207c12.079,7.473,21.432,18.188,28.05,32.15
		c6.616,13.961,9.926,30.081,9.926,48.354v8.325H1115.343z M1076.405,749.701c0-19.553-3.504-34.411-10.505-44.574
		s-16.992-15.243-29.973-15.243c-12.895,0-22.844,5.017-29.845,15.05c-7.004,10.036-10.548,24.744-10.632,44.127v9.093
		c0,19.043,3.501,33.817,10.503,44.319c7.002,10.504,17.079,15.755,30.229,15.755c12.896,0,22.802-5.059,29.717-15.178
		c6.918-10.119,10.419-24.868,10.505-44.255L1076.405,749.701L1076.405,749.701z"/>
	<path d="M1239.975,798.248c0-7.258-2.563-12.829-7.686-16.717c-5.123-3.884-14.346-7.982-27.666-12.296
		c-13.323-4.312-23.869-8.561-31.64-12.744c-21.178-11.443-31.766-26.855-31.766-46.241c0-10.075,2.838-19.064,8.517-26.963
		c5.679-7.897,13.835-14.067,24.466-18.508c10.631-4.439,22.563-6.66,35.801-6.66c13.323,0,25.191,2.412,35.609,7.236
		c10.417,4.826,18.509,11.636,24.272,20.43c5.765,8.796,8.647,18.787,8.647,29.973h-38.426c0-8.536-2.692-15.177-8.071-19.917
		s-12.938-7.11-22.672-7.11c-9.395,0-16.695,1.988-21.903,5.957c-5.209,3.972-7.814,9.202-7.814,15.693
		c0,6.063,3.053,11.143,9.16,15.241c6.104,4.099,15.091,7.941,26.962,11.528c21.859,6.577,37.786,14.73,47.776,24.465
		c9.991,9.735,14.987,21.861,14.987,36.377c0,16.139-6.106,28.8-18.317,37.979c-12.212,9.181-28.649,13.771-49.313,13.771
		c-14.347,0-27.411-2.626-39.195-7.878s-20.773-12.444-26.964-21.583c-6.192-9.136-9.286-19.725-9.286-31.767h38.556
		c0,20.581,12.296,30.87,36.891,30.87c9.136,0,16.269-1.858,21.391-5.573C1237.414,810.097,1239.975,804.907,1239.975,798.248z"/>
	<path d="M1409.822,808.75h-67.376l-12.809,38.427h-40.861l69.424-186.498h35.611l69.809,186.498h-40.861L1409.822,808.75z
		 M1352.822,777.625h46.624l-23.44-69.809L1352.822,777.625z"/>
	<path d="M1606.055,691.805h-57.127v155.372h-38.429V691.805h-56.358v-31.126h151.914V691.805L1606.055,691.805z"/>
	<path d="M1722.617,798.248c0-7.258-2.563-12.829-7.687-16.717c-5.123-3.884-14.346-7.982-27.666-12.296
		c-13.323-4.312-23.87-8.561-31.639-12.744c-21.179-11.443-31.767-26.855-31.767-46.241c0-10.075,2.837-19.064,8.517-26.963
		c5.679-7.897,13.835-14.067,24.466-18.508c10.632-4.439,22.563-6.66,35.801-6.66c13.323,0,25.19,2.412,35.609,7.236
		c10.417,4.826,18.509,11.636,24.273,20.43c5.764,8.796,8.646,18.787,8.646,29.973h-38.426c0-8.536-2.692-15.177-8.072-19.917
		c-5.379-4.74-12.936-7.11-22.671-7.11c-9.395,0-16.695,1.988-21.904,5.957c-5.208,3.972-7.813,9.202-7.813,15.693
		c0,6.063,3.053,11.143,9.16,15.241c6.104,4.099,15.091,7.941,26.962,11.528c21.858,6.577,37.786,14.73,47.776,24.465
		c9.991,9.735,14.987,21.861,14.987,36.377c0,16.139-6.106,28.8-18.317,37.979c-12.212,9.181-28.648,13.771-49.313,13.771
		c-14.346,0-27.411-2.626-39.195-7.878s-20.774-12.444-26.964-21.583c-6.192-9.136-9.286-19.725-9.286-31.767h38.556
		c0,20.581,12.296,30.87,36.891,30.87c9.136,0,16.268-1.858,21.391-5.573C1720.055,810.097,1722.617,804.907,1722.617,798.248z"/>
</g>
</svg>
