<?xml version="1.0" encoding="utf-8"?>
<!-- Generator: Adobe Illustrator 16.0.0, SVG Export Plug-In . SVG Version: 6.00 Build 0)  -->
<!DOCTYPE svg PUBLIC "-//W3C//DTD SVG 1.1//EN" "http://www.w3.org/Graphics/SVG/1.1/DTD/svg11.dtd">
<svg version="1.1" id="Layer_1" xmlns="http://www.w3.org/2000/svg" xmlns:xlink="http://www.w3.org/1999/xlink" x="0px" y="0px"
	 width="300px" height="300px" viewBox="0 0 300 300" enable-background="new 0 0 300 300" xml:space="preserve">
<g>
	<path fill="none" d="M204.978,104.543l36.731,22.209V42.164c0-0.703-0.089-1.386-0.243-2.045L204.978,104.543z"/>
	<path fill="none" d="M136.219,90.727l-7.157,4.03c-0.035,0.099-0.063,0.2-0.098,0.299c-5.293,15.628,1.34,33.29,16.36,41.313
		c16.715,8.927,37.576,2.591,46.502-14.125c1.855-3.472,3.04-7.123,3.621-10.81l7.997,4.915c-0.839,3.424-2.111,6.796-3.847,10.047
		c-11.215,20.999-37.423,28.958-58.424,17.744c-16.032-8.562-24.451-25.865-22.551-42.916l-56.425,33.661
		c1.679,1.332,3.981,2.986,6.874,4.926c12.635-7.719,28.914-8.758,42.894-1.293c14.382,7.68,22.642,22.389,22.824,37.643
		c8.247,3.836,14.003,6.102,16.098,6.395c11.693-3.115,32.171-12.527,53.664-24.672c15.829-8.945,26.685-16.262,32.501-20.884
		c0.393-0.313,0.769-0.614,1.115-0.902l-88.403-53.453L136.219,90.727z M144.284,128.455l-4.903-4.451l6.502-7.155l4.901,4.447
		L144.284,128.455z M163.87,127.87l-0.932-0.83l-25.861-23.076l4.829-5.418l26.796,23.908L163.87,127.87z M153.931,85.924
		l26.85,16.499l3.647,3.255l-4.832,5.415l-26.794-23.906L153.931,85.924z M176.29,114.325l-4.832,5.416l-0.929-0.828l-25.864-23.078
		l4.835-5.417l0.928,0.833L176.29,114.325z"/>
	<path fill="none" d="M269.92,12.587H30.078c-9.646,0-17.491,7.847-17.491,17.492V269.92c0,9.646,7.846,17.493,17.491,17.493H269.92
		c9.646,0,17.493-7.847,17.493-17.493V30.079C287.413,20.434,279.566,12.587,269.92,12.587z M225.446,253.853
		c-11.215,20.998-37.423,28.958-58.422,17.743c-21.002-11.214-28.961-37.422-17.746-58.421
		c11.217-20.999,37.422-28.961,58.422-17.744C228.699,206.645,236.658,232.852,225.446,253.853z M251.541,133.511
		c0,1.373-0.006,3.715-5.691,8.894c-5.167,4.703-15.018,11.745-33.822,22.534c-18.405,10.561-43.613,23.266-59.174,27.264
		c-0.544,0.14-1.132,0.21-1.751,0.21c-3.134,0-9.79-2.505-17.445-5.941c-0.836,3.567-2.139,7.086-3.944,10.47
		c-11.215,20.999-37.422,28.958-58.423,17.743c-21-11.214-28.96-37.422-17.745-58.421c2.027-3.797,4.552-7.161,7.442-10.07
		c-4.879-3.405-7.738-5.85-9.364-7.844c-1.527-1.869-1.972-3.344-1.972-4.838V42.164c0-10.392,8.453-18.846,18.846-18.846h164.195
		c10.391,0,18.849,8.455,18.849,18.846V133.511z"/>
	<path fill="none" d="M149.8,71.178l46.764,28.277l37.489-66.194c-0.444-0.068-0.897-0.113-1.36-0.113l-164.195,0
		c-1.126,0-2.201,0.215-3.195,0.595l37.187,65.661L149.8,71.178z"/>
	<path fill="none" d="M107.816,146.289c-9.734-5.197-20.869-5.211-30.239-1.023c-3.288,1.47-6.356,3.455-9.072,5.921
		c-2.834,2.573-5.284,5.662-7.188,9.227c-8.928,16.713-2.592,37.574,14.123,46.5c16.713,8.928,37.574,2.591,46.5-14.123
		c1.744-3.268,2.899-6.693,3.513-10.157c0.646-3.629,0.691-7.3,0.179-10.877C124.125,161.289,117.838,151.643,107.816,146.289z
		 M101.56,159.163l6.043-6.654l4.903,4.449l-4.957,5.454l-1.544,1.704l-4.903-4.449L101.56,159.163z M74.399,198.999l-4.903-4.449
		l6.5-7.157l4.903,4.448L74.399,198.999z M93.985,198.413l-0.933-0.83L67.19,174.509l4.832-5.418l26.792,23.908L93.985,198.413z
		 M101.573,190.283l-0.93-0.827L74.781,166.38l4.831-5.418l0.93,0.831l25.86,23.078L101.573,190.283z M113.954,176.88l-4.245,4.758
		l-19.934-17.786l-6.858-6.12l4.834-5.416l0.929,0.832l25.863,23.076L113.954,176.88z"/>
	<polygon fill="none" points="59.48,43.412 59.48,125.062 94.046,104.44 	"/>
	<path fill="none" d="M203.548,203.2c-16.711-8.924-37.569-2.589-46.497,14.124c-8.926,16.716-2.589,37.573,14.123,46.5
		c16.716,8.926,37.574,2.591,46.501-14.124C226.601,232.988,220.266,212.127,203.548,203.2z M203.336,209.42l4.903,4.449
		l-6.501,7.158l-4.903-4.449L203.336,209.42z M170.133,255.911l-4.9-4.451l6.499-7.156l4.903,4.449L170.133,255.911z
		 M189.719,255.325l-0.932-0.829l-25.861-23.077l4.832-5.418l26.792,23.909L189.719,255.325z M197.307,247.196l-0.931-0.828
		l-25.864-23.078l4.836-5.417l0.93,0.832l25.861,23.076L197.307,247.196z M205.443,238.549l-26.791-23.907l4.832-5.416l0.931,0.831
		l25.861,23.077L205.443,238.549z"/>
	<path fill="#9C27B0" d="M232.692,23.318H68.497c-10.393,0-18.846,8.455-18.846,18.846v91.347c0,1.494,0.444,2.969,1.972,4.838
		c1.626,1.994,4.485,4.438,9.364,7.844c-2.891,2.909-5.415,6.273-7.442,10.07C42.33,177.262,50.29,203.47,71.29,214.684
		c21.001,11.215,47.208,3.256,58.423-17.743c1.806-3.384,3.108-6.902,3.944-10.47c7.655,3.437,14.312,5.941,17.445,5.941
		c0.619,0,1.207-0.07,1.751-0.21c15.561-3.998,40.769-16.703,59.174-27.264c18.805-10.789,28.655-17.831,33.822-22.534
		c5.686-5.179,5.691-7.521,5.691-8.894V42.164C251.541,31.772,243.083,23.318,232.692,23.318z M68.497,33.147l164.195,0
		c0.463,0,0.916,0.045,1.36,0.113l-37.489,66.194L149.8,71.178l-47.312,28.226L65.302,33.743
		C66.296,33.363,67.371,33.147,68.497,33.147z M59.48,125.062v-81.65l34.565,61.028L59.48,125.062z M125.453,182.633
		c-0.613,3.464-1.769,6.89-3.513,10.157c-8.926,16.714-29.787,23.051-46.5,14.123c-16.715-8.926-23.051-29.787-14.123-46.5
		c1.903-3.564,4.354-6.653,7.188-9.227c2.716-2.466,5.784-4.451,9.072-5.921c9.37-4.188,20.505-4.174,30.239,1.023
		c10.021,5.354,16.309,15,17.815,25.467C126.145,175.333,126.099,179.004,125.453,182.633z M237.053,137
		c-5.816,4.622-16.672,11.938-32.501,20.884c-21.493,12.145-41.971,21.557-53.664,24.672c-2.095-0.293-7.851-2.559-16.098-6.395
		c-0.183-15.254-8.442-29.963-22.824-37.643c-13.979-7.465-30.259-6.426-42.894,1.293c-2.893-1.939-5.195-3.594-6.874-4.926
		l56.425-33.661c-1.9,17.051,6.519,34.354,22.551,42.916c21.001,11.214,47.209,3.255,58.424-17.744
		c1.735-3.251,3.008-6.623,3.847-10.047l-7.997-4.915c-0.581,3.687-1.766,7.338-3.621,10.81
		c-8.926,16.715-29.787,23.051-46.502,14.125c-15.021-8.023-21.653-25.686-16.36-41.313c0.034-0.1,0.062-0.201,0.098-0.299
		l7.157-4.03l13.546-8.082l88.403,53.453C237.821,136.386,237.445,136.687,237.053,137z M241.709,126.752l-36.731-22.209
		l36.488-64.424c0.154,0.659,0.243,1.342,0.243,2.045V126.752z"/>
	<polygon fill="#9C27B0" points="184.428,105.678 180.78,102.423 153.931,85.924 152.802,87.187 179.596,111.093 	"/>
	<polygon fill="#9C27B0" points="144.665,95.834 170.529,118.912 171.458,119.74 176.29,114.325 150.428,91.25 149.5,90.417 	"/>
	<polygon fill="#9C27B0" points="137.077,103.964 162.938,127.04 163.87,127.87 168.702,122.454 141.906,98.546 	"/>
	<polygon fill="#9C27B0" points="139.381,124.004 144.284,128.455 150.784,121.296 145.883,116.849 	"/>
	<polygon fill="#9C27B0" points="87.751,152.315 82.917,157.731 89.775,163.852 109.709,181.638 113.954,176.88 114.543,176.224 
		88.68,153.147 	"/>
	<polygon fill="#9C27B0" points="79.612,160.962 74.781,166.38 100.644,189.456 101.573,190.283 106.402,184.871 80.542,161.793 	
		"/>
	<polygon fill="#9C27B0" points="67.19,174.509 93.053,197.583 93.985,198.413 98.814,192.999 72.022,169.091 	"/>
	<polygon fill="#9C27B0" points="107.549,162.412 112.506,156.958 107.603,152.509 101.56,159.163 101.102,159.667 106.005,164.116 
			"/>
	
		<rect x="71.887" y="188.361" transform="matrix(-0.7406 -0.672 0.672 -0.7406 1.0629 386.801)" fill="#9C27B0" width="6.621" height="9.669"/>
	<path fill="#9C27B0" d="M207.7,195.431c-21-11.217-47.205-3.255-58.422,17.744c-11.215,20.999-3.256,47.207,17.746,58.421
		c20.999,11.215,47.207,3.255,58.422-17.743C236.658,232.852,228.699,206.645,207.7,195.431z M217.675,249.7
		c-8.927,16.715-29.785,23.05-46.501,14.124c-16.712-8.927-23.049-29.784-14.123-46.5c8.928-16.713,29.786-23.048,46.497-14.124
		C220.266,212.127,226.601,232.988,217.675,249.7z"/>
	<polygon fill="#9C27B0" points="183.484,209.226 178.652,214.642 205.443,238.549 210.276,233.134 184.415,210.057 	"/>
	<polygon fill="#9C27B0" points="175.348,217.873 170.512,223.29 196.376,246.368 197.307,247.196 202.139,241.781 176.277,218.705 
			"/>
	<polygon fill="#9C27B0" points="162.926,231.419 188.787,254.496 189.719,255.325 194.55,249.91 167.758,226.001 	"/>
	
		<rect x="199.227" y="210.389" transform="matrix(0.7406 0.672 -0.672 0.7406 197.1713 -80.2653)" fill="#9C27B0" width="6.621" height="9.67"/>
	
		<rect x="167.624" y="245.271" transform="matrix(-0.7402 -0.6724 0.6724 -0.7402 129.2995 550.17)" fill="#9C27B0" width="6.62" height="9.67"/>
	<path fill="#9C27B0" d="M269.92,0H30.078C13.492,0,0,13.493,0,30.079V269.92C0,286.505,13.492,300,30.078,300H269.92
		c16.586,0,30.08-13.495,30.08-30.08V30.079C300,13.492,286.506,0,269.92,0z M287.413,269.92c0,9.646-7.847,17.493-17.493,17.493
		H30.078c-9.646,0-17.491-7.847-17.491-17.493V30.079c0-9.646,7.846-17.492,17.491-17.492H269.92
		c9.646,0,17.493,7.847,17.493,17.492V269.92z"/>
</g>
</svg>
