<?xml version="1.0" encoding="utf-8"?>
<!-- Generator: Adobe Illustrator 16.0.0, SVG Export Plug-In . SVG Version: 6.00 Build 0)  -->
<!DOCTYPE svg PUBLIC "-//W3C//DTD SVG 1.1//EN" "http://www.w3.org/Graphics/SVG/1.1/DTD/svg11.dtd">
<svg version="1.1" id="Layer_1" xmlns="http://www.w3.org/2000/svg" xmlns:xlink="http://www.w3.org/1999/xlink" x="0px" y="0px"
	 width="300px" height="300px" viewBox="0 0 300 300" enable-background="new 0 0 300 300" xml:space="preserve">
<g>
	<path fill="#9C27B0" d="M35.802,83.087c-4.775,6.976-13.291,22.061-5.459,29.815c1.483,1.471,0.205,0.192,1.739,1.617
		c5.329,4.948,12.932,4.321,17.698,0.312c13.296-11.181,25.816-16.85,37.217-16.85c7.567,0,14.732,2.368,22.545,7.45
		c14.108,9.181,19.225,29.468,21.031,44.874c1.002,8.525,1.118,16.577,0.953,22.791l-22.732-0.355
		c-5.763-0.088-12.831-1.696-16.628,3.692c-5.412,7.681,1.285,13.054,6.014,18.671l58.658,69.652c0,0,4.987,4.58,10.269,4.822
		c5.221,0.243,10.308-4.553,10.308-4.553l62.307-70.177c10.23-11.521,4.613-22.722-10.252-22.632
		c-0.137,0.002-22.259,0.135-22.259,0.135c-0.058-1.582-0.146-3.124-0.224-4.682c36.561-1.482,65.851-31.675,65.851-68.594
		c0-37.861-30.804-68.663-68.663-68.663c-19.037,0-36.288,7.791-48.736,20.346c-1.447-0.861-2.916-1.676-4.414-2.436
		c-10.637-5.404-22.313-8.144-34.709-8.144c-18.338,0-37.621,6.167-54.299,17.366c-9.809,6.585-18.119,14.486-24.484,23.113
		c-0.098,0.213-0.222,0.43-0.386,0.644C36.703,81.891,36.252,82.488,35.802,83.087z M205.973,153.686
		c-0.6,0.019-1.197,0.045-1.799,0.045c-4.116,0-8.122-0.472-11.979-1.339c-24.392-5.478-42.675-27.294-42.675-53.314
		c0-10.857,3.196-20.977,8.676-29.492c2.471-3.834,5.4-7.343,8.723-10.444c9.77-9.12,22.867-14.717,37.256-14.717
		c30.134,0,54.65,24.515,54.65,54.651C258.824,128.607,235.274,152.73,205.973,153.686z M40.226,103.623
		c9.885-26.302,43.076-49.843,76.089-49.843c10.414,0,20.812,2.347,30.451,7.684c-7.109,10.813-11.262,23.734-11.262,37.614
		c0,34.177,25.103,62.593,57.836,67.803c0.334,6.093,0.509,12.468,0.504,19.154l32.166-0.194c2.194,0.699,0.94,2.837,0.94,2.837
		l0.04,0.022l-59.748,67.295l-55.811-66.271c-0.379-0.934-0.83-2.936,2.097-3.302l-0.004-0.004l30.712,0.479
		c0,0,8.856-69.354-27.278-92.865c-7.572-4.926-17.568-9.651-29.961-9.651c-12.783,0-28.115,5.024-45.97,20.041L40.226,103.623z"/>
	<path fill="#9C27B0" d="M0,30.081v239.838C0,286.508,13.494,300,30.078,300H269.92c16.586,0,30.08-13.494,30.08-30.081V30.081
		C300,13.495,286.506,0,269.92,0H30.078C13.494,0,0,13.496,0,30.081z M12.587,30.081c0-9.647,7.846-17.493,17.491-17.493H269.92
		c9.646,0,17.493,7.845,17.493,17.493v239.838c0,9.647-7.847,17.493-17.493,17.493l-239.842,0.002
		c-9.646,0-17.491-7.848-17.491-17.495V30.081z"/>
	<g>
		<polygon fill="#9C27B0" points="215.969,128.34 221.888,129.777 223.814,130.245 226.54,119.024 218.785,117.142 205.582,113.939 
			171.041,105.56 168.32,116.775 202.768,125.137 		"/>
		<polygon fill="#9C27B0" points="221.004,110.134 226.826,111.547 228.752,112.017 231.477,100.796 225.262,99.288 211.864,96.037 
			177.903,87.796 175.979,87.332 173.257,98.549 207.753,106.919 		"/>
		<polygon fill="#9C27B0" points="227.98,93.631 233.31,94.924 236.031,83.708 234.182,83.26 220.173,79.859 182.459,70.708 
			180.537,70.244 177.812,81.458 214.442,90.347 		"/>
		<polygon fill="#9C27B0" points="185.609,142.275 195.82,144.844 199.579,129.933 189.367,127.361 		"/>
		
			<rect x="205.535" y="55.798" transform="matrix(0.9697 0.2442 -0.2442 0.9697 21.8798 -49.5452)" fill="#9C27B0" width="10.528" height="15.379"/>
	</g>
</g>
</svg>
