<?xml version="1.0" encoding="utf-8"?>
<!-- Generator: Adobe Illustrator 16.0.0, SVG Export Plug-In . SVG Version: 6.00 Build 0)  -->
<!DOCTYPE svg PUBLIC "-//W3C//DTD SVG 1.1//EN" "http://www.w3.org/Graphics/SVG/1.1/DTD/svg11.dtd">
<svg version="1.1" id="Layer_1" xmlns="http://www.w3.org/2000/svg" xmlns:xlink="http://www.w3.org/1999/xlink" x="0px" y="0px"
	 width="300px" height="300px" viewBox="0 0 300 300" enable-background="new 0 0 300 300" xml:space="preserve">
<g>
	<g>
		<g>
			<path fill="#9C27B0" d="M269.919,0H30.08C13.493,0,0,13.494,0,30.079V269.92C0,286.507,13.493,300,30.08,300h239.839
				C286.507,300,300,286.507,300,269.92V30.079C300,13.494,286.507,0,269.919,0z M177.817,189.715v18.412h4.899
				c0.28-0.021,0.713-0.047,1.246-0.047c5.396,0,9.376,2.338,10.922,6.412c2.308,6.08-2.281,12.844-3.264,14.193l-33.277,44.336
				c-0.932,1.291-4.152,5.201-8.971,5.201c-3.924,0-7.199-3.602-8.425-5.149l-32.258-44.442c-1.157-1.46-5.725-7.768-3.722-13.971
				c1.347-4.158,5.691-6.544,11.921-6.544c2.924,0,4.604,0,5.646,0.037V189.83c-34.805-11.724-58.814-44.846-58.814-81.774
				c0-23.014,8.983-44.671,25.297-60.983c16.312-16.313,37.97-25.297,60.983-25.295c47.575,0,86.28,38.704,86.28,86.28
				C236.281,144.811,212.414,177.888,177.817,189.715z"/>
			<path fill="#9C27B0" d="M150.001,26.497c-21.754-0.001-42.225,8.491-57.646,23.914c-15.422,15.42-23.915,35.892-23.915,57.645
				c0,1.297,0.039,2.585,0.098,3.868c0.021,0.41,0.053,0.817,0.078,1.228c0.055,0.877,0.119,1.749,0.2,2.618
				c0.044,0.466,0.096,0.934,0.146,1.398c0.094,0.821,0.197,1.637,0.315,2.449c0.062,0.459,0.127,0.917,0.2,1.371
				c0.141,0.873,0.298,1.74,0.467,2.603c0.07,0.372,0.134,0.747,0.21,1.117c0.253,1.204,0.526,2.399,0.831,3.583
				c0.074,0.299,0.164,0.592,0.246,0.891c0.24,0.892,0.489,1.781,0.757,2.662c0.144,0.465,0.298,0.926,0.448,1.389
				c0.229,0.706,0.466,1.41,0.714,2.107c0.177,0.498,0.36,0.99,0.546,1.484c0.249,0.66,0.51,1.313,0.775,1.964
				c0.2,0.494,0.4,0.987,0.61,1.476c0.291,0.672,0.597,1.332,0.903,1.994c0.207,0.445,0.404,0.898,0.619,1.338
				c0.493,1.015,1.009,2.014,1.541,3.005c0.284,0.527,0.586,1.044,0.882,1.565c0.292,0.514,0.583,1.029,0.884,1.535
				c0.334,0.56,0.68,1.111,1.026,1.662c0.28,0.446,0.566,0.892,0.856,1.333c0.373,0.571,0.756,1.138,1.146,1.7
				c0.267,0.388,0.544,0.77,0.819,1.152c0.426,0.594,0.852,1.186,1.295,1.769c0.178,0.235,0.367,0.465,0.55,0.698
				c1.706,2.193,3.52,4.297,5.437,6.303c0.19,0.203,0.382,0.405,0.576,0.604c0.602,0.616,1.212,1.22,1.83,1.816
				c0.195,0.188,0.395,0.378,0.591,0.564c0.654,0.616,1.312,1.225,1.983,1.819c0.11,0.099,0.226,0.193,0.336,0.292
				c1.901,1.663,3.89,3.229,5.938,4.711c1.327,0.963,2.675,1.894,4.059,2.775c0.052,0.033,0.104,0.066,0.154,0.1
				c0.874,0.552,1.758,1.089,2.652,1.607c0.054,0.032,0.105,0.062,0.159,0.091c4.649,2.688,9.586,4.929,14.754,6.668
				c0.017,0.006,0.033,0.011,0.05,0.018c1.035,0.346,2.08,0.674,3.133,0.98v26.48h-4.567c-0.002,0-5.471-0.01-5.798-0.01
				c-1.914,0-6.472,0.32-7.43,3.279c-1.355,4.199,2.808,9.434,2.986,9.654l32.201,44.372c0.12,0.153,2.712,3.361,4.726,3.361
				c2.838,0,5.072-3.14,5.166-3.273l33.306-44.378c0.173-0.236,4.13-5.725,2.626-9.686c-1.11-2.93-4.555-3.364-6.508-3.364
				c-0.565,0-0.956,0.036-1.037,0.044h-9.829v-26.581c0.003,0,0.003,0,0.003,0c0.986-0.292,1.964-0.606,2.935-0.934
				c0.126-0.042,0.249-0.085,0.373-0.126c0.957-0.328,1.908-0.674,2.849-1.037c0.063-0.024,0.126-0.051,0.19-0.074
				c3.946-1.533,7.746-3.365,11.367-5.469c0.107-0.062,0.216-0.123,0.32-0.186c0.821-0.481,1.632-0.979,2.437-1.488
				c0.16-0.102,0.32-0.205,0.48-0.308c0.797-0.514,1.592-1.039,2.371-1.581c0.074-0.053,0.147-0.107,0.225-0.16
				c2.472-1.731,4.845-3.597,7.107-5.583c0.13-0.114,0.261-0.224,0.39-0.338c0.631-0.562,1.25-1.138,1.863-1.717
				c0.24-0.23,0.483-0.46,0.726-0.69c0.572-0.557,1.137-1.121,1.694-1.691c0.256-0.266,0.51-0.536,0.766-0.804
				c0.543-0.574,1.085-1.15,1.613-1.741c0.207-0.231,0.408-0.471,0.612-0.706c1.048-1.198,2.059-2.427,3.037-3.686
				c0.188-0.244,0.387-0.485,0.573-0.731c0.417-0.548,0.814-1.109,1.217-1.668c0.3-0.415,0.603-0.832,0.893-1.256
				c0.371-0.533,0.729-1.075,1.085-1.617c0.309-0.472,0.613-0.943,0.912-1.421c0.33-0.525,0.657-1.053,0.976-1.586
				c0.316-0.534,0.623-1.071,0.93-1.612c0.279-0.499,0.567-0.991,0.839-1.497c0.477-0.887,0.935-1.784,1.379-2.69
				c0.242-0.492,0.471-0.991,0.704-1.488c0.335-0.721,0.668-1.441,0.982-2.171c0.202-0.471,0.393-0.946,0.586-1.42
				c0.272-0.667,0.54-1.338,0.797-2.015c0.183-0.481,0.356-0.967,0.531-1.453c0.251-0.704,0.489-1.413,0.72-2.125
				c0.149-0.458,0.301-0.914,0.442-1.378c0.262-0.858,0.506-1.727,0.739-2.597c0.086-0.319,0.183-0.635,0.264-0.956
				c0.303-1.184,0.578-2.378,0.83-3.583c0.071-0.35,0.13-0.703,0.199-1.054c0.171-0.88,0.333-1.767,0.475-2.657
				c0.073-0.45,0.136-0.904,0.201-1.357c0.116-0.814,0.221-1.634,0.312-2.457c0.051-0.463,0.101-0.928,0.146-1.393
				c0.082-0.869,0.145-1.744,0.199-2.62c0.026-0.408,0.056-0.813,0.077-1.223c0.061-1.282,0.097-2.568,0.097-3.863
				C231.56,63.084,194.973,26.497,150.001,26.497z M182.16,221.076l-32.532,43.348l-31.453-43.348h15.987v-33.016
				c5.126,1.013,10.418,1.557,15.839,1.557c5.54,0,10.954-0.562,16.19-1.619v33.078H182.16z M173.097,179.684
				c-2.256,0.729-4.562,1.352-6.905,1.866c-5.22,1.149-10.633,1.774-16.19,1.774c-5.436,0-10.729-0.593-15.839-1.693
				c-2.346-0.502-4.65-1.111-6.907-1.828c-30.418-9.666-52.521-38.171-52.521-71.747c0-20.07,7.839-38.962,22.068-53.196
				c14.235-14.232,33.126-22.07,53.199-22.068c41.501,0,75.267,33.763,75.267,75.267
				C225.268,141.502,203.334,169.908,173.097,179.684z"/>
			<path fill="#9C27B0" d="M150.001,42.498c-36.148,0-65.56,29.409-65.56,65.558c0,28.225,17.93,52.337,42.994,61.556
				c2.206,0.812,4.469,1.497,6.779,2.07c5.058,1.256,10.344,1.934,15.786,1.934c5.585,0,11.008-0.706,16.186-2.027
				c2.296-0.584,4.538-1.295,6.729-2.114c24.882-9.314,42.644-33.327,42.644-61.416C215.559,71.908,186.15,42.498,150.001,42.498z
				 M150.001,48.791c32.678,0,59.265,26.585,59.265,59.267c0,32.677-26.587,59.263-59.265,59.263
				c-32.68,0-59.267-26.586-59.267-59.265C90.734,75.376,117.321,48.791,150.001,48.791z"/>
			<polygon fill="#9C27B0" points="147.722,137.649 160.649,140.785 162.572,141.253 170.234,143.11 172.436,143.648 
				175.527,130.902 175.542,130.836 147.722,124.086 129.961,119.775 115.795,116.338 112.166,115.458 109.06,128.269 
				119.917,130.902 			"/>
			<polygon fill="#9C27B0" points="147.722,115.465 165.485,119.775 175.873,122.296 178.073,122.833 179.648,116.338 
				181.183,110.02 175.679,108.684 147.722,101.9 132.858,98.294 120.003,95.173 117.806,94.643 115.924,102.403 114.697,107.453 
				119.767,108.684 			"/>
			<polygon fill="#9C27B0" points="162.585,98.294 179.522,102.403 183.279,103.313 186.384,90.503 175.527,87.867 147.722,81.121 
				125.21,75.658 123.01,75.128 119.917,87.867 119.901,87.938 147.722,94.688 			"/>
			<polygon fill="#9C27B0" points="133.097,140.357 132.871,141.253 128.807,157.388 140.465,160.32 144.755,143.293 
				134.797,140.785 			"/>
			<polygon fill="#9C27B0" points="165.546,60.366 153.885,57.432 149.594,74.46 161.254,77.396 			"/>
		</g>
	</g>
</g>
</svg>
