<?xml version="1.0" encoding="utf-8"?>
<!-- Generator: Adobe Illustrator 16.0.0, SVG Export Plug-In . SVG Version: 6.00 Build 0)  -->
<!DOCTYPE svg PUBLIC "-//W3C//DTD SVG 1.1//EN" "http://www.w3.org/Graphics/SVG/1.1/DTD/svg11.dtd">
<svg version="1.1" id="Layer_1" xmlns="http://www.w3.org/2000/svg" xmlns:xlink="http://www.w3.org/1999/xlink" x="0px" y="0px"
	 width="300px" height="300px" viewBox="0 0 300 300" enable-background="new 0 0 300 300" xml:space="preserve">
<g>
	<path fill="#9C27B0" d="M269.92,0H30.079C13.493,0,0,13.494,0,30.08v239.84C0,286.507,13.493,300,30.079,300H269.92
		c16.584,0,30.08-13.493,30.08-30.08V30.08C300,13.494,286.504,0,269.92,0z M256.266,133.512c0,3.479-1.229,6.916-7.232,12.383
		c-6.419,5.847-18.077,13.633-34.649,23.14c-9.701,5.565-21.283,11.716-32.424,16.928c1.807-0.207,3.633-0.336,5.481-0.336
		c7.803,0,15.577,1.95,22.487,5.642c23.296,12.439,32.125,41.512,19.688,64.809c-8.344,15.621-24.561,25.324-42.317,25.324
		c-0.001,0,0,0-0.001,0c-7.805,0-15.581-1.95-22.491-5.639c-11.27-6.02-19.524-16.082-23.247-28.335
		c-3.721-12.252-2.454-25.206,3.562-36.475c3.263-6.111,7.745-11.302,13.04-15.375c-1.428,0.447-2.82,0.86-4.126,1.198
		c-0.931,0.238-1.915,0.358-2.928,0.358c-2.079,0-5.601-0.529-14.444-4.216c-0.776,2.144-1.705,4.232-2.78,6.246
		c-8.344,15.622-24.561,25.326-42.319,25.326c-7.804,0-15.58-1.951-22.492-5.642c-11.268-6.017-19.523-16.078-23.245-28.333
		c-3.721-12.254-2.457-25.207,3.56-36.475c1.338-2.502,2.891-4.875,4.642-7.094c-2.746-2.127-4.68-3.928-6.057-5.612
		c-2.069-2.534-3.034-5.021-3.034-7.823V42.165c0-12.994,10.572-23.565,23.566-23.565h164.194c12.995,0,23.567,10.571,23.567,23.565
		V133.512z"/>
	<path fill="#9C27B0" d="M232.698,23.318H68.504c-10.393,0-18.847,8.455-18.847,18.847v91.347c0,1.494,0.444,2.969,1.973,4.838
		c1.627,1.994,4.484,4.438,9.363,7.844c-2.89,2.908-5.414,6.274-7.441,10.07c-11.215,20.999-3.255,47.208,17.745,58.422
		c21,11.215,47.207,3.255,58.422-17.744c1.807-3.383,3.109-6.9,3.945-10.471c7.654,3.438,14.311,5.942,17.444,5.942
		c0.619,0,1.208-0.07,1.752-0.21c15.56-3.998,40.771-16.705,59.173-27.263c18.807-10.79,28.657-17.831,33.822-22.535
		c5.687-5.179,5.69-7.521,5.69-8.894V42.165C251.546,31.773,243.092,23.318,232.698,23.318z M121.946,192.79
		c-8.926,16.714-29.785,23.051-46.499,14.124c-16.715-8.927-23.048-29.786-14.123-46.499c1.903-3.565,4.354-6.653,7.188-9.229
		c2.715-2.465,5.784-4.448,9.071-5.919c9.369-4.189,20.505-4.176,30.238,1.023c10.023,5.353,16.308,14.998,17.815,25.465
		c0.513,3.578,0.467,7.249-0.177,10.879C124.844,186.098,123.691,189.524,121.946,192.79z M68.504,33.148l164.194,0.001
		c0.466,0,0.916,0.045,1.36,0.112l-37.487,66.193l-46.766-28.276l-47.309,28.226L65.308,33.743
		C66.302,33.364,67.378,33.148,68.504,33.148z M59.487,43.413l34.562,61.028l-34.562,20.622V43.413z M111.974,138.52
		c-13.981-7.465-30.26-6.425-42.895,1.293c-2.893-1.938-5.196-3.594-6.874-4.926l56.425-33.662
		c-1.901,17.051,6.519,34.353,22.552,42.916c20.999,11.215,47.207,3.255,58.421-17.743c1.735-3.251,3.009-6.624,3.849-10.047
		l-7.998-4.915c-0.581,3.687-1.766,7.338-3.62,10.81c-8.928,16.715-29.785,23.051-46.502,14.125
		c-15.021-8.024-21.654-25.686-16.361-41.313c0.035-0.099,0.063-0.2,0.098-0.299l7.155-4.03l13.548-8.081l88.403,53.452
		c-0.347,0.288-0.722,0.59-1.116,0.901c-5.816,4.623-16.669,11.94-32.498,20.885c-21.496,12.145-41.973,21.555-53.666,24.673
		c-2.095-0.295-7.85-2.56-16.099-6.396C134.613,160.909,126.352,146.199,111.974,138.52z M241.716,126.753l-36.732-22.21
		l36.487-64.423c0.155,0.658,0.245,1.34,0.245,2.045V126.753z"/>
	<polygon fill="#9C27B0" points="153.936,85.925 152.809,87.188 179.599,111.094 184.434,105.679 180.786,102.424 	"/>
	<polygon fill="#9C27B0" points="149.506,90.417 144.671,95.835 170.536,118.914 171.465,119.741 176.297,114.326 150.435,91.25 	
		"/>
	<polygon fill="#9C27B0" points="137.083,103.965 162.943,127.04 163.876,127.87 168.708,122.454 141.913,98.547 	"/>
	<polygon fill="#9C27B0" points="139.387,124.005 144.29,128.455 150.79,121.298 145.889,116.85 	"/>
	<polygon fill="#9C27B0" points="87.757,152.317 82.925,157.732 89.782,163.853 109.717,181.637 113.962,176.881 114.549,176.224 
		88.687,153.148 	"/>
	<polygon fill="#9C27B0" points="79.619,160.963 74.787,166.379 100.65,189.457 101.579,190.284 106.411,184.872 80.548,161.794 	
		"/>
	<polygon fill="#9C27B0" points="67.199,174.51 93.06,197.584 93.991,198.414 98.821,193 72.029,169.092 	"/>
	<polygon fill="#9C27B0" points="107.558,162.414 112.512,156.958 107.608,152.51 101.567,159.162 101.108,159.668 106.012,164.117 
			"/>
	<polygon fill="#9C27B0" points="69.502,194.551 74.405,198.998 80.906,191.842 76.004,187.393 	"/>
	<path fill="#9C27B0" d="M149.284,213.176c-11.215,20.998-3.255,47.205,17.745,58.421c21,11.215,47.207,3.255,58.422-17.744
		s3.253-47.207-17.745-58.424C186.707,184.215,160.498,192.176,149.284,213.176z M203.555,203.201
		c16.716,8.927,23.051,29.789,14.127,46.5c-8.928,16.715-29.789,23.05-46.502,14.124c-16.714-8.927-23.048-29.784-14.125-46.499
		C165.984,200.612,186.84,194.274,203.555,203.201z"/>
	<polygon fill="#9C27B0" points="210.281,233.135 184.422,210.058 183.49,209.228 178.657,214.645 205.449,238.55 	"/>
	<polygon fill="#9C27B0" points="197.313,247.196 202.145,241.783 176.283,218.707 175.354,217.874 170.521,223.291 
		196.385,246.369 	"/>
	<polygon fill="#9C27B0" points="189.725,255.324 194.557,249.91 167.764,226.002 162.933,231.42 188.794,254.497 	"/>
	
		<rect x="199.234" y="210.39" transform="matrix(0.7404 0.6721 -0.6721 0.7404 197.2291 -80.27)" fill="#9C27B0" width="6.618" height="9.67"/>
	
		<rect x="167.628" y="245.272" transform="matrix(-0.7402 -0.6724 0.6724 -0.7402 129.3073 550.175)" fill="#9C27B0" width="6.62" height="9.67"/>
</g>
</svg>
