<?xml version="1.0" encoding="utf-8"?>
<!-- Generator: Adobe Illustrator 16.0.0, SVG Export Plug-In . SVG Version: 6.00 Build 0)  -->
<!DOCTYPE svg PUBLIC "-//W3C//DTD SVG 1.1//EN" "http://www.w3.org/Graphics/SVG/1.1/DTD/svg11.dtd">
<svg version="1.1" id="Layer_1" xmlns="http://www.w3.org/2000/svg" xmlns:xlink="http://www.w3.org/1999/xlink" x="0px" y="0px"
	 width="300px" height="300px" viewBox="0 0 300 300" enable-background="new 0 0 300 300" xml:space="preserve">
<g>
	<g>
		<path fill="#9C27B0" d="M269.92,0H30.08C13.493,0,0,13.495,0,30.081v239.838C0,286.507,13.493,300,30.08,300h239.84
			c16.586,0,30.08-13.493,30.08-30.081V30.081C300,13.495,286.506,0,269.92,0z M277.441,102.802
			c-0.015,0.283-0.037,0.563-0.062,0.844l-0.055,0.754c-0.047,0.69-0.093,1.384-0.162,2.08c-0.034,0.337-0.079,0.67-0.123,1.005
			l-0.112,0.911c-0.069,0.568-0.136,1.136-0.222,1.701c-0.059,0.384-0.127,0.765-0.198,1.145l-0.145,0.83
			c-0.091,0.53-0.183,1.061-0.29,1.594c-0.079,0.397-0.17,0.789-0.265,1.183l-0.189,0.837c-0.109,0.494-0.22,0.989-0.346,1.482
			c-0.107,0.422-0.228,0.839-0.347,1.257l-0.228,0.811c-0.125,0.456-0.251,0.913-0.394,1.369c-0.136,0.442-0.281,0.878-0.431,1.315
			l-0.27,0.808c-0.139,0.414-0.275,0.826-0.424,1.241c-0.167,0.457-0.343,0.909-0.52,1.361l-0.276,0.709
			c-0.158,0.406-0.316,0.812-0.483,1.212c-0.203,0.487-0.418,0.966-0.633,1.444l-0.277,0.623c-0.171,0.383-0.344,0.767-0.521,1.14
			c-0.249,0.526-0.514,1.045-0.777,1.562l-0.25,0.495c-0.181,0.354-0.358,0.709-0.548,1.062c-0.31,0.579-0.635,1.148-0.974,1.744
			l-0.177,0.311c-0.184,0.324-0.371,0.65-0.568,0.98c-0.348,0.582-0.712,1.156-1.074,1.727l-0.126,0.199
			c-0.214,0.336-0.43,0.673-0.645,1c-0.388,0.584-0.789,1.158-1.192,1.73l-0.131,0.188c-0.217,0.308-0.436,0.617-0.661,0.925
			c-0.424,0.579-0.859,1.146-1.3,1.712l-0.094,0.119c-0.234,0.301-0.469,0.601-0.711,0.901c-0.465,0.573-0.939,1.136-1.423,1.698
			l-0.139,0.162c-0.22,0.257-0.438,0.514-0.666,0.77c-0.504,0.564-1.016,1.119-1.539,1.672l-0.11,0.119
			c-0.229,0.241-0.458,0.482-0.693,0.727c-0.543,0.555-1.095,1.101-1.697,1.68c-0.254,0.242-0.505,0.485-0.759,0.722
			c-0.581,0.545-1.174,1.078-1.774,1.604c-0.262,0.228-0.521,0.456-0.788,0.682c-0.624,0.531-1.256,1.052-1.896,1.56
			c-0.251,0.201-0.504,0.401-0.768,0.605c-0.666,0.514-1.338,1.017-2.02,1.51c-0.246,0.176-0.491,0.349-0.738,0.524
			c-0.709,0.496-1.427,0.983-2.143,1.447l-0.719,0.463c-0.75,0.474-1.504,0.938-2.268,1.384l-0.675,0.39
			c-0.792,0.45-1.59,0.889-2.395,1.309l-0.639,0.329c-0.832,0.424-1.67,0.836-2.519,1.227l-0.589,0.269
			c-0.873,0.394-1.755,0.775-2.652,1.139l-0.533,0.211c-0.168,0.067-0.337,0.134-0.506,0.2c8.478,0.258,15.074,3.907,17.756,9.871
			c2.811,6.256,0.943,13.766-5.124,20.598l-62.309,70.178l-0.292,0.301c-0.633,0.598-6.395,5.847-13.156,5.847
			c-0.204,0-0.404-0.005-0.604-0.014c-6.798-0.312-12.605-5.473-13.244-6.06l-0.223-0.205l-58.855-69.886
			c-0.604-0.715-1.237-1.426-1.875-2.138c-4.475-5.006-11.236-12.569-4.386-22.291c3.78-5.365,9.533-5.986,13.53-5.986
			c1.413,0,2.786,0.082,4.114,0.16c0.994,0.059,1.972,0.118,2.916,0.132l18.001,0.282c-0.003-6.051-0.331-11.901-0.982-17.447
			c-1.69-14.402-6.347-33.287-18.92-41.467c-7.01-4.561-13.355-6.686-19.97-6.686c-10.258,0-21.757,5.297-34.177,15.741
			c-3.309,2.78-7.516,4.312-11.846,4.312c-4.487,0-8.785-1.696-12.104-4.774c-0.29-0.271-0.455-0.421-0.552-0.507
			c-0.292-0.219-0.478-0.403-1.299-1.216c-7.439-7.369-5.66-20.43,4.887-35.835l0.118-0.164c0.42-0.561,0.84-1.119,1.262-1.678
			l0.141-0.311l0.304-0.414c6.801-9.212,15.432-17.364,25.652-24.229c17.445-11.715,37.665-18.167,56.93-18.167
			c13.145,0,25.542,2.913,36.849,8.656c0.518,0.264,1.032,0.532,1.542,0.806c0.799-0.731,1.642-1.467,2.507-2.188l0.099-0.087
			c0.891-0.739,1.811-1.468,2.679-2.123l0.099-0.074c0.882-0.665,1.793-1.321,2.755-1.979l0.133-0.093
			c0.945-0.643,1.928-1.276,2.837-1.833l0.149-0.095c0.952-0.583,1.957-1.165,2.912-1.688l0.176-0.101
			c0.944-0.517,1.923-1.022,2.93-1.513c0.085-0.046,0.171-0.09,0.253-0.13c0.918-0.444,1.892-0.889,2.988-1.362
			c0.1-0.045,0.196-0.091,0.276-0.123c0.88-0.376,1.819-0.75,3.009-1.199c0.113-0.045,0.228-0.091,0.344-0.134
			c0.95-0.352,1.917-0.674,2.896-0.988l0.116-0.04c0.137-0.05,0.273-0.095,0.416-0.141c0.924-0.288,1.857-0.547,2.795-0.8
			l0.188-0.054c0.177-0.053,0.35-0.103,0.519-0.146c0.895-0.232,1.805-0.434,2.708-0.633l0.257-0.059
			c0.198-0.049,0.4-0.097,0.601-0.138c0.813-0.168,1.637-0.309,2.462-0.447l0.491-0.087c0.223-0.041,0.447-0.084,0.678-0.119
			c0.763-0.117,1.536-0.208,2.31-0.301l0.62-0.077c0.253-0.035,0.502-0.068,0.754-0.093c0.922-0.094,1.854-0.155,2.773-0.214
			l0.291-0.022c0.221-0.02,0.444-0.039,0.672-0.051c1.261-0.063,2.53-0.096,3.778-0.096c40.464,0,73.383,32.92,73.383,73.384
			C277.534,100.289,277.504,101.54,277.441,102.802z"/>
		<path fill="#9C27B0" d="M204.174,30.414c-0.005,0-0.008,0-0.012,0c-1.184,0-2.358,0.03-3.527,0.089
			c-0.303,0.016-0.595,0.05-0.894,0.069c-0.87,0.055-1.74,0.111-2.602,0.198c-0.347,0.037-0.688,0.091-1.034,0.132
			c-0.807,0.095-1.614,0.188-2.411,0.309c-0.319,0.051-0.63,0.117-0.946,0.169c-0.82,0.139-1.64,0.275-2.45,0.441
			c-0.268,0.056-0.531,0.126-0.799,0.186c-0.849,0.185-1.699,0.372-2.535,0.59c-0.224,0.057-0.439,0.127-0.66,0.188
			c-0.878,0.237-1.752,0.477-2.614,0.747c-0.171,0.054-0.338,0.118-0.507,0.171c-0.905,0.293-1.812,0.595-2.7,0.922
			c-0.125,0.045-0.248,0.1-0.371,0.146c-0.93,0.35-1.853,0.71-2.763,1.099c-0.091,0.038-0.178,0.082-0.27,0.121
			c-0.939,0.406-1.868,0.826-2.788,1.271c-0.062,0.029-0.12,0.063-0.181,0.093c-0.944,0.461-1.877,0.94-2.797,1.444
			c-0.032,0.018-0.063,0.037-0.097,0.055c-0.942,0.519-1.873,1.058-2.791,1.617c-0.02,0.014-0.041,0.027-0.063,0.042
			c-0.925,0.568-1.835,1.155-2.732,1.766c-0.011,0.006-0.019,0.013-0.027,0.021c-0.907,0.617-1.798,1.254-2.672,1.914
			c-0.015,0.01-0.026,0.021-0.039,0.03c-0.871,0.656-1.726,1.334-2.562,2.03c-0.019,0.016-0.036,0.032-0.055,0.047
			c-0.829,0.691-1.644,1.401-2.44,2.13c-0.03,0.029-0.059,0.058-0.089,0.084c-0.779,0.718-1.546,1.453-2.294,2.206
			c-0.004,0.004-0.01,0.011-0.015,0.016c-0.003-0.003-0.005-0.004-0.009-0.005c0-0.002-0.002-0.003-0.004-0.003
			c-0.68-0.405-1.366-0.798-2.059-1.181c-0.041-0.023-0.081-0.049-0.123-0.071c-0.733-0.404-1.472-0.797-2.219-1.177
			c-10.636-5.403-22.313-8.143-34.711-8.143c-0.003,0-0.004,0-0.008,0c-18.334,0.002-37.615,6.169-54.289,17.365
			c-9.808,6.586-18.118,14.487-24.483,23.112c-0.096,0.214-0.222,0.429-0.384,0.646c-0.444,0.587-0.896,1.184-1.346,1.785
			c-4.775,6.975-13.291,22.06-5.46,29.815c1.484,1.47,0.205,0.192,1.739,1.617c2.661,2.47,5.888,3.55,9.045,3.514
			c3.168-0.036,6.268-1.195,8.654-3.203c13.292-11.177,25.812-16.846,37.209-16.849c0.002,0,0.004,0,0.007,0
			c7.567,0,14.732,2.368,22.543,7.45c14.111,9.18,19.226,29.466,21.035,44.873c1,8.527,1.118,16.578,0.952,22.791h-0.022
			l-22.711-0.355c-2.166-0.033-4.514-0.279-6.805-0.291c-3.807-0.018-7.452,0.619-9.822,3.984
			c-5.412,7.682,1.284,13.055,6.014,18.67l58.658,69.653c0,0,4.985,4.578,10.266,4.822c0.002,0,0.002,0,0.004,0
			c5.221,0.243,10.304-4.554,10.304-4.554l62.309-70.176c10.23-11.521,4.61-22.722-10.252-22.632c0,0-0.015,0-0.017,0
			c-0.431,0.003-22.242,0.136-22.242,0.136c-0.058-1.583-0.146-3.127-0.224-4.683c1.122-0.045,2.238-0.12,3.347-0.22
			c0.025-0.001,0.051-0.002,0.074-0.004c1.08-0.099,2.149-0.224,3.214-0.371c0.057-0.008,0.113-0.013,0.172-0.021
			c1.035-0.146,2.061-0.318,3.08-0.509c0.086-0.016,0.172-0.029,0.254-0.046c0.992-0.189,1.976-0.405,2.951-0.639
			c0.111-0.024,0.224-0.047,0.333-0.076c0.952-0.23,1.894-0.486,2.828-0.757c0.133-0.038,0.265-0.072,0.395-0.111
			c0.911-0.271,1.815-0.563,2.712-0.868c0.148-0.052,0.3-0.102,0.449-0.153c0.873-0.306,1.739-0.632,2.597-0.972
			c0.166-0.066,0.332-0.131,0.499-0.196c0.836-0.34,1.66-0.696,2.478-1.065c0.184-0.084,0.367-0.166,0.549-0.25
			c0.794-0.367,1.582-0.752,2.359-1.148c0.196-0.102,0.397-0.202,0.593-0.306c0.757-0.395,1.503-0.804,2.242-1.227
			c0.212-0.12,0.42-0.24,0.629-0.363c0.719-0.421,1.425-0.853,2.129-1.298c0.222-0.141,0.442-0.281,0.66-0.425
			c0.679-0.441,1.349-0.896,2.01-1.36c0.231-0.162,0.463-0.327,0.692-0.492c0.641-0.461,1.272-0.934,1.896-1.414
			c0.24-0.187,0.477-0.373,0.713-0.562c0.604-0.479,1.195-0.967,1.779-1.464c0.248-0.21,0.491-0.423,0.734-0.636
			c0.562-0.492,1.118-0.992,1.664-1.502c0.252-0.236,0.5-0.475,0.747-0.713c0.525-0.506,1.044-1.017,1.551-1.537
			c0.256-0.261,0.505-0.527,0.757-0.793c0.485-0.516,0.968-1.035,1.439-1.564c0.255-0.288,0.503-0.58,0.754-0.873
			c0.449-0.521,0.896-1.05,1.33-1.586c0.254-0.316,0.501-0.637,0.751-0.956c0.412-0.53,0.821-1.063,1.22-1.604
			c0.251-0.342,0.495-0.691,0.738-1.037c0.378-0.535,0.753-1.072,1.114-1.617c0.247-0.371,0.483-0.749,0.722-1.125
			c0.343-0.537,0.685-1.075,1.012-1.621c0.236-0.399,0.465-0.806,0.693-1.209c0.309-0.539,0.617-1.078,0.912-1.629
			c0.227-0.426,0.442-0.858,0.661-1.289c0.274-0.541,0.55-1.08,0.812-1.629c0.216-0.453,0.416-0.915,0.623-1.374
			c0.242-0.54,0.486-1.078,0.714-1.624c0.203-0.481,0.387-0.971,0.577-1.455c0.209-0.539,0.424-1.076,0.621-1.619
			c0.186-0.511,0.352-1.029,0.523-1.545c0.178-0.533,0.363-1.062,0.529-1.6c0.167-0.541,0.312-1.089,0.466-1.636
			c0.147-0.525,0.302-1.048,0.438-1.578c0.146-0.57,0.271-1.151,0.4-1.73c0.114-0.515,0.243-1.026,0.349-1.545
			c0.121-0.609,0.223-1.229,0.328-1.846c0.09-0.496,0.186-0.989,0.261-1.488c0.102-0.659,0.175-1.327,0.255-1.992
			c0.055-0.467,0.126-0.929,0.175-1.399c0.075-0.746,0.12-1.501,0.173-2.255c0.025-0.396,0.066-0.787,0.087-1.184
			c0.057-1.155,0.088-2.314,0.088-3.483C272.837,61.215,242.034,30.414,204.174,30.414z M226.95,188.677l0.04,0.022l-59.748,67.295
			l-55.811-66.271c-0.379-0.934-0.831-2.937,2.095-3.303l-0.002-0.004l30.712,0.479c0,0,8.856-69.354-27.278-92.864
			c-7.569-4.927-17.567-9.652-29.961-9.652c-12.779,0-28.114,5.025-45.971,20.042l-0.8-0.799
			c9.883-26.303,43.076-49.843,76.086-49.843c10.417,0,20.811,2.347,30.453,7.684c-7.106,10.812-11.261,23.734-11.261,37.614
			c0,34.176,25.102,62.592,57.836,67.803c0.333,6.092,0.51,12.467,0.503,19.154l32.166-0.194
			C228.206,186.539,226.95,188.677,226.95,188.677z M258.822,99.076c0,29.53-23.548,53.653-52.851,54.608
			c-0.597,0.02-1.195,0.047-1.798,0.047c-4.115,0-8.122-0.473-11.98-1.34c-24.394-5.478-42.674-27.295-42.674-53.314
			c0-10.858,3.195-20.977,8.676-29.492c2.471-3.835,5.4-7.344,8.721-10.445c9.771-9.119,22.869-14.716,37.258-14.716
			C234.306,44.425,258.822,68.939,258.822,99.076z"/>
		<polygon fill="#9C27B0" points="185.566,117.142 177.811,119.024 180.535,130.245 182.463,129.776 188.383,128.341 
			201.584,125.137 236.031,116.775 233.312,105.56 198.769,113.939 		"/>
		<polygon fill="#9C27B0" points="192.486,96.036 179.091,99.288 172.875,100.796 175.601,112.017 177.527,111.547 183.348,110.134 
			196.599,106.918 231.094,98.549 228.372,87.332 226.449,87.796 		"/>
		<polygon fill="#9C27B0" points="176.371,93.631 189.909,90.346 226.54,81.458 223.816,70.244 221.892,70.707 184.18,79.859 
			170.169,83.26 168.32,83.708 171.042,94.924 		"/>
		<polygon fill="#9C27B0" points="204.773,129.933 208.53,144.844 218.743,142.275 214.984,127.361 		"/>
		
			<rect x="185.863" y="58.223" transform="matrix(0.2443 0.9697 -0.9697 0.2443 207.8371 -139.7106)" fill="#9C27B0" width="15.379" height="10.53"/>
	</g>
</g>
</svg>
