<?xml version="1.0" encoding="utf-8"?>
<!-- Generator: Adobe Illustrator 16.0.0, SVG Export Plug-In . SVG Version: 6.00 Build 0)  -->
<!DOCTYPE svg PUBLIC "-//W3C//DTD SVG 1.1//EN" "http://www.w3.org/Graphics/SVG/1.1/DTD/svg11.dtd">
<svg version="1.1" id="Layer_1" xmlns="http://www.w3.org/2000/svg" xmlns:xlink="http://www.w3.org/1999/xlink" x="0px" y="0px"
	 width="300px" height="300px" viewBox="0 0 300 300" enable-background="new 0 0 300 300" xml:space="preserve">
<g>
	<path fill="#9C27B0" d="M231.394,101.508c-0.064-1.105-0.14-2.208-0.252-3.301c-0.019-0.192-0.048-0.379-0.069-0.57
		c-0.129-1.188-0.271-2.37-0.451-3.541c-0.006-0.046-0.017-0.09-0.022-0.136c-2.614-17.002-10.531-32.703-22.951-45.122
		c-12.448-12.448-28.188-20.374-45.235-22.971c-0.004,0-0.006,0-0.01-0.001c-1.216-0.186-2.443-0.338-3.678-0.467
		c-0.146-0.017-0.289-0.042-0.436-0.056c-1.138-0.114-2.283-0.193-3.432-0.262c-0.235-0.014-0.472-0.039-0.707-0.052
		c-1.376-0.069-2.76-0.105-4.15-0.105l0,0l0,0c-0.001,0-0.003,0-0.003,0c-1.389,0-2.771,0.036-4.146,0.105
		c-0.235,0.013-0.469,0.037-0.703,0.052c-1.15,0.068-2.299,0.147-3.435,0.262c-0.148,0.014-0.295,0.039-0.443,0.056
		c-1.23,0.131-2.457,0.281-3.673,0.467c-0.002,0.001-0.003,0.001-0.003,0.001c-17.05,2.597-32.792,10.522-45.24,22.972
		c-12.42,12.418-20.337,28.119-22.95,45.121c-0.006,0.046-0.017,0.09-0.022,0.136c-0.181,1.171-0.323,2.354-0.452,3.541
		c-0.021,0.191-0.051,0.378-0.069,0.57c-0.111,1.093-0.187,2.195-0.252,3.301c-0.018,0.279-0.049,0.553-0.062,0.831
		c-0.07,1.376-0.106,2.758-0.106,4.144v0.001c0,13.042,3.094,25.368,8.562,36.31c0.781,1.562,1.612,3.098,2.488,4.604
		c0.26,0.447,0.507,0.904,0.775,1.348c0.091,0.149,0.19,0.293,0.284,0.441c10.504,17.025,27.092,29.9,46.706,35.606v26.483h-4.568
		c-0.001-0.002-5.47-0.012-5.798-0.012c-1.914,0-6.472,0.32-7.43,3.279c-1.354,4.201,2.809,9.434,2.987,9.654l32.201,44.371
		c0.119,0.152,2.711,3.361,4.728,3.361c2.836,0,5.07-3.141,5.164-3.273l33.306-44.379c0.173-0.236,4.13-5.723,2.626-9.684
		c-1.11-2.93-4.554-3.365-6.508-3.365c-0.565,0-0.954,0.037-1.037,0.047h-9.829v-26.582c1.218-0.361,2.422-0.748,3.614-1.163
		c17.883-6.216,32.952-18.479,42.742-34.345c0.091-0.148,0.193-0.292,0.284-0.441c0.268-0.443,0.516-0.9,0.774-1.348
		c0.877-1.506,1.707-3.041,2.488-4.604c5.47-10.941,8.561-23.268,8.561-36.31v-0.001c0-1.386-0.034-2.768-0.104-4.144
		C231.442,102.061,231.412,101.787,231.394,101.508z M166.192,179.979c-5.221,1.148-10.634,1.771-16.192,1.771
		c-5.433,0-10.729-0.591-15.839-1.691c-2.342-0.504-4.647-1.111-6.906-1.828c-11.341-3.604-21.515-9.829-29.831-17.957
		c-0.201-0.2-0.417-0.389-0.619-0.594c-0.398-0.396-0.773-0.81-1.16-1.215c-0.445-0.465-0.9-0.923-1.336-1.4
		c-0.145-0.158-0.279-0.328-0.423-0.49c-11.9-13.315-19.151-30.869-19.151-50.091c0-1.283,0.032-2.557,0.096-3.825
		c0.014-0.257,0.041-0.513,0.057-0.768c0.061-1.02,0.13-2.036,0.23-3.043c0.021-0.188,0.05-0.374,0.071-0.562
		c0.116-1.084,0.248-2.162,0.412-3.229c0.008-0.058,0.021-0.114,0.029-0.169c2.116-13.629,7.899-26.061,16.31-36.247
		c0.033-0.039,0.067-0.078,0.099-0.118c0.732-0.882,1.48-1.747,2.251-2.594c0.708-0.781,1.443-1.544,2.188-2.298
		c0.222-0.226,0.445-0.448,0.668-0.67c0.755-0.744,1.519-1.477,2.299-2.187c10.684-9.705,24.16-16.385,39.064-18.678
		c0.017-0.005,0.035-0.008,0.053-0.012c1.108-0.168,2.229-0.306,3.353-0.426c0.148-0.017,0.295-0.039,0.442-0.055
		c1.047-0.105,2.106-0.179,3.168-0.242c0.216-0.011,0.428-0.036,0.646-0.047c1.271-0.064,2.547-0.097,3.831-0.097
		c1.285,0,2.562,0.032,3.83,0.097c0.218,0.011,0.432,0.036,0.648,0.047c1.061,0.063,2.118,0.137,3.167,0.242
		c0.148,0.016,0.295,0.038,0.442,0.055c1.125,0.12,2.244,0.258,3.354,0.426c0.018,0.004,0.033,0.007,0.053,0.011
		c14.903,2.294,28.38,8.974,39.062,18.679c0.781,0.71,1.544,1.442,2.3,2.187c0.223,0.222,0.446,0.444,0.669,0.67
		c0.743,0.754,1.479,1.517,2.187,2.298c0.771,0.847,1.518,1.712,2.248,2.594c0.035,0.04,0.069,0.079,0.102,0.118
		c8.409,10.187,14.194,22.618,16.31,36.247c0.009,0.055,0.021,0.111,0.03,0.169c0.163,1.067,0.296,2.146,0.411,3.229
		c0.02,0.188,0.051,0.373,0.068,0.562c0.102,1.007,0.173,2.023,0.233,3.043c0.017,0.255,0.044,0.511,0.058,0.768
		c0.063,1.269,0.095,2.542,0.095,3.825c0,19.222-7.25,36.775-19.151,50.091c-0.144,0.162-0.278,0.332-0.424,0.49
		c-0.434,0.478-0.889,0.936-1.335,1.4c-0.386,0.405-0.763,0.818-1.159,1.215c-0.203,0.205-0.417,0.394-0.621,0.594
		c-8.227,8.043-18.281,14.217-29.479,17.838C170.839,178.842,168.535,179.463,166.192,179.979z M182.16,219.506l-32.531,43.344
		l-31.455-43.344h15.987v-33.018c3.797,0.75,7.686,1.248,11.648,1.451c0.315,0.014,0.636,0.01,0.949,0.021
		c1.079,0.043,2.154,0.084,3.241,0.084l0,0l0,0c1.089,0,2.164-0.041,3.24-0.084c0.316-0.012,0.637-0.008,0.951-0.021
		c4.085-0.21,8.093-0.727,12.001-1.514v33.08H182.16z"/>
	<path fill="#9C27B0" d="M210.399,131.977c0.097-0.229,0.181-0.467,0.276-0.699c3.139-7.652,4.883-16.021,4.883-24.794v-0.001
		c0-36.148-29.408-65.557-65.559-65.557l0,0l0,0c-36.148,0-65.559,29.408-65.559,65.557v0.001c0,8.772,1.745,17.142,4.885,24.794
		c0.096,0.232,0.178,0.471,0.275,0.699c0.049,0.115,0.104,0.227,0.154,0.34c0.442,1.029,0.911,2.047,1.406,3.049
		c7.409,15.036,20.41,26.84,36.273,32.674c2.206,0.812,4.471,1.496,6.778,2.07c5.059,1.254,10.344,1.934,15.786,1.934l0,0l0,0
		c5.586,0,11.01-0.707,16.187-2.027c2.296-0.585,4.538-1.295,6.729-2.115c16.76-6.273,30.284-19.215,37.33-35.584
		C210.296,132.203,210.351,132.092,210.399,131.977z M150,47.218c32.68,0.001,59.266,26.588,59.266,59.266
		c0,1.565-0.08,3.114-0.199,4.651c-0.047,0.59-0.09,1.182-0.154,1.766c-0.354,3.277-0.984,6.471-1.854,9.566
		c-6.995,24.937-29.916,43.281-57.059,43.283c-27.141-0.002-50.062-18.347-57.059-43.283c-0.868-3.096-1.499-6.289-1.853-9.566
		c-0.064-0.584-0.107-1.176-0.153-1.766c-0.12-1.537-0.201-3.086-0.201-4.651C90.734,73.806,117.321,47.22,150,47.218z"/>
	<polygon fill="#9C27B0" points="150,135.525 174.79,141.539 176.991,142.076 180.098,129.263 177.953,128.742 150,121.96 
		132.237,117.65 116.725,113.887 116.152,116.239 113.615,126.697 122.048,128.742 	"/>
	<polygon fill="#9C27B0" points="150,113.34 167.761,117.65 180.43,120.724 182.629,121.26 183.849,116.239 185.74,108.447 
		177.956,106.558 150,99.775 135.137,96.167 124.561,93.602 122.362,93.071 120.763,99.656 119.253,105.881 122.045,106.558 	"/>
	<polygon fill="#9C27B0" points="164.864,96.167 179.236,99.656 187.835,101.742 190.942,88.93 175.242,85.121 150,78.997 
		135.531,75.486 134.013,75.117 129.766,74.087 127.566,73.556 124.759,85.121 124.456,86.366 150,92.562 	"/>
	
		<rect x="135.324" y="139.986" transform="matrix(-0.9697 -0.2442 0.2442 -0.9697 242.0714 327.5403)" fill="#9C27B0" width="12.023" height="17.562"/>
	<polygon fill="#9C27B0" points="165.812,75.824 165.988,75.117 170.102,58.793 158.44,55.86 154.149,72.889 164.471,75.486 	"/>
	<path fill="#9C27B0" d="M269.922,0H30.079C13.493,0,0,13.494,0,30.081V269.92C0,286.507,13.493,300,30.079,300h239.843
		C286.506,300,300,286.507,300,269.92V30.081C300,13.494,286.506,0,269.922,0z M287.413,269.92c0,9.646-7.847,17.494-17.491,17.494
		H30.079c-9.646,0-17.491-7.849-17.491-17.494V30.081c0-9.646,7.846-17.494,17.491-17.494h239.843
		c9.645,0,17.491,7.848,17.491,17.494V269.92z"/>
</g>
</svg>
