<?xml version="1.0" encoding="utf-8"?>
<!-- Generator: Adobe Illustrator 16.0.0, SVG Export Plug-In . SVG Version: 6.00 Build 0)  -->
<!DOCTYPE svg PUBLIC "-//W3C//DTD SVG 1.1//EN" "http://www.w3.org/Graphics/SVG/1.1/DTD/svg11.dtd">
<svg version="1.1" id="Layer_1" xmlns="http://www.w3.org/2000/svg" xmlns:xlink="http://www.w3.org/1999/xlink" x="0px" y="0px"
	 width="300px" height="300px" viewBox="0 0 300 300" enable-background="new 0 0 300 300" xml:space="preserve">
<g>
	<g>
		<polygon fill="#9C27B0" points="121.609,110.04 125.066,113.125 130.511,117.982 133.404,120.564 138.846,125.421 141.355,127.66 
			142.283,128.49 147.107,123.082 144.288,120.564 138.846,115.709 135.951,113.125 130.509,108.27 127.053,105.184 
			122.057,100.729 119.174,102.5 115.611,104.689 116.166,105.184 		"/>
		<polygon fill="#9C27B0" points="133.966,105.184 139.412,110.04 142.305,112.623 147.744,117.479 149.48,119.025 150.408,119.855 
			155.234,114.449 153.188,112.623 147.744,107.768 144.854,105.186 139.41,100.328 135.951,97.244 132.6,94.252 126.15,98.213 
			130.509,102.1 		"/>
		<polygon fill="#9C27B0" points="142.305,97.745 147.747,102.602 150.643,105.184 156.084,110.04 157.986,111.74 162.811,106.332 
			161.523,105.184 156.08,100.328 153.188,97.746 147.744,92.891 144.288,89.805 142.473,88.184 136.027,92.146 138.846,94.66 		"/>
		
			<rect x="119.959" y="117.66" transform="matrix(0.7405 0.672 -0.672 0.7405 114.2928 -51.0548)" fill="#9C27B0" width="6.611" height="9.655"/>
		<polygon fill="#9C27B0" points="158.871,88.123 152.965,84.797 149.123,89.025 154.02,93.467 		"/>
		<polygon fill="#9C27B0" points="95.801,237.295 99.258,240.379 104.702,245.236 107.598,247.818 113.037,252.674 115.547,254.914 
			116.475,255.744 121.305,250.334 118.48,247.818 113.039,242.961 110.145,240.379 104.702,235.523 101.244,232.438 
			95.801,227.582 94.551,226.465 89.729,231.873 90.357,232.438 		"/>
		<polygon fill="#9C27B0" points="104.702,229.352 108.159,232.438 113.602,237.295 116.495,239.875 121.938,244.732 
			123.672,246.279 124.604,247.109 129.428,241.701 127.382,239.875 121.938,235.021 119.046,232.438 113.602,227.582 
			110.145,224.496 104.702,219.641 103.604,218.66 102.675,217.834 97.854,223.24 99.258,224.496 		"/>
		<polygon fill="#9C27B0" points="113.038,221.914 116.495,225 121.938,229.855 124.833,232.438 130.277,237.295 132.18,238.994 
			137.002,233.584 135.718,232.438 130.277,227.582 127.382,225 121.938,220.145 118.48,217.059 113.038,212.201 111.182,210.543 
			110.253,209.717 105.43,215.125 107.598,217.059 		"/>
		
			<rect x="94.148" y="244.919" transform="matrix(0.7403 0.6723 -0.6723 0.7403 193.217 -0.6518)" fill="#9C27B0" width="6.609" height="9.657"/>
		<polygon fill="#9C27B0" points="134.702,213.574 129.807,209.133 123.316,216.279 128.211,220.721 		"/>
		<polygon fill="#9C27B0" points="211.316,197.4 212.245,198.23 217.073,192.822 194.257,172.467 190.32,168.953 185.497,174.359 
			187.4,176.062 		"/>
		<polygon fill="#9C27B0" points="219.443,188.768 220.369,189.598 225.197,184.189 205.331,166.463 199.373,161.146 
			198.447,160.32 193.622,165.729 198.58,170.152 		"/>
		<polygon fill="#9C27B0" points="227.951,181.48 232.771,176.072 215.531,160.689 207.816,153.805 206.949,153.031 
			206.021,152.205 201.341,157.451 201.198,157.611 208.893,164.475 		"/>
		
			<rect x="189.92" y="187.405" transform="matrix(0.7406 0.672 -0.672 0.7406 179.3106 -79.9724)" fill="#9C27B0" width="6.609" height="9.654"/>
		<polygon fill="#9C27B0" points="230.471,156.062 227.62,153.475 225.578,151.619 219.378,158.445 219.086,158.766 223.98,163.207 
					"/>
		<path fill="#9C27B0" d="M30.079,300H269.92c16.587,0,30.08-13.494,30.08-30.08V30.08C300,13.494,286.507,0,269.92,0H30.079
			C13.494,0,0,13.494,0,30.08v239.84C0,286.506,13.494,300,30.079,300z M100.387,126.434c11.201,20.967,37.366,28.914,58.332,17.717
			c16.01-8.547,24.415-25.823,22.518-42.849l56.337,33.608c-1.554,1.23-3.644,2.742-6.238,4.499
			c-12.676-7.953-29.146-9.104-43.265-1.563c-14.549,7.77-22.822,22.744-22.787,38.191c-8.37,3.898-14.192,6.197-16.25,6.471
			c-11.672-3.107-32.125-12.506-53.592-24.637c-15.806-8.929-26.646-16.234-32.449-20.85c-0.395-0.312-0.768-0.612-1.113-0.899
			l88.262-53.368l13.534,8.071l7.14,4.021c0.035,0.1,0.064,0.198,0.096,0.297c5.285,15.604-1.335,33.237-16.333,41.25
			c-16.688,8.913-37.519,2.586-46.429-14.103c-1.854-3.468-3.037-7.112-3.615-10.793l-7.986,4.907
			C97.386,119.82,98.656,123.191,100.387,126.434z M174.344,171.672c1.334-10.697,7.656-20.613,17.869-26.066
			c9.905-5.292,21.268-5.213,30.732-0.785c3.225,1.512,6.226,3.533,8.875,6.013c2.677,2.502,4.998,5.467,6.818,8.875
			c8.911,16.688,2.588,37.512-14.101,46.422c-16.688,8.914-37.517,2.59-46.431-14.1c-1.646-3.086-2.771-6.316-3.406-9.586
			C174.003,178.857,173.9,175.221,174.344,171.672z M240.285,125.102l-34.512-20.586l34.512-60.934V125.102z M197.343,99.484
			l-47.237-28.183l-46.69,28.232l-37.43-66.089c0.445-0.066,0.896-0.113,1.357-0.113h163.938c1.125,0,2.196,0.216,3.19,0.595
			L197.343,99.484z M95.016,104.613l-36.673,22.176V42.336c0-0.702,0.089-1.385,0.24-2.042L95.016,104.613z M96.441,203.117
			c16.688-8.912,37.517-2.586,46.43,14.1c8.91,16.691,2.585,37.516-14.104,46.428s-37.515,2.588-46.431-14.1
			C73.43,232.857,79.754,212.029,96.441,203.117z"/>
	</g>
</g>
</svg>
