<?xml version="1.0" encoding="utf-8"?>
<!-- Generator: Adobe Illustrator 16.0.0, SVG Export Plug-In . SVG Version: 6.00 Build 0)  -->
<!DOCTYPE svg PUBLIC "-//W3C//DTD SVG 1.1//EN" "http://www.w3.org/Graphics/SVG/1.1/DTD/svg11.dtd">
<svg version="1.1" id="Layer_1" xmlns="http://www.w3.org/2000/svg" xmlns:xlink="http://www.w3.org/1999/xlink" x="0px" y="0px"
	 width="300px" height="300px" viewBox="0 0 300 300" enable-background="new 0 0 300 300" xml:space="preserve">
<g>
	<path fill="#9C27B0" d="M1.955,150.472c0,81.68,66.214,147.895,147.894,147.895s147.894-66.213,147.894-147.895
		c0-81.679-66.215-147.894-147.894-147.894S1.955,68.793,1.955,150.472z M212.009,68.864c4.101,0,8.201,1.565,11.329,4.693
		c6.26,6.259,6.26,16.408,0,22.667l-54.247,54.25l54.247,54.25c6.26,6.259,6.26,16.409,0,22.665c-6.258,6.26-16.404,6.26-22.664,0
		c0,0-58.988-58.985-59.078-59.078c-3.838-3.837-8.058-8.146-9.892-13.383c-2.526-7.212,3.766-16.167,8.664-21.062
		c0.002-0.001,60.306-60.308,60.306-60.308C203.805,70.429,207.903,68.864,212.009,68.864z M153.504,96.224l-54.249,54.249
		l54.249,54.25c6.258,6.259,6.258,16.409,0,22.665c-6.259,6.26-16.408,6.26-22.665,0c0,0-58.988-58.985-59.079-59.078
		c-3.839-3.836-8.059-8.146-9.892-13.383c-2.526-7.212,3.77-16.167,8.664-21.062c0.002-0.001,60.307-60.308,60.307-60.308
		c3.13-3.128,7.231-4.693,11.334-4.693c4.1,0,8.205,1.565,11.331,4.693C159.762,79.817,159.762,89.966,153.504,96.224z"/>
</g>
</svg>
