<?xml version="1.0" encoding="utf-8"?>
<!-- Generator: Adobe Illustrator 16.0.0, SVG Export Plug-In . SVG Version: 6.00 Build 0)  -->
<!DOCTYPE svg PUBLIC "-//W3C//DTD SVG 1.1//EN" "http://www.w3.org/Graphics/SVG/1.1/DTD/svg11.dtd">
<svg version="1.1" id="Layer_1" xmlns="http://www.w3.org/2000/svg" xmlns:xlink="http://www.w3.org/1999/xlink" x="0px" y="0px"
	 width="300px" height="300px" viewBox="0 0 300 300" enable-background="new 0 0 300 300" xml:space="preserve">
<g>
	<g>
		<path fill="#FFFFFF" d="M297.477,114.557c-1.783-3.246-4.352-5.724-7.344-7.013c-2.502-1.077-5.33-1.215-7.512-1.215
			c-0.957,0-1.922,0.031-2.861,0.062c-1.088,0.036-2.139,0.078-3.047,0.035l-37.363-1.739c-1.693-20.213-10.527-39.01-25.172-53.362
			c-15.832-15.519-36.734-24.131-58.854-24.249h-0.457c-41.195,0-76.249,29.656-83.434,69.738
			c-29.345-1.391-46.582-2.226-50.005-2.423c-0.605-0.059-1.22-0.09-1.912-0.094c-10.541,0-19.108,8.229-19.502,18.736
			c-0.28,7.469,3.777,14.442,10.377,17.921c10.984,8.628,71.627,67.22,123.763,118.613l2.539,2.504l0.558,0.326
			c0.719,0.42,1.444,0.826,2.182,1.216c2.082,1.098,4.313,1.654,6.629,1.654c3.717,0,6.996-1.406,9.889-2.646
			c1.021-0.438,1.984-0.852,2.912-1.183l0.793-0.282l11.664-9.172c23.174,11.473,42.816,21.827,50.531,26.649l1.914,1.196
			l0.18-0.049c3.576,2.087,7.09,3.144,10.473,3.144l0,0c2.875,0,4.715-0.808,5.211-1.056l0.346-0.191
			c9.682-5.808,9.373-14.762,8.984-17.656c3.535-62.029,4.541-79.675,4.828-84.753c0.732-0.562,1.701-1.238,2.162-1.56
			c0.691-0.481,1.148-0.8,1.51-1.104c1.768-1.487,3.539-2.969,5.311-4.448c2.301-1.921,4.602-3.844,6.891-5.778
			c2.646-2.239,5.668-4.476,8.869-6.844c6.699-4.956,13.627-10.08,18.539-16.279c2.373-2.994,3.338-7.11,2.775-11.454
			L297.477,114.557z M293.023,130.048c-6.736,8.501-18.383,15.355-26.697,22.39c-4.049,3.425-8.133,6.805-12.191,10.218
			c-0.732,0.619-5.34,3.51-5.396,4.517c0,0.016-4.963,87.11-4.963,87.11s1.877,7.973-6.455,12.971c0,0-4.707,2.352-12.52-3.043
			c-0.07,0.015-0.143,0.028-0.213,0.047c-8.812-5.508-31.387-17.248-53.898-28.342l-13.562,10.663
			c-5.105,1.824-9.971,5.271-15.286,2.47c-0.671-0.354-1.333-0.725-1.985-1.106l-2.079-2.049
			C84.269,193.146,23.321,134.298,13.166,126.576c-4.947-2.429-8.213-7.537-7.996-13.35c0.292-7.761,6.63-13.809,14.426-13.768
			c0.475,0.002,0.952,0.029,1.426,0.079c3.637,0.213,24.962,1.239,54.822,2.652c4.809-39.537,38.679-70.169,79.453-69.953
			c43.014,0.229,77.982,34.702,79.16,77.389c15.186,0.708,29.438,1.37,42.018,1.956c3.404,0.158,8.508-0.634,11.617,0.703
			c2.73,1.177,4.871,4.039,5.959,7.271c0.031,0.095,0.061,0.192,0.09,0.287C295.271,123.431,295.105,127.421,293.023,130.048z"/>
		<path fill="#FFFFFF" d="M183.125,226.137c5.602,2.79,12.188,6.102,18.773,9.487c9.979,5.128,18.012,9.42,23.875,12.757
			c1.08,0.615,2.078,1.19,2.998,1.731l-15.275-47.854L183.125,226.137z"/>
		<path fill="#FFFFFF" d="M233.584,173.562l-24.266-3.666c-0.92,0.865-1.859,1.708-2.822,2.529l6.818,2.771l1.23,0.499
			c-0.066,0.093-0.107,0.153-0.107,0.153c10.707,2.832,10.498,16.045,10.498,16.045l3.219,11.941c0,0,0.059-0.085,0.16-0.231
			l6.555,22.703l-0.135-52.57L233.584,173.562z"/>
		<path fill="#FFFFFF" d="M220.352,157.103l15.367,2.321l40.09-33.558c0,0-16.996-0.791-42.229-1.967
			C231.721,136.095,227.092,147.381,220.352,157.103z"/>
		<path fill="#FFFFFF" d="M192.326,182.104c-11.289,6.045-24.193,9.445-37.877,9.371c-35.306-0.187-65.191-23.452-75.419-55.392
			l-1.295-0.524l1.183,0.18c-1.933-6.136-3.141-12.588-3.524-19.256c-30.952-1.464-53.562-2.551-55.758-2.706
			c6.219,1.712,128.18,121.933,128.18,121.933l60.117-47.267L192.326,182.104z"/>
		<path fill="#FFFFFF" d="M97.398,138.529c1.029,2.212,2.184,4.354,3.455,6.419c11.097,18.049,30.981,30.159,53.684,30.279
			c5.529,0.03,10.898-0.655,16.023-1.966c3.527-0.902,6.941-2.103,10.207-3.57c5.291-2.378,10.197-5.463,14.604-9.133
			c2.314-1.926,4.486-4.015,6.508-6.247c7.764-8.588,13.217-19.309,15.359-31.176c0.42-2.33,0.709-4.705,0.867-7.115
			c0.082-1.267,0.133-2.542,0.141-3.827c0.004-1.115-0.02-2.225-0.07-3.326c-1.559-33.412-29.139-60.201-62.965-60.381
			c-32.038-0.17-58.723,23.588-63.079,54.473c-0.331,2.338-0.535,4.717-0.603,7.129c-0.012,0.478-0.022,0.953-0.025,1.434
			c-0.011,1.931,0.071,3.845,0.231,5.732C92.374,124.795,94.338,131.964,97.398,138.529z M150.33,146.525l-1.792,6.959l-0.729,2.819
			l-1.778,6.909l-0.572-0.146l-11.252-2.896l0.391-1.517l1.801-6.985l0.004-0.018l1.792-6.96l0.462-1.788l11.824,3.042
			L150.33,146.525z M160.211,58.816l11.824,3.039l-4.451,17.271l-11.82-3.042L160.211,58.816z M127.661,75.571l2.231,0.558
			l62.036,15.401l-3.229,12.99l-64.265-15.956L127.661,75.571z M119.939,104.269l1.886-7.59l2.229,0.555l35.894,8.911l26.141,6.491
			l-0.461,1.867l-1.758,7.075l-1.006,4.047l-2.227-0.551l-18.098-4.493l-35.537-8.824l-8.404-2.086L119.939,104.269z
			 M115.955,118.396l0.48-1.929l9.696,2.407l54.568,13.549l-3.225,12.989l-2.229-0.551l-62.038-15.404L115.955,118.396z"/>
	</g>
	<path fill="#9C27B0" d="M294.051,119.557c-1.088-3.232-3.229-6.095-5.959-7.271c-3.109-1.337-8.213-0.545-11.617-0.703
		c-12.58-0.586-26.832-1.248-42.018-1.956c-1.178-42.687-36.146-77.159-79.16-77.389c-40.774-0.216-74.645,30.416-79.453,69.953
		c-29.859-1.413-51.185-2.439-54.822-2.652c-0.474-0.05-0.952-0.077-1.426-0.079C11.8,99.418,5.461,105.466,5.17,113.227
		c-0.217,5.812,3.049,10.921,7.996,13.35c10.155,7.722,71.103,66.569,124.611,119.316l2.079,2.049
		c0.652,0.382,1.313,0.753,1.985,1.106c5.315,2.802,10.181-0.646,15.286-2.47l13.562-10.663
		c22.512,11.094,45.086,22.834,53.898,28.342c0.07-0.019,0.143-0.032,0.213-0.047c7.812,5.395,12.52,3.043,12.52,3.043
		c8.332-4.998,6.455-12.971,6.455-12.971s4.963-87.095,4.963-87.11c0.057-1.007,4.664-3.897,5.396-4.517
		c4.059-3.413,8.143-6.793,12.191-10.218c8.314-7.034,19.961-13.889,26.697-22.39c2.082-2.627,2.248-6.617,1.117-10.204
		C294.111,119.749,294.082,119.651,294.051,119.557z M214.438,175.849c0,0,0.041-0.061,0.107-0.153l-1.23-0.499l-6.818-2.771
		c0.963-0.821,1.902-1.664,2.822-2.529l24.266,3.666l1.15,0.174l0.135,52.57l-6.555-22.703c-0.102,0.146-0.16,0.231-0.16,0.231
		l-3.219-11.941C224.936,191.894,225.145,178.681,214.438,175.849z M92.132,102.959c4.356-30.885,31.042-54.643,63.079-54.473
		c33.826,0.18,61.406,26.969,62.965,60.381c0.051,1.102,0.074,2.211,0.07,3.326c-0.008,1.285-0.059,2.561-0.141,3.827
		c-0.158,2.41-0.447,4.785-0.867,7.115c-2.143,11.867-7.596,22.588-15.359,31.176c-2.021,2.232-4.193,4.321-6.508,6.247
		c-4.406,3.67-9.312,6.755-14.604,9.133c-3.266,1.468-6.68,2.668-10.207,3.57c-5.125,1.311-10.494,1.996-16.023,1.966
		c-22.703-0.12-42.586-12.23-53.684-30.279c-1.271-2.065-2.426-4.207-3.455-6.419c-3.06-6.565-5.024-13.734-5.663-21.275
		c-0.161-1.888-0.242-3.802-0.231-5.732c0.003-0.48,0.014-0.956,0.025-1.434C91.597,107.676,91.801,105.297,92.132,102.959z
		 M220.352,157.103c6.74-9.722,11.369-21.008,13.229-33.203c25.232,1.176,42.229,1.967,42.229,1.967l-40.09,33.558L220.352,157.103z
		 M19.636,113.776c2.196,0.155,24.806,1.242,55.758,2.706c0.383,6.668,1.591,13.12,3.524,19.256l-1.183-0.18l1.295,0.524
		c10.228,31.939,40.113,55.205,75.419,55.392c13.684,0.074,26.588-3.326,37.877-9.371l15.607,6.339l-60.117,47.267
		C147.816,235.709,25.855,115.488,19.636,113.776z M213.496,202.258l15.275,47.854c-0.92-0.541-1.918-1.116-2.998-1.731
		c-5.863-3.337-13.896-7.629-23.875-12.757c-6.586-3.386-13.172-6.697-18.773-9.487L213.496,202.258z"/>
	<polygon fill="#9C27B0" points="191.928,91.53 129.892,76.129 127.661,75.571 124.434,88.564 188.699,104.521 	"/>
	<polygon fill="#9C27B0" points="162.539,120.581 180.637,125.074 182.863,125.625 183.869,121.578 185.627,114.503 
		186.088,112.636 159.947,106.145 124.054,97.233 121.825,96.679 119.939,104.269 118.598,109.671 127.002,111.757 	"/>
	<polygon fill="#9C27B0" points="177.475,145.412 180.699,132.423 126.131,118.874 116.435,116.467 115.955,118.396 
		113.208,129.457 175.246,144.861 	"/>
	<polygon fill="#9C27B0" points="172.035,61.855 160.211,58.816 155.764,76.084 167.584,79.126 	"/>
	<polygon fill="#9C27B0" points="138.194,144.691 136.402,151.651 136.398,151.669 134.597,158.654 134.206,160.171 
		145.458,163.066 146.03,163.213 147.809,156.304 148.538,153.484 150.33,146.525 150.479,145.945 138.656,142.903 	"/>
</g>
</svg>
