<?xml version="1.0" encoding="utf-8"?>
<!-- Generator: Adobe Illustrator 16.0.0, SVG Export Plug-In . SVG Version: 6.00 Build 0)  -->
<!DOCTYPE svg PUBLIC "-//W3C//DTD SVG 1.1//EN" "http://www.w3.org/Graphics/SVG/1.1/DTD/svg11.dtd">
<svg version="1.1" id="Layer_1" xmlns="http://www.w3.org/2000/svg" xmlns:xlink="http://www.w3.org/1999/xlink" x="0px" y="0px"
	 width="300px" height="300px" viewBox="0 0 300 300" enable-background="new 0 0 300 300" xml:space="preserve">
<g>
	<g>
		<path fill="#FFFFFF" d="M277.809,22.577H121.31c-3.526,0-6.396,2.866-6.396,6.392v60.396c2.584,1.519,5.142,3.222,7.629,5.126
			V41.482c0-7.338,6.154-13.309,13.721-13.309h125.386c7.563,0,13.719,5.971,13.719,13.31v185.503c0,7.34-6.155,13.31-13.719,13.31
			H136.264c-7.566,0-13.721-5.97-13.721-13.308V153.39c-1.958-1.879-4.464-3.935-7.629-5.938v123.579
			c0,3.524,2.869,6.393,6.396,6.393h156.499c3.524,0,6.394-2.868,6.394-6.393V28.97C284.202,25.444,281.333,22.577,277.809,22.577z
			 M212.189,266.033c0,5.354-4.357,9.71-9.713,9.71h-10.299c-5.357,0-9.717-4.355-9.717-9.71v-10.302
			c0-5.355,4.359-9.711,9.717-9.711h10.299c5.355,0,9.713,4.355,9.713,9.711V266.033z"/>
		<path fill="#FFFFFF" d="M148.803,166.439l-2.977,1.651c-0.692,0.385-2.582,1.275-5.217,1.275
			c-2.256,0.001-6.029-0.698-9.413-4.541v62.163c0,2.566,2.272,4.654,5.067,4.654h125.386c2.792,0,5.063-2.088,5.063-4.656V41.483
			c0-2.567-2.271-4.655-5.063-4.655l-125.386-0.001c-2.795,0-5.067,2.089-5.067,4.655v60.877c0.151,0.165,0.307,0.321,0.458,0.486
			c13.641,15.032,19.507,35.287,17.431,60.198L148.803,166.439z M190.686,200.374l-14.459-3.639l5.322-21.117l14.46,3.64
			L190.686,200.374z M207.328,72.788l14.459,3.638l-5.319,21.116l-14.46-3.638L207.328,72.788z M167.686,93.462l2.729,0.666
			l75.859,18.405l-3.855,15.887l-78.59-19.069L167.686,93.462z M160.693,119.275l2.728,0.665l75.86,18.407l-3.854,15.883
			l-2.726-0.657l-75.864-18.408L160.693,119.275z M154.238,143.478l78.591,19.07l-3.854,15.883l-2.727-0.659l-75.861-18.407
			L154.238,143.478z"/>
		<path fill="#FFFFFF" d="M202.477,252.36h-10.299c-1.862,0-3.375,1.511-3.375,3.371v10.302c0,1.858,1.513,3.37,3.375,3.37h10.299
			c1.858,0,3.372-1.512,3.372-3.37v-10.302C205.849,253.871,204.335,252.36,202.477,252.36z"/>
		<path fill="#FFFFFF" d="M277.809,6.779L121.31,6.778c-12.238,0-22.193,9.954-22.193,22.19v47.736
			c-6.668-2.186-12.849-3.468-17.874-4.216c-0.638-15.434-9.54-20.983-17.863-20.983c-8.025,0-17.085,5.216-28.508,16.408
			l-0.256,0.252c-1.052,0.91-2.986,2.461-5.033,4.101C5.193,91.816,0.771,98.405,0.088,105.78
			c-0.966,10.449,6.261,16.714,10.142,20.078l0.116,0.101c0.405,0.354,0.807,0.699,1.191,1.053
			c7.413,6.765,15.019,13.53,22.373,20.075l1.202,1.07c2.274,2.023,4.549,4.045,6.82,6.073l0.541,0.453
			c7.147,5.631,13.545,8.368,19.559,8.368c6.852,0,12.898-3.702,16.176-9.901c1.894-3.584,2.364-7.004,2.463-7.96l0.088-0.833
			l-0.075-1.809c6.663,0.436,12.834,1.542,18.433,3.306v125.177c0,12.235,9.955,22.19,22.193,22.19h156.499
			c12.236,0,22.191-9.955,22.191-22.19V28.97C300,16.733,290.045,6.779,277.809,6.779z M294.855,271.031
			c0,9.398-7.647,17.046-17.047,17.046H121.31c-9.401,0-17.049-7.647-17.049-17.046V142.192c-0.915-0.346-1.861-0.68-2.838-0.999
			c-0.03-0.011-0.061-0.02-0.092-0.031c-2.941-0.959-6.164-1.792-9.702-2.444c-0.184-0.033-0.375-0.063-0.561-0.097
			c-0.93-0.165-1.881-0.317-2.853-0.457c-0.351-0.05-0.707-0.097-1.062-0.143c-0.844-0.11-1.705-0.208-2.581-0.297
			c-0.414-0.043-0.829-0.086-1.252-0.123c-0.892-0.08-1.807-0.143-2.732-0.199c-0.399-0.024-0.791-0.056-1.197-0.076
			c-1.329-0.064-2.684-0.111-4.08-0.127l0.292,6.997l-0.047,0.461c-0.054,0.519-0.398,3.256-1.896,6.088
			c-2.405,4.551-6.644,7.163-11.628,7.163c-4.815,0-10.172-2.378-16.376-7.266l-0.299-0.251c-2.619-2.338-5.241-4.669-7.863-7.002
			c-7.396-6.582-15.045-13.386-22.488-20.178c-0.449-0.41-0.924-0.82-1.405-1.238c-3.629-3.146-9.112-7.902-8.391-15.721
			c0.522-5.631,4.933-11.812,27.589-29.972c2.258-1.809,4.211-3.375,5.307-4.333c0.082-0.08,0.206-0.201,0.363-0.356
			C48.729,61.538,56.876,56.65,63.379,56.65c3.819,0,12.679,1.703,12.755,17.435l0.184,2.957c0.379,0.041,0.774,0.086,1.184,0.135
			c0.111,0.013,0.231,0.028,0.345,0.043c0.307,0.037,0.615,0.075,0.936,0.118c0.13,0.017,0.263,0.037,0.395,0.056
			c0.322,0.043,0.647,0.089,0.984,0.138c0.128,0.018,0.26,0.039,0.391,0.058c0.353,0.055,0.712,0.109,1.078,0.168
			c0.123,0.021,0.246,0.04,0.37,0.062c0.392,0.063,0.79,0.132,1.196,0.204c0.104,0.018,0.211,0.037,0.315,0.056
			c0.44,0.078,0.888,0.164,1.344,0.25c0.08,0.016,0.161,0.031,0.243,0.047c0.492,0.097,0.994,0.199,1.504,0.307
			c0.051,0.01,0.101,0.02,0.152,0.031c5.216,1.103,11.258,2.792,17.505,5.372c0.001,0,0.001,0,0.002,0.002V28.969
			c0-9.399,7.647-17.046,17.049-17.046l156.499,0.001c9.399,0,17.047,7.646,17.047,17.046V271.031z"/>
		<path fill="#FFFFFF" d="M122.543,137.231c3.473,2.279,6.328,4.629,8.653,6.842c2.339,2.227,4.143,4.314,5.468,6.04
			c-0.359-9.288-2.194-17.595-5.468-24.889c-2.221-4.947-5.104-9.427-8.653-13.417c-0.114-0.129-0.222-0.262-0.337-0.389
			c-2.275-2.506-4.733-4.719-7.292-6.688c-0.19-0.147-0.38-0.301-0.571-0.444c-0.188-0.143-0.382-0.272-0.571-0.411
			c-2.714-1.986-5.528-3.704-8.368-5.184c-0.19-0.101-0.38-0.194-0.571-0.293c-0.19-0.096-0.381-0.196-0.571-0.291
			c-16.748-8.348-33.815-8.72-34.051-8.723l-5.91-0.081l-0.925-15.012c0-2.668-0.322-4.102-0.561-4.794
			c-1.535,0.356-6.179,2.154-15.416,11.207c-0.405,0.397-0.684,0.662-0.805,0.769c-1.308,1.15-3.297,2.744-5.814,4.765
			c-5.24,4.199-21.047,16.868-22.866,21.39c0.081,1.178,1.742,2.708,4.046,4.706c0.565,0.49,1.12,0.973,1.646,1.453
			c7.385,6.737,15.003,13.516,22.369,20.069c2.577,2.294,5.154,4.585,7.727,6.881c5.367,4.196,7.879,4.41,8.331,4.41
			c0.051,0,0.09,0,0.119-0.004c0.228-0.253,0.514-0.936,0.657-1.543l-0.783-18.771l6.366-0.275c1.901-0.079,3.805-0.122,5.657-0.122
			c11.974,0,21.952,1.689,30.212,4.271c0.193,0.062,0.38,0.128,0.571,0.188c0.192,0.062,0.381,0.125,0.571,0.188
			c3.021,0.993,5.808,2.102,8.368,3.292c0.192,0.09,0.381,0.182,0.571,0.271c0.19,0.091,0.384,0.18,0.571,0.271
			C117.73,134.283,120.27,135.74,122.543,137.231z"/>
	</g>
	<polygon fill="#9C27B0" points="246.273,112.533 170.414,94.128 167.686,93.462 163.828,109.351 242.418,128.42 	"/>
	<polygon fill="#9C27B0" points="235.428,154.23 239.281,138.348 163.421,119.94 160.693,119.275 156.838,135.165 232.702,153.573 	
		"/>
	<polygon fill="#9C27B0" points="228.975,178.431 232.829,162.548 154.238,143.478 150.387,159.364 226.248,177.771 	"/>
	<polygon fill="#9C27B0" points="221.787,76.426 207.328,72.788 202.008,93.904 216.468,97.542 	"/>
	<polygon fill="#9C27B0" points="176.227,196.735 190.686,200.374 196.009,179.258 181.549,175.618 	"/>
	<path fill="#9C27B0" d="M121.31,288.077h156.499c9.399,0,17.047-7.647,17.047-17.046V28.97c0-9.399-7.647-17.046-17.047-17.046
		L121.31,11.923c-9.401,0-17.049,7.646-17.049,17.046v55.118c-0.001-0.002-0.001-0.002-0.002-0.002
		c-0.987-0.406-1.968-0.787-2.943-1.15c-5.191-1.941-10.171-3.293-14.562-4.222c-0.051-0.012-0.102-0.021-0.152-0.031
		c-0.51-0.107-1.012-0.21-1.504-0.307c-0.082-0.016-0.163-0.031-0.243-0.047c-0.456-0.088-0.903-0.171-1.344-0.25
		c-0.104-0.019-0.211-0.038-0.315-0.056c-0.406-0.072-0.805-0.14-1.196-0.204c-0.123-0.021-0.248-0.041-0.37-0.062
		c-0.366-0.059-0.726-0.113-1.078-0.168c-0.131-0.019-0.263-0.04-0.391-0.058c-0.337-0.049-0.662-0.095-0.984-0.138
		c-0.131-0.019-0.266-0.039-0.395-0.056c-0.32-0.043-0.629-0.081-0.936-0.118c-0.113-0.015-0.233-0.03-0.345-0.043
		c-0.409-0.049-0.805-0.094-1.184-0.135l-0.184-2.957C76.058,58.354,67.198,56.65,63.379,56.65c-6.503,0-14.649,4.888-24.91,14.941
		c-0.157,0.155-0.281,0.276-0.363,0.356c-1.096,0.958-3.049,2.524-5.307,4.333C10.143,94.441,5.732,100.622,5.21,106.253
		c-0.722,7.818,4.762,12.574,8.391,15.721c0.481,0.418,0.956,0.828,1.405,1.238c7.443,6.792,15.092,13.596,22.488,20.178
		c2.622,2.333,5.244,4.664,7.863,7.002l0.299,0.251c6.204,4.888,11.561,7.266,16.376,7.266c4.984,0,9.223-2.612,11.628-7.163
		c1.497-2.832,1.842-5.569,1.896-6.088l0.047-0.461l-0.292-6.997c1.396,0.016,2.751,0.062,4.08,0.127
		c0.406,0.021,0.798,0.052,1.197,0.076c0.926,0.057,1.84,0.119,2.732,0.199c0.423,0.037,0.838,0.08,1.252,0.123
		c0.876,0.089,1.736,0.187,2.581,0.297c0.355,0.048,0.712,0.093,1.062,0.143c0.973,0.14,1.922,0.292,2.853,0.457
		c0.186,0.033,0.377,0.063,0.561,0.097c3.538,0.652,6.761,1.485,9.702,2.444c0.031,0.012,0.062,0.021,0.092,0.031
		c0.978,0.319,1.923,0.653,2.838,0.999v128.839C104.261,280.43,111.908,288.077,121.31,288.077z M68.392,124.555l-6.366,0.275
		l0.783,18.771c-0.144,0.607-0.43,1.29-0.657,1.543c-0.029,0.004-0.068,0.004-0.119,0.004c-0.452,0-2.964-0.214-8.331-4.41
		c-2.572-2.296-5.149-4.587-7.727-6.881c-7.366-6.554-14.984-13.332-22.369-20.069c-0.526-0.48-1.081-0.963-1.646-1.453
		c-2.304-1.998-3.965-3.528-4.046-4.706c1.819-4.521,17.626-17.19,22.866-21.39c2.518-2.021,4.507-3.614,5.814-4.765
		c0.121-0.106,0.399-0.371,0.805-0.769c9.237-9.053,13.881-10.851,15.416-11.207c0.238,0.692,0.561,2.126,0.561,4.794L64.3,89.304
		l5.91,0.081c0.235,0.003,17.303,0.375,34.051,8.723c0.19,0.095,0.381,0.195,0.571,0.291c0.191,0.099,0.381,0.192,0.571,0.293
		c2.84,1.479,5.654,3.197,8.368,5.184c0.189,0.139,0.383,0.269,0.571,0.411c0.191,0.144,0.381,0.297,0.571,0.444
		c2.559,1.97,5.017,4.183,7.292,6.688c0.115,0.127,0.223,0.26,0.337,0.389c3.549,3.99,6.433,8.47,8.653,13.417
		c3.273,7.294,5.108,15.601,5.468,24.889c-1.325-1.726-3.129-3.813-5.468-6.04c-2.325-2.213-5.181-4.562-8.653-6.842
		c-2.273-1.491-4.812-2.948-7.629-4.318c-0.188-0.091-0.381-0.18-0.571-0.271c-0.19-0.089-0.379-0.181-0.571-0.271
		c-2.561-1.19-5.348-2.299-8.368-3.292c-0.19-0.063-0.379-0.127-0.571-0.188c-0.191-0.061-0.378-0.127-0.571-0.188
		c-8.26-2.581-18.238-4.271-30.212-4.271C72.196,124.433,70.293,124.476,68.392,124.555z M145.826,168.091l2.977-1.651l0.282-3.396
		c2.076-24.911-3.79-45.166-17.431-60.198c-0.151-0.165-0.307-0.321-0.458-0.486V41.482c0-2.566,2.272-4.655,5.067-4.655
		l125.386,0.001c2.792,0,5.063,2.088,5.063,4.655v185.503c0,2.568-2.271,4.656-5.063,4.656H136.264
		c-2.795,0-5.067-2.088-5.067-4.654v-62.163c3.384,3.843,7.157,4.542,9.413,4.541C143.244,169.366,145.134,168.476,145.826,168.091z
		 M136.264,240.296h125.386c7.563,0,13.719-5.97,13.719-13.31V41.483c0-7.339-6.155-13.31-13.719-13.31H136.264
		c-7.566,0-13.721,5.971-13.721,13.309V94.49c-2.487-1.904-5.045-3.607-7.629-5.126V28.969c0-3.525,2.869-6.392,6.396-6.392h156.499
		c3.524,0,6.394,2.867,6.394,6.393v242.062c0,3.524-2.869,6.393-6.394,6.393H121.31c-3.526,0-6.396-2.868-6.396-6.393V147.452
		c3.165,2.003,5.671,4.059,7.629,5.938v73.599C122.543,234.326,128.697,240.296,136.264,240.296z"/>
	<path fill="#9C27B0" d="M192.178,275.743h10.299c5.355,0,9.713-4.355,9.713-9.71v-10.302c0-5.355-4.357-9.711-9.713-9.711h-10.299
		c-5.357,0-9.717,4.355-9.717,9.711v10.302C182.461,271.388,186.82,275.743,192.178,275.743z M188.803,255.731
		c0-1.86,1.513-3.371,3.375-3.371h10.299c1.858,0,3.372,1.511,3.372,3.371v10.302c0,1.858-1.514,3.37-3.372,3.37h-10.299
		c-1.862,0-3.375-1.512-3.375-3.37V255.731z"/>
</g>
</svg>
